<svg t="1591862304834" class="icon" viewBox="0 0 1450 1024" version="1.1" xmlns="http://www.w3.org/2000/svg" p-id="1118" width="14" height="14"><path d="M1433.6 218.794667l-783.36 782.421333c-5.973333 5.888-6.826667 4.181333-5.973333-2.304a86.784 86.784 0 0 1-111.786667 8.533333l-515.413333-512a95.488 95.488 0 0 1 22.186666-128.682666l50.346667-50.346667a94.293333 94.293333 0 0 1 128-22.442667L587.946667 662.186667a26.709333 26.709333 0 0 1 5.12-6.656l640-637.781334a95.488 95.488 0 0 1 128.853333 22.442667l50.346667 50.346667a95.146667 95.146667 0 0 1 21.333333 128.256z" p-id="1119" fill="#515151"></path></svg>