<svg width="338" height="337" viewBox="0 0 338 337" fill="none" xmlns="http://www.w3.org/2000/svg">
<path d="M168.842 0C239.842 0 300.542 43.9 325.342 105.9C290.742 112.9 258.642 123.9 234.242 138.7C150.842 110.3 66.8418 107.2 11.2418 108.6C35.4418 45.2 96.8418 0 168.842 0Z" fill="url(#paint0_linear_1_23)"/>
<path d="M287.242 288.4C256.842 318.5 215.042 337 168.842 337C148.842 337 129.642 333.5 111.842 327.1C143.442 305.9 199.442 282.1 287.242 288.4Z" fill="#2188E3"/>
<path d="M90.9418 318C57.7418 300.7 31.0418 272.6 15.4418 238.4C91.5418 233.8 191.442 236.8 262.242 272.9C262.242 272.9 188.142 263 90.9418 318Z" fill="#45C0FF"/>
<path d="M330.842 121.9C335.042 136.7 337.342 152.3 337.342 168.5C337.342 179.4 336.342 190 334.342 200.4L329.342 198.1C300.042 183.5 266.642 169.6 230.342 157.4C230.542 157.1 267.442 129.5 330.842 121.9Z" fill="#4FD4FF"/>
<path d="M8.5418 220.5C3.2418 204.1 0.341797 186.7 0.341797 168.5C0.341797 154 2.1418 140 5.5418 126.6C81.6418 125.4 177.642 135.5 230.242 157.3C144.142 169 75.2418 189.5 8.7418 220.3L8.5418 220.5Z" fill="#1078D3"/>
<path d="M334.342 200.6C329.442 225.9 318.942 249.2 304.142 269.1C188.042 214.2 59.1418 217.1 14.6418 220.2C12.5418 220.3 10.2418 220.4 8.54181 220.5L8.84181 220.4C75.3418 189.5 144.242 169 230.342 157.3C268.742 170.2 303.842 185 334.342 200.6Z" fill="#28A5FF"/>
<defs>
<linearGradient id="paint0_linear_1_23" x1="11.2575" y1="69.3949" x2="325.344" y2="69.3949" gradientUnits="userSpaceOnUse">
<stop stop-color="#FF7800"/>
<stop offset="1" stop-color="#FFD200"/>
</linearGradient>
</defs>
</svg>
