<svg width="235" height="225" xmlns="http://www.w3.org/2000/svg" xmlns:xlink="http://www.w3.org/1999/xlink"><defs><path id="a" d="M0 .209h4.272V4.48H0z"/><path id="c" d="M0 .209h4.272V4.48H0z"/><path id="e" d="M0 .209h4.272V4.48H0z"/></defs><g fill="none" fill-rule="evenodd" opacity=".2"><path d="M137.242 202.93a2.136 2.136 0 114.272 0 2.136 2.136 0 01-4.272 0M145.869 202.93a2.053 2.053 0 114.105 0 2.053 2.053 0 01-4.105 0M154.495 202.93a1.97 1.97 0 113.94 0 1.97 1.97 0 01-3.94 0M163.121 202.93a1.886 1.886 0 113.773 0 1.886 1.886 0 01-3.773 0M171.748 202.93a1.803 1.803 0 113.606 0 1.803 1.803 0 01-3.606 0M180.375 202.93a1.72 1.72 0 113.44 0 1.72 1.72 0 01-3.44 0M189.001 202.93a1.637 1.637 0 113.274 0 1.637 1.637 0 01-3.274 0M197.628 202.93a1.553 1.553 0 113.105 0 1.553 1.553 0 01-3.105 0M206.254 202.93a1.47 1.47 0 112.94 0 1.47 1.47 0 01-2.94 0M214.88 202.93a1.387 1.387 0 112.775 0 1.387 1.387 0 01-2.774 0M223.507 202.93a1.304 1.304 0 112.609 0 1.304 1.304 0 01-2.609 0M234.574 202.93a1.22 1.22 0 11-2.439 0 1.22 1.22 0 012.44 0M128.699 212.897a2.136 2.136 0 114.272 0 2.136 2.136 0 01-4.272 0M137.31 212.897a2.067 2.067 0 114.135.002 2.067 2.067 0 01-4.134-.002M145.923 212.897a1.998 1.998 0 113.996 0 1.998 1.998 0 01-3.996 0M154.535 212.897a1.93 1.93 0 113.86 0 1.93 1.93 0 01-3.86 0M163.148 212.897a1.86 1.86 0 113.72 0 1.86 1.86 0 01-3.72 0M171.76 212.897a1.791 1.791 0 113.582 0 1.791 1.791 0 01-3.582 0M180.372 212.897a1.722 1.722 0 113.444 0 1.722 1.722 0 01-3.444 0M188.984 212.897a1.653 1.653 0 113.306 0 1.653 1.653 0 01-3.306 0M197.596 212.897a1.584 1.584 0 113.168 0 1.584 1.584 0 01-3.168 0M206.208 212.897a1.516 1.516 0 113.033 0 1.516 1.516 0 01-3.033 0M214.82 212.897a1.447 1.447 0 112.895 0 1.447 1.447 0 01-2.895 0M223.433 212.897a1.377 1.377 0 112.754 0 1.377 1.377 0 01-2.754 0M234.663 212.897a1.31 1.31 0 11-2.62 0 1.31 1.31 0 012.62 0" fill="#3493FF" fill-rule="nonzero"/><g transform="rotate(-90 176.745 48.255)"><mask id="b" fill="#fff"><use xlink:href="#a"/></mask><path d="M2.136.209a2.136 2.136 0 110 4.272 2.136 2.136 0 010-4.272" fill="#0FF" mask="url(#b)"/></g><path d="M137.308 222.864a2.07 2.07 0 114.14 0 2.07 2.07 0 01-4.14 0M145.918 222.864a2.003 2.003 0 114.006 0 2.003 2.003 0 01-4.006 0M154.527 222.864a1.938 1.938 0 113.875.001 1.938 1.938 0 01-3.875 0M163.136 222.864a1.872 1.872 0 113.744 0 1.872 1.872 0 01-3.744 0M171.745 222.864a1.807 1.807 0 113.613.001 1.807 1.807 0 01-3.613 0M180.355 222.864a1.74 1.74 0 113.48.002 1.74 1.74 0 01-3.48-.002M188.964 222.864a1.673 1.673 0 113.346 0 1.673 1.673 0 01-3.346 0M197.573 222.864a1.607 1.607 0 113.215 0 1.607 1.607 0 01-3.215 0M206.183 222.864a1.542 1.542 0 113.084 0 1.542 1.542 0 01-3.084 0M214.792 222.864a1.475 1.475 0 112.95 0 1.475 1.475 0 01-2.95 0M223.402 222.864a1.41 1.41 0 112.818 0 1.41 1.41 0 01-2.818 0M234.697 222.864a1.343 1.343 0 11-2.686 0 1.343 1.343 0 012.686 0" fill="#0FF"/><path d="M124.427 12.13a2.136 2.136 0 114.272 0 2.136 2.136 0 01-4.272 0M133.052 12.13a2.055 2.055 0 114.11 0 2.055 2.055 0 01-4.11 0M167.548 12.13a1.73 1.73 0 113.463 0 1.731 1.731 0 01-3.463 0M227.917 12.13a1.166 1.166 0 112.332 0 1.166 1.166 0 01-2.332 0M124.427 22.097a2.137 2.137 0 114.274.001 2.137 2.137 0 01-4.274-.001M133.052 22.097a2.055 2.055 0 114.109 0 2.055 2.055 0 01-4.11 0M167.55 22.097a1.729 1.729 0 113.458 0 1.729 1.729 0 01-3.458 0M176.175 22.097a1.647 1.647 0 113.295 0 1.647 1.647 0 01-3.295 0M184.8 22.097a1.566 1.566 0 113.132 0 1.566 1.566 0 01-3.132 0M193.424 22.097a1.484 1.484 0 112.97 0 1.484 1.484 0 01-2.97 0M202.05 22.097a1.403 1.403 0 112.805 0 1.403 1.403 0 01-2.806 0M210.674 22.097a1.322 1.322 0 112.644 0 1.322 1.322 0 01-2.644 0M219.299 22.097a1.24 1.24 0 112.481 0 1.24 1.24 0 01-2.481 0M227.923 22.097a1.16 1.16 0 112.319 0 1.16 1.16 0 01-2.319 0M132.97 32.064a2.136 2.136 0 114.273 0 2.136 2.136 0 01-4.273 0M141.583 32.064a2.066 2.066 0 114.132 0 2.066 2.066 0 01-4.132 0M150.196 32.064a1.996 1.996 0 113.992 0 1.996 1.996 0 01-3.992 0M158.81 32.064a1.927 1.927 0 113.854 0 1.927 1.927 0 01-3.855 0M167.422 32.064a1.857 1.857 0 113.714 0 1.857 1.857 0 01-3.714 0M176.035 32.064a1.788 1.788 0 113.576 0 1.788 1.788 0 01-3.576 0M184.648 32.064a1.718 1.718 0 113.436 0 1.718 1.718 0 01-3.436 0M193.261 32.064a1.648 1.648 0 113.296 0 1.648 1.648 0 01-3.296 0M201.874 32.064a1.58 1.58 0 113.158 0 1.58 1.58 0 01-3.158 0M142.226 42.031a2.136 2.136 0 114.271 0 2.136 2.136 0 01-4.271 0M150.831 42.031a2.074 2.074 0 114.148.002 2.074 2.074 0 01-4.148-.002M159.437 42.031a2.011 2.011 0 114.023 0 2.011 2.011 0 01-4.023 0M168.043 42.031a1.948 1.948 0 113.896 0 1.948 1.948 0 01-3.896 0M176.649 42.031a1.885 1.885 0 113.77 0 1.885 1.885 0 01-3.77 0M185.255 42.031a1.823 1.823 0 113.645 0 1.823 1.823 0 01-3.645 0M193.86 42.031a1.76 1.76 0 113.522-.001 1.76 1.76 0 01-3.521.001M202.466 42.031a1.699 1.699 0 113.397.001 1.699 1.699 0 01-3.397 0M147.921 51.998a2.136 2.136 0 114.271 0 2.136 2.136 0 01-4.27 0M156.52 51.998a2.08 2.08 0 114.161.001 2.08 2.08 0 01-4.16 0M165.12 51.998a2.023 2.023 0 114.046 0 2.023 2.023 0 01-4.045 0M173.72 51.998a1.966 1.966 0 113.932 0 1.966 1.966 0 01-3.932 0M182.32 51.998a1.91 1.91 0 113.82 0 1.91 1.91 0 01-3.82 0M167.48 2.163a1.798 1.798 0 113.596-.001 1.798 1.798 0 01-3.595 0M5.533 143.127a2.136 2.136 0 114.271-.001 2.136 2.136 0 01-4.271 0M14.158 143.127a2.054 2.054 0 114.108 0 2.054 2.054 0 01-4.108 0M22.784 143.127a1.971 1.971 0 113.942-.002 1.971 1.971 0 01-3.942.002M31.41 143.127a1.89 1.89 0 113.78 0 1.89 1.89 0 01-3.78 0M40.034 143.127a1.808 1.808 0 113.616.001 1.808 1.808 0 01-3.616-.001M48.66 143.127a1.725 1.725 0 113.45-.001 1.725 1.725 0 01-3.45 0M57.285 143.127a1.644 1.644 0 113.287 0 1.644 1.644 0 01-3.287 0M65.91 143.127a1.561 1.561 0 113.123 0 1.561 1.561 0 01-3.122 0M74.536 143.127a1.48 1.48 0 112.96 0 1.48 1.48 0 01-2.96 0M83.162 143.127a1.396 1.396 0 112.792 0 1.396 1.396 0 01-2.792 0M91.787 143.127a1.314 1.314 0 112.628-.001 1.314 1.314 0 01-2.628 0M100.413 143.127a1.232 1.232 0 112.464 0 1.232 1.232 0 01-2.464 0M109.038 143.127a1.15 1.15 0 112.3 0 1.15 1.15 0 01-2.3 0M117.664 143.127a1.068 1.068 0 112.135 0 1.068 1.068 0 01-2.135 0M126.29 143.127a.986.986 0 111.971 0 .986.986 0 01-1.972 0M134.915 143.127a.903.903 0 111.807-.001.903.903 0 01-1.807 0M143.54 143.127a.822.822 0 111.644 0 .822.822 0 01-1.644 0M152.165 143.127a.74.74 0 111.48 0 .74.74 0 01-1.48 0M160.79 143.127a.657.657 0 111.314 0 .657.657 0 01-1.313 0M169.416 143.127a.574.574 0 111.15-.001.574.574 0 01-1.15 0M178.042 143.127a.493.493 0 11.986 0 .493.493 0 01-.986 0M186.667 143.127a.411.411 0 11.822 0 .411.411 0 01-.822 0M195.293 143.127a.329.329 0 11.657-.001.329.329 0 01-.657 0M203.918 143.127a.247.247 0 11.494 0 .247.247 0 01-.494 0M212.544 143.127a.164.164 0 11.328-.002.164.164 0 01-.328.002M221.17 143.127c0-.045.036-.082.081-.082.045 0 .082.037.082.082a.082.082 0 01-.082.082.082.082 0 01-.082-.082M2.685 153.094a2.136 2.136 0 114.271 0 2.136 2.136 0 01-4.27 0M11.31 153.094a2.055 2.055 0 114.11 0 2.055 2.055 0 01-4.11 0M19.934 153.094a1.974 1.974 0 113.948 0 1.974 1.974 0 01-3.948 0M28.558 153.094a1.893 1.893 0 113.786 0 1.893 1.893 0 01-3.786 0M37.183 153.094a1.812 1.812 0 113.625 0 1.812 1.812 0 01-3.625 0M45.807 153.094a1.73 1.73 0 113.459-.001 1.73 1.73 0 01-3.459.001M54.432 153.094a1.649 1.649 0 113.297 0 1.649 1.649 0 01-3.297 0M63.056 153.094a1.568 1.568 0 113.136 0 1.568 1.568 0 01-3.136 0M71.68 153.094a1.487 1.487 0 112.975 0 1.487 1.487 0 01-2.975 0M80.305 153.094a1.406 1.406 0 112.812 0 1.406 1.406 0 01-2.812 0M88.929 153.094a1.325 1.325 0 112.65 0 1.325 1.325 0 01-2.65 0M97.553 153.094a1.244 1.244 0 112.489 0 1.244 1.244 0 01-2.489 0M106.178 153.094a1.163 1.163 0 112.327 0 1.163 1.163 0 01-2.327 0M114.802 153.094a1.081 1.081 0 112.163-.001 1.081 1.081 0 01-2.163.001M123.426 153.094a1 1 0 112 0 1 1 0 01-2 0M132.051 153.094a.92.92 0 111.838 0 .92.92 0 01-1.838 0M140.675 153.094a.838.838 0 111.676 0 .838.838 0 01-1.676 0M149.3 153.094a.757.757 0 111.514 0 .757.757 0 01-1.514 0M157.924 153.094a.675.675 0 111.35-.002.675.675 0 01-1.35.002M166.549 153.094a.595.595 0 111.19 0 .595.595 0 01-1.19 0M175.173 153.094a.514.514 0 111.028 0 .514.514 0 01-1.028 0M183.798 153.094a.433.433 0 11.866 0 .433.433 0 01-.866 0M192.422 153.094a.352.352 0 11.704 0 .352.352 0 01-.704 0M201.047 153.094a.271.271 0 01.54 0 .271.271 0 01-.54 0M209.67 153.094a.19.19 0 01.38 0 .19.19 0 01-.38 0M218.295 153.094c0-.06.048-.108.108-.108s.108.048.108.108-.048.108-.108.108a.108.108 0 01-.108-.108M226.92 153.094c0-.015.012-.027.027-.027s.027.012.027.027a.027.027 0 01-.027.027.027.027 0 01-.027-.027M.55 163.06a2.136 2.136 0 114.272.001 2.136 2.136 0 01-4.272 0M35.046 163.06a1.813 1.813 0 113.625.003 1.813 1.813 0 01-3.625-.002M43.67 163.06a1.731 1.731 0 113.462 0 1.731 1.731 0 01-3.462 0M52.294 163.06a1.65 1.65 0 113.3 0 1.65 1.65 0 01-3.3 0M60.918 163.06a1.57 1.57 0 113.14.001 1.57 1.57 0 01-3.14 0M69.542 163.06a1.49 1.49 0 112.98.002 1.49 1.49 0 01-2.98-.001M78.167 163.06a1.408 1.408 0 112.816.001 1.408 1.408 0 01-2.816 0M86.79 163.06a1.327 1.327 0 112.654 0 1.327 1.327 0 01-2.653 0M95.415 163.06a1.246 1.246 0 112.493.002 1.246 1.246 0 01-2.493-.001M104.04 163.06a1.165 1.165 0 112.33 0 1.165 1.165 0 01-2.33 0M112.663 163.06a1.084 1.084 0 112.167 0 1.084 1.084 0 01-2.167 0M121.287 163.06a1.003 1.003 0 112.007.001 1.003 1.003 0 01-2.007 0M129.911 163.06a.923.923 0 111.847.002.923.923 0 01-1.847-.001M138.536 163.06a.842.842 0 111.684.001.842.842 0 01-1.684 0M147.16 163.06a.761.761 0 111.523.002.761.761 0 01-1.523-.001M155.784 163.06a.68.68 0 111.362.003.68.68 0 01-1.362-.002M164.408 163.06a.6.6 0 111.2 0 .6.6 0 01-1.2 0M173.032 163.06a.52.52 0 111.039.001.52.52 0 01-1.039 0M181.656 163.06a.437.437 0 11.875 0 .437.437 0 01-.875 0M190.28 163.06a.357.357 0 11.715.001.357.357 0 01-.715 0M198.904 163.06a.277.277 0 11.554.002.277.277 0 01-.554-.001M207.529 163.06a.195.195 0 11.39.001.195.195 0 01-.39 0M216.153 163.06c0-.062.051-.113.115-.113.063 0 .114.05.114.114a.115.115 0 01-.114.115.115.115 0 01-.115-.115M224.777 163.06c0-.018.015-.032.034-.032.018 0 .033.014.033.033a.034.034 0 11-.067 0M234.75 163.417a1.232 1.232 0 11-2.463 0 1.232 1.232 0 012.464 0" fill="#3493FF" fill-rule="nonzero"/><path d="M228.042 163.417a1.642 1.642 0 11-3.285.001 1.642 1.642 0 013.285-.001M221.333 163.417a2.053 2.053 0 11-4.106.001 2.053 2.053 0 014.106-.001M234.75 153.45a1.233 1.233 0 11-2.464-.001 1.233 1.233 0 012.465.001M228.042 153.45a1.643 1.643 0 11-3.286 0 1.643 1.643 0 013.286 0M221.333 153.45a2.054 2.054 0 11-4.108 0 2.054 2.054 0 014.108 0M234.75 143.483a1.232 1.232 0 11-2.463 0 1.232 1.232 0 012.464 0M228.042 143.483a1.643 1.643 0 11-3.286 0 1.643 1.643 0 013.286 0M221.333 143.483a2.054 2.054 0 11-4.108 0 2.054 2.054 0 014.108 0M233.4 183.351a1.305 1.305 0 11-2.61.001 1.305 1.305 0 012.61 0M226.32 183.351a1.345 1.345 0 11-2.69 0 1.345 1.345 0 012.69 0M219.24 183.351a1.384 1.384 0 11-2.768 0 1.384 1.384 0 012.768 0M212.16 183.351a1.424 1.424 0 11-2.847 0 1.424 1.424 0 012.847 0M205.08 183.351a1.463 1.463 0 11-2.926 0 1.463 1.463 0 012.926 0M198 183.351a1.503 1.503 0 11-3.006 0 1.503 1.503 0 013.006 0M190.92 183.351a1.542 1.542 0 11-3.084 0 1.542 1.542 0 113.085 0M183.84 183.351a1.582 1.582 0 11-3.163.001 1.582 1.582 0 013.164 0M176.761 183.351a1.622 1.622 0 11-3.244 0 1.622 1.622 0 013.244 0M169.68 183.351a1.661 1.661 0 11-3.322 0 1.661 1.661 0 013.323 0M162.601 183.351a1.702 1.702 0 11-3.403 0 1.702 1.702 0 013.403 0M155.521 183.351a1.74 1.74 0 11-3.48 0 1.74 1.74 0 013.48 0M148.442 183.351a1.78 1.78 0 11-3.56 0 1.78 1.78 0 013.56 0M141.362 183.351a1.818 1.818 0 11-3.64 0 1.82 1.82 0 013.64 0M134.281 183.351a1.858 1.858 0 11-3.716.002 1.858 1.858 0 013.716-.002M127.202 183.351a1.898 1.898 0 11-3.797 0 1.898 1.898 0 013.797 0M120.122 183.351a1.938 1.938 0 11-3.877 0 1.938 1.938 0 013.877 0M113.042 183.351a1.978 1.978 0 11-3.956 0 1.978 1.978 0 013.956 0M105.962 183.351a2.017 2.017 0 11-4.034 0 2.017 2.017 0 014.034 0M98.883 183.351a2.057 2.057 0 11-4.115 0 2.057 2.057 0 014.115 0M91.802 183.351a2.095 2.095 0 11-4.19.001 2.095 2.095 0 014.19 0M234.943 174.655a1.27 1.27 0 110-2.541M229.133 173.384a1.31 1.31 0 11-2.619.001 1.31 1.31 0 012.62 0M222.053 173.384a1.35 1.35 0 11-2.698.001 1.35 1.35 0 012.698 0M214.974 173.384a1.39 1.39 0 11-2.78 0 1.39 1.39 0 012.78 0M207.894 173.384a1.429 1.429 0 11-2.857 0 1.429 1.429 0 012.857 0M200.814 173.384a1.469 1.469 0 11-2.937 0 1.469 1.469 0 012.937 0M193.735 173.384a1.509 1.509 0 11-3.018 0 1.509 1.509 0 013.018 0M186.654 173.384a1.548 1.548 0 11-3.095 0 1.548 1.548 0 013.095 0M179.575 173.384a1.588 1.588 0 11-3.176 0 1.588 1.588 0 013.176 0M172.495 173.384a1.628 1.628 0 11-3.256 0 1.628 1.628 0 013.256 0M165.416 173.384a1.667 1.667 0 11-3.335 0 1.667 1.667 0 013.335 0M158.336 173.384a1.707 1.707 0 11-3.414 0 1.707 1.707 0 013.414 0M151.256 173.384a1.747 1.747 0 11-3.493 0 1.747 1.747 0 013.493 0M144.176 173.384a1.787 1.787 0 11-3.573 0 1.787 1.787 0 013.573 0M137.097 173.384a1.827 1.827 0 11-3.654 0 1.827 1.827 0 013.654 0M130.017 173.384a1.865 1.865 0 11-3.731.001 1.865 1.865 0 013.73 0M122.937 173.384a1.905 1.905 0 11-3.81.001 1.905 1.905 0 013.81 0M115.858 173.384a1.945 1.945 0 11-3.89 0 1.945 1.945 0 013.89 0M108.778 173.384a1.985 1.985 0 11-3.97 0 1.985 1.985 0 013.97 0M101.698 173.384a2.024 2.024 0 11-4.048.002 2.024 2.024 0 014.048-.002M94.618 173.384a2.064 2.064 0 11-4.127 0 2.064 2.064 0 014.127 0M87.539 173.384a2.104 2.104 0 11-4.208 0 2.104 2.104 0 014.208 0M234.943 134.786a1.27 1.27 0 110-2.541M229.133 133.516a1.31 1.31 0 11-2.619 0 1.31 1.31 0 012.62 0M222.054 133.516a1.35 1.35 0 11-2.7 0 1.35 1.35 0 012.7 0M214.974 133.516a1.39 1.39 0 11-2.78-.001 1.39 1.39 0 012.78 0M207.894 133.516a1.429 1.429 0 11-2.857 0 1.429 1.429 0 012.857 0M200.814 133.516a1.47 1.47 0 11-2.939-.001 1.47 1.47 0 012.94 0M193.735 133.516a1.509 1.509 0 11-3.018 0 1.509 1.509 0 013.018 0M186.655 133.516a1.548 1.548 0 11-3.096 0 1.548 1.548 0 013.096 0M179.575 133.516a1.588 1.588 0 11-3.176 0 1.588 1.588 0 013.176 0M172.495 133.516a1.628 1.628 0 11-3.256 0 1.628 1.628 0 013.256 0M165.416 133.516a1.667 1.667 0 11-3.335 0 1.667 1.667 0 013.335 0M158.336 133.516a1.707 1.707 0 11-3.414 0 1.707 1.707 0 013.414 0M151.256 133.516a1.747 1.747 0 11-3.493 0 1.747 1.747 0 013.493 0M144.177 133.516a1.787 1.787 0 11-3.574 0 1.787 1.787 0 013.573 0M137.097 133.516a1.826 1.826 0 11-3.652 0 1.826 1.826 0 013.652 0M130.017 133.516a1.865 1.865 0 11-3.731 0 1.865 1.865 0 013.73 0M122.937 133.516a1.905 1.905 0 11-3.81 0 1.905 1.905 0 013.81 0M115.858 133.516a1.945 1.945 0 11-3.89 0 1.945 1.945 0 013.89 0M108.778 133.516a1.985 1.985 0 11-3.97 0 1.985 1.985 0 013.97 0M101.698 133.516a2.025 2.025 0 11-4.05 0 2.025 2.025 0 014.05 0M94.618 133.516a2.064 2.064 0 11-4.127 0 2.064 2.064 0 014.127 0M87.539 133.516a2.104 2.104 0 11-4.208 0 2.104 2.104 0 014.208 0M233.4 123.548a1.305 1.305 0 11-2.61 0 1.305 1.305 0 012.61 0M226.32 123.548a1.345 1.345 0 11-2.69 0 1.345 1.345 0 012.69 0M219.24 123.548a1.384 1.384 0 11-2.768 0 1.384 1.384 0 012.768 0M212.16 123.548a1.424 1.424 0 11-2.847 0 1.424 1.424 0 012.847 0M205.08 123.548a1.462 1.462 0 11-2.927 0 1.464 1.464 0 012.927 0M198 123.548a1.502 1.502 0 11-3.004.002 1.502 1.502 0 013.004-.002M190.92 123.548a1.542 1.542 0 11-3.084 0 1.542 1.542 0 113.085 0M183.84 123.548a1.582 1.582 0 11-3.163 0 1.582 1.582 0 013.164 0M176.761 123.548a1.622 1.622 0 11-3.244 0 1.622 1.622 0 013.244 0M169.68 123.548a1.661 1.661 0 11-3.322 0 1.661 1.661 0 013.323 0M162.601 123.548a1.702 1.702 0 11-3.403 0 1.702 1.702 0 013.403 0M155.521 123.548a1.74 1.74 0 11-3.48 0 1.74 1.74 0 013.48 0M148.442 123.548a1.78 1.78 0 11-3.56 0 1.78 1.78 0 013.56 0M141.362 123.548a1.818 1.818 0 11-3.64 0 1.82 1.82 0 013.64 0M134.281 123.548a1.858 1.858 0 11-3.716.001 1.858 1.858 0 013.716 0M127.202 123.548a1.898 1.898 0 11-3.795 0 1.898 1.898 0 013.795 0M120.122 123.548a1.938 1.938 0 11-3.876 0 1.938 1.938 0 013.876 0M113.042 123.548a1.978 1.978 0 11-3.956 0 1.978 1.978 0 013.956 0M105.962 123.548a2.017 2.017 0 11-4.034 0 2.017 2.017 0 014.034 0M98.883 123.548a2.057 2.057 0 11-4.115 0 2.057 2.057 0 014.115 0M91.802 123.548a2.095 2.095 0 11-4.19.001 2.095 2.095 0 014.19 0M135.716 203.286a.445.445 0 11-.89 0 .445.445 0 01.89 0M129.041 203.286a.89.89 0 11-1.78 0 .89.89 0 011.78 0M122.366 203.286a1.334 1.334 0 11-2.668 0 1.334 1.334 0 012.668 0M115.692 203.286a1.78 1.78 0 11-3.56 0 1.78 1.78 0 013.56 0M146.91 193.319a.249.249 0 11-.498 0 .249.249 0 01.498 0M140.039 193.319a.497.497 0 11-.994 0 .497.497 0 01.994 0M133.168 193.319a.744.744 0 11-1.489.001.744.744 0 011.489-.001M126.297 193.319a.993.993 0 11-1.986 0 .993.993 0 011.986 0M119.425 193.319a1.242 1.242 0 11-2.483 0 1.242 1.242 0 012.483 0M112.554 193.319a1.49 1.49 0 11-2.98 0 1.49 1.49 0 012.98 0M105.683 193.319a1.738 1.738 0 11-3.475 0 1.738 1.738 0 013.475 0M98.812 193.319a1.987 1.987 0 11-3.973 0 1.987 1.987 0 013.973 0M146.91 111.603a.249.249 0 11-.498 0 .249.249 0 01.498 0M140.039 111.603a.497.497 0 11-.994 0 .497.497 0 01.994 0M133.168 111.603a.744.744 0 11-1.489.002.744.744 0 011.489-.002M126.297 111.603a.994.994 0 11-1.988 0 .994.994 0 011.988 0M119.425 111.603a1.242 1.242 0 11-2.483 0 1.242 1.242 0 012.483 0M112.554 111.603a1.49 1.49 0 11-2.98 0 1.49 1.49 0 012.98 0M105.683 111.603a1.739 1.739 0 11-3.477.001 1.739 1.739 0 013.477 0M98.812 111.603a1.986 1.986 0 11-3.972.002 1.986 1.986 0 013.972-.002M135.716 101.637a.445.445 0 11-.89 0 .445.445 0 01.89 0M129.041 101.637a.89.89 0 11-1.78 0 .89.89 0 011.78 0M122.366 101.637a1.334 1.334 0 11-2.668-.001 1.334 1.334 0 012.668 0M115.692 101.637a1.78 1.78 0 11-3.56 0 1.78 1.78 0 013.56 0M141.04 61.332a2.136 2.136 0 114.272 0 2.136 2.136 0 01-4.273 0M150.65 61.332a1.068 1.068 0 112.137.001 1.068 1.068 0 01-2.137 0M141.04 71.3a2.136 2.136 0 114.272 0 2.136 2.136 0 01-4.273 0M150.65 71.3a1.068 1.068 0 112.136 0 1.068 1.068 0 01-2.136 0M163.821 61.332a2.137 2.137 0 114.274.002 2.137 2.137 0 01-4.274-.002M173.432 61.332a1.068 1.068 0 112.137.001 1.068 1.068 0 01-2.137 0M163.821 71.3a2.137 2.137 0 114.274.001 2.137 2.137 0 01-4.274-.001M173.432 71.3a1.068 1.068 0 112.136 0 1.068 1.068 0 01-2.136 0M186.603 61.332a2.136 2.136 0 114.273 0 2.136 2.136 0 01-4.273 0M196.215 61.332a1.068 1.068 0 112.136.001 1.068 1.068 0 01-2.136 0M186.603 71.3a2.136 2.136 0 114.273 0 2.136 2.136 0 01-4.273 0M196.57 71.3a.712.712 0 111.425 0 .712.712 0 01-1.424 0M206.538 71.3a2.136 2.136 0 114.272 0 2.136 2.136 0 01-4.272 0M216.15 71.3a1.068 1.068 0 112.135 0 1.068 1.068 0 01-2.136 0M229.32 71.3a2.136 2.136 0 114.273 0 2.136 2.136 0 01-4.273 0M143.373 43.178a.102.102 0 11.203 0 .102.102 0 11-.203 0M136.287 43.178a.203.203 0 11.407 0 .203.203 0 01-.407 0M129.202 43.178a.306.306 0 11.611.001.306.306 0 01-.611 0M122.116 43.178a.407.407 0 11.814 0 .407.407 0 01-.814 0M115.031 43.178a.508.508 0 111.017 0 .508.508 0 01-1.017 0M107.945 43.178a.61.61 0 111.22 0 .61.61 0 01-1.22 0M100.86 43.178a.712.712 0 111.425 0 .712.712 0 01-1.425 0M93.775 43.178a.813.813 0 111.626 0 .813.813 0 01-1.626 0M86.689 43.178a.916.916 0 111.831.001.916.916 0 01-1.831 0M79.604 43.178a1.017 1.017 0 112.033 0 1.017 1.017 0 01-2.033 0M72.518 43.178a1.119 1.119 0 112.238 0 1.119 1.119 0 01-2.238 0M65.432 43.178a1.22 1.22 0 112.44 0 1.22 1.22 0 01-2.44 0M58.347 43.178a1.322 1.322 0 112.644 0 1.322 1.322 0 01-2.644 0M51.262 43.178a1.424 1.424 0 112.847 0 1.424 1.424 0 01-2.847 0M44.176 43.178a1.525 1.525 0 113.05 0 1.525 1.525 0 01-3.05 0M202.09 43.178a1.486 1.486 0 112.972 0 1.486 1.486 0 01-2.972 0M194.816 43.178a1.58 1.58 0 113.158 0 1.58 1.58 0 01-3.158 0M187.542 43.178a1.67 1.67 0 113.341 0 1.67 1.67 0 01-3.341 0M180.267 43.178a1.764 1.764 0 113.529 0 1.764 1.764 0 01-3.529 0M172.993 43.178a1.857 1.857 0 113.714 0 1.857 1.857 0 01-3.714 0M165.719 43.178a1.95 1.95 0 113.9 0 1.95 1.95 0 01-3.9 0M158.445 43.178a2.043 2.043 0 114.086 0 2.043 2.043 0 01-4.086 0M151.17 43.178a2.136 2.136 0 114.273 0 2.136 2.136 0 01-4.272 0M184.937 51.722a.916.916 0 111.831 0 .916.916 0 01-1.831 0M177.832 51.722a.958.958 0 111.917-.002.958.958 0 01-1.917.002M170.727 51.722a1.002 1.002 0 112.004 0 1.002 1.002 0 01-2.004 0M163.622 51.722a1.046 1.046 0 112.092-.001 1.046 1.046 0 01-2.092 0M156.517 51.722a1.09 1.09 0 112.18 0 1.09 1.09 0 01-2.18 0M149.412 51.722a1.133 1.133 0 112.266-.001 1.133 1.133 0 01-2.266 0M142.307 51.722a1.177 1.177 0 112.355 0 1.177 1.177 0 01-2.355 0M135.203 51.722a1.22 1.22 0 112.441-.001 1.22 1.22 0 01-2.441 0M128.098 51.722a1.264 1.264 0 112.528 0 1.264 1.264 0 01-2.528 0M120.993 51.722a1.308 1.308 0 112.616 0 1.308 1.308 0 01-2.616 0M113.888 51.722a1.351 1.351 0 112.703 0 1.351 1.351 0 01-2.703 0M106.783 51.722a1.394 1.394 0 112.789-.002 1.394 1.394 0 01-2.789.002M99.678 51.722a1.438 1.438 0 112.877 0 1.438 1.438 0 01-2.877 0M92.573 51.722a1.483 1.483 0 112.966 0 1.483 1.483 0 01-2.966 0M85.469 51.722a1.526 1.526 0 113.05-.001 1.526 1.526 0 01-3.05 0M78.364 51.722a1.569 1.569 0 113.138 0 1.569 1.569 0 01-3.138 0M71.258 51.721a1.613 1.613 0 113.226 0 1.613 1.613 0 01-3.225 0M64.154 51.721a1.656 1.656 0 113.312.001 1.656 1.656 0 01-3.312 0M57.05 51.721a1.7 1.7 0 113.399 0 1.7 1.7 0 01-3.4 0M49.944 51.721a1.744 1.744 0 113.489.001 1.744 1.744 0 01-3.489 0M42.84 51.721a1.787 1.787 0 113.573 0 1.787 1.787 0 01-3.574 0" fill="#3493FF" fill-rule="nonzero"/><path d="M141.678 61.688a.102.102 0 11.204 0 .102.102 0 01-.204 0M134.321 61.688a.203.203 0 11.407 0 .203.203 0 01-.407 0M126.965 61.688a.306.306 0 11.61.001.306.306 0 01-.61 0M119.608 61.688a.407.407 0 11.814.001.407.407 0 01-.814 0M112.251 61.688a.508.508 0 111.016 0 .508.508 0 01-1.016 0M104.894 61.688a.61.61 0 111.22 0 .61.61 0 01-1.22 0M97.538 61.688a.712.712 0 111.423 0 .712.712 0 01-1.423 0M90.18 61.688a.813.813 0 111.627 0 .813.813 0 01-1.626 0M82.825 61.688a.915.915 0 111.83.001.915.915 0 01-1.83 0M75.468 61.688a1.017 1.017 0 112.033 0 1.017 1.017 0 01-2.034 0M68.11 61.688a1.119 1.119 0 112.239 0 1.119 1.119 0 01-2.238 0M60.754 61.688a1.22 1.22 0 112.44 0 1.22 1.22 0 01-2.44 0M53.397 61.688a1.322 1.322 0 112.645 0 1.322 1.322 0 01-2.645 0M46.04 61.688a1.424 1.424 0 112.849 0 1.424 1.424 0 01-2.848 0M136.184 71.656c0-.06.048-.106.106-.106a.106.106 0 11-.106.106M129.029 71.656a.213.213 0 11.427 0 .213.213 0 01-.427 0M121.874 71.656a.32.32 0 11.64 0 .32.32 0 01-.64 0M114.72 71.656a.427.427 0 11.853 0 .427.427 0 01-.853 0M107.564 71.656a.534.534 0 111.068 0 .534.534 0 01-1.068 0M100.41 71.656a.64.64 0 111.281 0 .64.64 0 01-1.282 0M93.254 71.656a.747.747 0 111.495-.001.747.747 0 01-1.495 0M86.099 71.656a.854.854 0 111.708 0 .854.854 0 01-1.708 0M78.944 71.656a.96.96 0 111.921-.001.96.96 0 01-1.92 0M71.79 71.656a1.068 1.068 0 112.135 0 1.068 1.068 0 01-2.136 0M64.634 71.656a1.176 1.176 0 112.351 0 1.176 1.176 0 01-2.351 0M57.48 71.656a1.281 1.281 0 112.561 0 1.281 1.281 0 01-2.562 0M50.324 71.656a1.388 1.388 0 112.777 0 1.388 1.388 0 01-2.777 0M43.17 71.656a1.495 1.495 0 112.988-.001 1.495 1.495 0 01-2.989 0M36.014 71.656a1.602 1.602 0 113.205 0 1.602 1.602 0 01-3.205 0M28.86 71.656a1.708 1.708 0 113.416 0 1.708 1.708 0 01-3.417 0M21.704 71.656a1.815 1.815 0 113.63 0 1.815 1.815 0 01-3.63 0M14.55 71.656a1.921 1.921 0 113.844 0 1.922 1.922 0 01-3.845 0M7.394 71.656a2.028 2.028 0 114.057-.001 2.028 2.028 0 01-4.057 0M.239 71.656a2.136 2.136 0 114.272 0 2.136 2.136 0 01-4.272 0M231.213 81.623a.785.785 0 111.57 0 .785.785 0 01-1.57 0M223.992 81.623a.828.828 0 111.655 0 .828.828 0 01-1.655 0M216.77 81.623a.873.873 0 111.746.001.873.873 0 01-1.745-.001M209.55 81.623a.915.915 0 111.83 0 .915.915 0 01-1.83 0M202.328 81.623a.96.96 0 111.919 0 .96.96 0 01-1.919 0M195.108 81.623a1.002 1.002 0 112.003 0 1.002 1.002 0 01-2.003 0M187.887 81.623a1.046 1.046 0 112.09 0 1.046 1.046 0 01-2.09 0M180.665 81.623a1.09 1.09 0 112.18 0 1.09 1.09 0 01-2.18 0M173.444 81.623a1.133 1.133 0 112.265 0 1.133 1.133 0 01-2.265 0M166.223 81.623a1.177 1.177 0 112.354 0 1.177 1.177 0 01-2.354 0M159.002 81.623a1.22 1.22 0 112.44 0 1.22 1.22 0 01-2.44 0M151.78 81.623a1.264 1.264 0 112.529 0 1.264 1.264 0 01-2.529 0M144.56 81.623a1.308 1.308 0 112.616 0 1.308 1.308 0 01-2.616 0M137.339 81.623a1.351 1.351 0 112.702 0 1.351 1.351 0 01-2.702 0M130.117 81.623a1.396 1.396 0 112.792.001 1.396 1.396 0 01-2.792-.001M122.896 81.623a1.438 1.438 0 112.877 0 1.438 1.438 0 01-2.877 0M115.675 81.623a1.483 1.483 0 112.965.001 1.483 1.483 0 01-2.965-.001M108.454 81.623a1.525 1.525 0 113.05 0 1.525 1.525 0 01-3.05 0M101.233 81.623a1.569 1.569 0 113.138 0 1.569 1.569 0 01-3.138 0M94.012 81.623a1.613 1.613 0 113.226 0 1.613 1.613 0 01-3.226 0M86.79 81.623a1.656 1.656 0 113.313 0 1.656 1.656 0 01-3.312 0M79.57 81.623a1.7 1.7 0 113.4 0 1.7 1.7 0 01-3.4 0M72.348 81.623a1.744 1.744 0 113.489 0 1.744 1.744 0 01-3.489 0M65.127 81.623a1.787 1.787 0 113.574 0 1.787 1.787 0 01-3.574 0M57.907 81.623a1.83 1.83 0 113.66 0 1.83 1.83 0 01-3.66 0M50.685 81.623a1.874 1.874 0 113.748 0 1.874 1.874 0 01-3.748 0M43.464 81.623a1.918 1.918 0 113.836 0 1.918 1.918 0 01-3.836 0M36.243 81.623a1.961 1.961 0 113.922 0 1.961 1.961 0 01-3.922 0M29.022 81.623a2.005 2.005 0 114.01 0 2.005 2.005 0 01-4.01 0M21.8 81.623a2.05 2.05 0 114.099 0 2.05 2.05 0 01-4.099 0M14.58 81.623a2.092 2.092 0 114.184 0 2.092 2.092 0 01-4.185 0M7.359 81.623a2.136 2.136 0 114.272 0 2.136 2.136 0 01-4.272 0M163.306 91.59c0-.054.043-.097.097-.097.054 0 .097.043.097.097a.096.096 0 01-.097.097.096.096 0 01-.097-.097M156.219 91.59a.194.194 0 11.388 0 .194.194 0 01-.388 0M149.132 91.59a.291.291 0 11.583.001.291.291 0 01-.583 0M142.045 91.59a.389.389 0 11.777.001.389.389 0 01-.777 0M134.958 91.59a.485.485 0 11.97 0 .485.485 0 01-.97 0M127.87 91.59a.583.583 0 111.166 0 .583.583 0 01-1.166 0M120.783 91.59a.68.68 0 111.362.002.68.68 0 01-1.362-.002M113.697 91.59a.777.777 0 111.554 0 .777.777 0 01-1.555 0M106.61 91.59a.874.874 0 111.748 0 .874.874 0 01-1.748 0M99.522 91.59a.971.971 0 111.943 0 .971.971 0 01-1.943 0M92.435 91.59a1.068 1.068 0 112.136 0 1.068 1.068 0 01-2.136 0M85.348 91.59a1.164 1.164 0 112.329-.001 1.164 1.164 0 01-2.329.001M78.261 91.59a1.262 1.262 0 112.524 0 1.262 1.262 0 01-2.523 0M71.174 91.59a1.36 1.36 0 112.718 0 1.36 1.36 0 01-2.718 0M64.087 91.59a1.456 1.456 0 112.913.001 1.456 1.456 0 01-2.913 0M57 91.59a1.553 1.553 0 113.105 0 1.553 1.553 0 01-3.105 0M49.913 91.59a1.65 1.65 0 113.3 0 1.65 1.65 0 01-3.3 0M42.826 91.59a1.748 1.748 0 113.496 0 1.748 1.748 0 01-3.496 0M35.739 91.59a1.845 1.845 0 113.69 0 1.845 1.845 0 01-3.69 0M234.953 91.59a1.456 1.456 0 11-2.912 0 1.456 1.456 0 012.912 0M224.76 91.59a1.553 1.553 0 113.105 0 1.553 1.553 0 01-3.106 0M217.478 91.59a1.65 1.65 0 113.3 0 1.65 1.65 0 01-3.3 0M210.197 91.59a1.748 1.748 0 113.496 0 1.748 1.748 0 01-3.496 0M202.916 91.59a1.845 1.845 0 113.69 0 1.845 1.845 0 01-3.69 0M195.635 91.59a1.942 1.942 0 113.883 0 1.942 1.942 0 01-3.883 0M188.353 91.59a2.04 2.04 0 114.079 0 2.04 2.04 0 01-4.079 0M181.072 91.59a2.136 2.136 0 114.272 0 2.136 2.136 0 01-4.272 0M230.959 101.558a.661.661 0 111.322 0 .661.661 0 01-1.322 0M223.789 101.558a.711.711 0 111.422-.002.711.711 0 01-1.422.002M216.618 101.558a.763.763 0 111.526 0 .763.763 0 01-1.526 0M209.448 101.558a.813.813 0 111.627-.002.813.813 0 01-1.627.002M202.278 101.558a.865.865 0 111.729-.001.865.865 0 01-1.73 0M195.108 101.558a.916.916 0 111.831 0 .916.916 0 01-1.831 0M187.937 101.558a.966.966 0 111.932 0 .966.966 0 01-1.932 0M180.767 101.558a1.017 1.017 0 112.034 0 1.017 1.017 0 01-2.034 0M173.597 101.558a1.068 1.068 0 112.135 0 1.068 1.068 0 01-2.135 0M166.427 101.558a1.119 1.119 0 112.238 0 1.119 1.119 0 01-2.238 0M159.256 101.558a1.17 1.17 0 112.34 0 1.17 1.17 0 01-2.34 0M152.086 101.558a1.22 1.22 0 112.441 0 1.22 1.22 0 01-2.441 0M144.916 101.558a1.27 1.27 0 112.542 0 1.27 1.27 0 01-2.542 0M137.745 101.558a1.322 1.322 0 112.645 0 1.322 1.322 0 01-2.645 0M130.575 101.558a1.373 1.373 0 112.747 0 1.373 1.373 0 01-2.747 0M123.405 101.558a1.423 1.423 0 112.847-.002 1.423 1.423 0 01-2.847.002M116.235 101.558a1.475 1.475 0 112.95 0 1.475 1.475 0 01-2.95 0M109.064 101.558a1.526 1.526 0 113.052-.001 1.526 1.526 0 01-3.052 0M101.894 101.558a1.577 1.577 0 113.154 0 1.577 1.577 0 01-3.154 0M94.724 101.558a1.627 1.627 0 113.254 0 1.627 1.627 0 01-3.254 0M87.553 101.558a1.678 1.678 0 113.356-.001 1.678 1.678 0 01-3.356 0M80.383 101.558a1.729 1.729 0 113.458 0 1.729 1.729 0 01-3.457 0M73.213 101.558a1.78 1.78 0 113.56 0 1.78 1.78 0 01-3.56 0M66.043 101.558a1.831 1.831 0 113.662 0 1.831 1.831 0 01-3.662 0M58.872 101.558a1.883 1.883 0 113.765 0 1.883 1.883 0 01-3.765 0M51.702 101.558a1.933 1.933 0 113.866 0 1.933 1.933 0 01-3.866 0M44.532 101.558a1.983 1.983 0 113.966 0 1.983 1.983 0 01-3.966 0M37.362 101.558a2.034 2.034 0 114.067 0 2.034 2.034 0 01-4.067 0M230.383 111.524a.562.562 0 111.124 0 .562.562 0 01-1.124 0M223.283 111.524a.618.618 0 111.236 0 .618.618 0 01-1.236 0M216.182 111.524a.675.675 0 111.349.001.675.675 0 01-1.35 0M209.081 111.524a.73.73 0 111.461.001.73.73 0 01-1.46 0M201.98 111.524a.787.787 0 111.575 0 .787.787 0 01-1.574 0M194.88 111.524a.843.843 0 111.686 0 .843.843 0 01-1.686 0M187.779 111.524a.899.899 0 111.798 0 .899.899 0 01-1.798 0M180.678 111.524a.957.957 0 111.914.002.957.957 0 01-1.914-.002M173.578 111.524a1.011 1.011 0 112.022 0 1.011 1.011 0 01-2.022 0M166.477 111.524a1.068 1.068 0 112.137.001 1.068 1.068 0 01-2.137 0M159.377 111.524a1.124 1.124 0 112.247 0 1.124 1.124 0 01-2.247 0M152.276 111.524a1.18 1.18 0 112.36 0 1.18 1.18 0 01-2.36 0M145.175 111.524a1.236 1.236 0 112.472 0 1.236 1.236 0 01-2.471 0M138.074 111.524a1.292 1.292 0 112.585 0 1.292 1.292 0 01-2.585 0M130.974 111.524a1.349 1.349 0 112.698 0 1.349 1.349 0 01-2.698 0M123.873 111.524a1.405 1.405 0 112.81 0 1.405 1.405 0 01-2.81 0M116.773 111.524a1.46 1.46 0 112.921 0 1.46 1.46 0 01-2.921 0M109.672 111.524a1.518 1.518 0 113.035.002 1.518 1.518 0 01-3.035-.002M102.571 111.524a1.574 1.574 0 113.149.001 1.574 1.574 0 01-3.149 0M95.47 111.524a1.63 1.63 0 113.261 0 1.63 1.63 0 01-3.26 0M88.37 111.524a1.686 1.686 0 113.372 0 1.686 1.686 0 01-3.372 0M81.27 111.524a1.742 1.742 0 113.484 0 1.742 1.742 0 01-3.485 0M74.168 111.524a1.799 1.799 0 113.598.002 1.799 1.799 0 01-3.598-.002M67.068 111.524a1.855 1.855 0 113.71.002 1.855 1.855 0 01-3.71-.002M59.967 111.524a1.91 1.91 0 113.822 0 1.91 1.91 0 01-3.822 0M104.966 121.492a.213.213 0 11.426 0 .213.213 0 01-.426 0M97.917 121.492a.427.427 0 11.854 0 .427.427 0 01-.854 0M90.87 121.492a.641.641 0 111.281 0 .641.641 0 01-1.282 0M83.821 121.492a.854.854 0 111.707-.001.854.854 0 01-1.707 0M76.773 121.492a1.068 1.068 0 112.135 0 1.068 1.068 0 01-2.135 0M69.724 121.492a1.281 1.281 0 112.563 0 1.281 1.281 0 01-2.563 0M62.676 121.492a1.495 1.495 0 112.99-.001 1.495 1.495 0 01-2.99 0M55.628 121.492a1.708 1.708 0 113.417 0 1.708 1.708 0 01-3.417 0M229.42 121.492a.776.776 0 111.552 0 .776.776 0 01-1.553 0M222.203 121.492a.874.874 0 111.748 0 .874.874 0 01-1.748 0M214.986 121.492a.971.971 0 111.943 0 .971.971 0 01-1.943 0M207.77 121.492a1.068 1.068 0 112.135 0 1.068 1.068 0 01-2.135 0M200.553 121.492a1.165 1.165 0 112.33 0 1.165 1.165 0 01-2.33 0M193.337 121.492a1.262 1.262 0 112.524 0 1.262 1.262 0 01-2.524 0M186.12 121.492a1.36 1.36 0 112.718 0 1.36 1.36 0 01-2.718 0M178.904 121.492a1.456 1.456 0 112.912 0 1.456 1.456 0 01-2.912 0M171.687 121.492a1.553 1.553 0 113.107 0 1.553 1.553 0 01-3.107 0M164.47 121.492a1.65 1.65 0 113.3-.001 1.65 1.65 0 01-3.3 0M157.254 121.492a1.749 1.749 0 113.497 0 1.749 1.749 0 01-3.497 0M150.038 121.492a1.844 1.844 0 113.688 0 1.844 1.844 0 01-3.688 0M142.821 121.492a1.941 1.941 0 113.882 0 1.941 1.941 0 01-3.882 0M135.605 121.492a2.04 2.04 0 114.078 0 2.04 2.04 0 01-4.078 0M128.388 121.492a2.136 2.136 0 114.273 0 2.136 2.136 0 01-4.273 0M137.242 202.93a2.136 2.136 0 114.272 0 2.136 2.136 0 01-4.272 0M145.869 202.93a2.053 2.053 0 114.105 0 2.053 2.053 0 01-4.105 0M154.495 202.93a1.97 1.97 0 113.94 0 1.97 1.97 0 01-3.94 0M163.121 202.93a1.886 1.886 0 113.773 0 1.886 1.886 0 01-3.773 0M171.748 202.93a1.803 1.803 0 113.606 0 1.803 1.803 0 01-3.606 0M180.375 202.93a1.72 1.72 0 113.44 0 1.72 1.72 0 01-3.44 0M189.001 202.93a1.637 1.637 0 113.274 0 1.637 1.637 0 01-3.274 0M197.628 202.93a1.553 1.553 0 113.105 0 1.553 1.553 0 01-3.105 0M206.254 202.93a1.47 1.47 0 112.94 0 1.47 1.47 0 01-2.94 0M214.88 202.93a1.387 1.387 0 112.775 0 1.387 1.387 0 01-2.774 0M223.507 202.93a1.304 1.304 0 112.609 0 1.304 1.304 0 01-2.609 0M234.574 202.93a1.22 1.22 0 11-2.439 0 1.22 1.22 0 012.44 0M128.699 212.897a2.136 2.136 0 114.272 0 2.136 2.136 0 01-4.272 0M137.31 212.897a2.067 2.067 0 114.135.002 2.067 2.067 0 01-4.134-.002M145.923 212.897a1.998 1.998 0 113.996 0 1.998 1.998 0 01-3.996 0M154.535 212.897a1.93 1.93 0 113.86 0 1.93 1.93 0 01-3.86 0M163.148 212.897a1.86 1.86 0 113.72 0 1.86 1.86 0 01-3.72 0M171.76 212.897a1.791 1.791 0 113.582 0 1.791 1.791 0 01-3.582 0M180.372 212.897a1.722 1.722 0 113.444 0 1.722 1.722 0 01-3.444 0M188.984 212.897a1.653 1.653 0 113.306 0 1.653 1.653 0 01-3.306 0M197.596 212.897a1.584 1.584 0 113.168 0 1.584 1.584 0 01-3.168 0M206.208 212.897a1.516 1.516 0 113.033 0 1.516 1.516 0 01-3.033 0M214.82 212.897a1.447 1.447 0 112.895 0 1.447 1.447 0 01-2.895 0M223.433 212.897a1.377 1.377 0 112.754 0 1.377 1.377 0 01-2.754 0M234.663 212.897a1.31 1.31 0 11-2.62 0 1.31 1.31 0 012.62 0" fill="#3493FF" fill-rule="nonzero"/><g transform="rotate(-90 176.745 48.255)"><mask id="d" fill="#fff"><use xlink:href="#c"/></mask><path d="M2.136.209a2.136 2.136 0 110 4.272 2.136 2.136 0 010-4.272" fill="#0FF" mask="url(#d)"/></g><path d="M137.308 222.864a2.07 2.07 0 114.14 0 2.07 2.07 0 01-4.14 0M145.918 222.864a2.003 2.003 0 114.006 0 2.003 2.003 0 01-4.006 0M154.527 222.864a1.938 1.938 0 113.875.001 1.938 1.938 0 01-3.875 0M163.136 222.864a1.872 1.872 0 113.744 0 1.872 1.872 0 01-3.744 0M171.745 222.864a1.807 1.807 0 113.613.001 1.807 1.807 0 01-3.613 0M180.355 222.864a1.74 1.74 0 113.48.002 1.74 1.74 0 01-3.48-.002M188.964 222.864a1.673 1.673 0 113.346 0 1.673 1.673 0 01-3.346 0M197.573 222.864a1.607 1.607 0 113.215 0 1.607 1.607 0 01-3.215 0M206.183 222.864a1.542 1.542 0 113.084 0 1.542 1.542 0 01-3.084 0M214.792 222.864a1.475 1.475 0 112.95 0 1.475 1.475 0 01-2.95 0M223.402 222.864a1.41 1.41 0 112.818 0 1.41 1.41 0 01-2.818 0M234.697 222.864a1.343 1.343 0 11-2.686 0 1.343 1.343 0 012.686 0" fill="#0FF"/><path d="M124.427 12.13a2.136 2.136 0 114.272 0 2.136 2.136 0 01-4.272 0M133.052 12.13a2.055 2.055 0 114.11 0 2.055 2.055 0 01-4.11 0M167.548 12.13a1.73 1.73 0 113.463 0 1.731 1.731 0 01-3.463 0M227.917 12.13a1.166 1.166 0 112.332 0 1.166 1.166 0 01-2.332 0M124.427 22.097a2.137 2.137 0 114.274.001 2.137 2.137 0 01-4.274-.001M133.052 22.097a2.055 2.055 0 114.109 0 2.055 2.055 0 01-4.11 0M167.55 22.097a1.729 1.729 0 113.458 0 1.729 1.729 0 01-3.458 0M176.175 22.097a1.647 1.647 0 113.295 0 1.647 1.647 0 01-3.295 0M184.8 22.097a1.566 1.566 0 113.132 0 1.566 1.566 0 01-3.132 0M193.424 22.097a1.484 1.484 0 112.97 0 1.484 1.484 0 01-2.97 0M202.05 22.097a1.403 1.403 0 112.805 0 1.403 1.403 0 01-2.806 0M210.674 22.097a1.322 1.322 0 112.644 0 1.322 1.322 0 01-2.644 0M219.299 22.097a1.24 1.24 0 112.481 0 1.24 1.24 0 01-2.481 0M227.923 22.097a1.16 1.16 0 112.319 0 1.16 1.16 0 01-2.319 0M132.97 32.064a2.136 2.136 0 114.273 0 2.136 2.136 0 01-4.273 0M141.583 32.064a2.066 2.066 0 114.132 0 2.066 2.066 0 01-4.132 0M150.196 32.064a1.996 1.996 0 113.992 0 1.996 1.996 0 01-3.992 0M158.81 32.064a1.927 1.927 0 113.854 0 1.927 1.927 0 01-3.855 0M167.422 32.064a1.857 1.857 0 113.714 0 1.857 1.857 0 01-3.714 0M176.035 32.064a1.788 1.788 0 113.576 0 1.788 1.788 0 01-3.576 0M184.648 32.064a1.718 1.718 0 113.436 0 1.718 1.718 0 01-3.436 0M193.261 32.064a1.648 1.648 0 113.296 0 1.648 1.648 0 01-3.296 0M201.874 32.064a1.58 1.58 0 113.158 0 1.58 1.58 0 01-3.158 0M142.226 42.031a2.136 2.136 0 114.271 0 2.136 2.136 0 01-4.271 0M150.831 42.031a2.074 2.074 0 114.148.002 2.074 2.074 0 01-4.148-.002M159.437 42.031a2.011 2.011 0 114.023 0 2.011 2.011 0 01-4.023 0M168.043 42.031a1.948 1.948 0 113.896 0 1.948 1.948 0 01-3.896 0M176.649 42.031a1.885 1.885 0 113.77 0 1.885 1.885 0 01-3.77 0M185.255 42.031a1.823 1.823 0 113.645 0 1.823 1.823 0 01-3.645 0M193.86 42.031a1.76 1.76 0 113.522-.001 1.76 1.76 0 01-3.521.001M202.466 42.031a1.699 1.699 0 113.397.001 1.699 1.699 0 01-3.397 0M147.921 51.998a2.136 2.136 0 114.271 0 2.136 2.136 0 01-4.27 0M156.52 51.998a2.08 2.08 0 114.161.001 2.08 2.08 0 01-4.16 0M165.12 51.998a2.023 2.023 0 114.046 0 2.023 2.023 0 01-4.045 0M173.72 51.998a1.966 1.966 0 113.932 0 1.966 1.966 0 01-3.932 0M182.32 51.998a1.91 1.91 0 113.82 0 1.91 1.91 0 01-3.82 0M167.48 2.163a1.798 1.798 0 113.596-.001 1.798 1.798 0 01-3.595 0M5.533 143.127a2.136 2.136 0 114.271-.001 2.136 2.136 0 01-4.271 0M14.158 143.127a2.054 2.054 0 114.108 0 2.054 2.054 0 01-4.108 0M22.784 143.127a1.971 1.971 0 113.942-.002 1.971 1.971 0 01-3.942.002M31.41 143.127a1.89 1.89 0 113.78 0 1.89 1.89 0 01-3.78 0M40.034 143.127a1.808 1.808 0 113.616.001 1.808 1.808 0 01-3.616-.001M48.66 143.127a1.725 1.725 0 113.45-.001 1.725 1.725 0 01-3.45 0M57.285 143.127a1.644 1.644 0 113.287 0 1.644 1.644 0 01-3.287 0M65.91 143.127a1.561 1.561 0 113.123 0 1.561 1.561 0 01-3.122 0M74.536 143.127a1.48 1.48 0 112.96 0 1.48 1.48 0 01-2.96 0M83.162 143.127a1.396 1.396 0 112.792 0 1.396 1.396 0 01-2.792 0M91.787 143.127a1.314 1.314 0 112.628-.001 1.314 1.314 0 01-2.628 0M100.413 143.127a1.232 1.232 0 112.464 0 1.232 1.232 0 01-2.464 0M109.038 143.127a1.15 1.15 0 112.3 0 1.15 1.15 0 01-2.3 0M117.664 143.127a1.068 1.068 0 112.135 0 1.068 1.068 0 01-2.135 0M126.29 143.127a.986.986 0 111.971 0 .986.986 0 01-1.972 0M134.915 143.127a.903.903 0 111.807-.001.903.903 0 01-1.807 0M143.54 143.127a.822.822 0 111.644 0 .822.822 0 01-1.644 0M152.165 143.127a.74.74 0 111.48 0 .74.74 0 01-1.48 0M160.79 143.127a.657.657 0 111.314 0 .657.657 0 01-1.313 0M169.416 143.127a.574.574 0 111.15-.001.574.574 0 01-1.15 0M178.042 143.127a.493.493 0 11.986 0 .493.493 0 01-.986 0M186.667 143.127a.411.411 0 11.822 0 .411.411 0 01-.822 0M195.293 143.127a.329.329 0 11.657-.001.329.329 0 01-.657 0M203.918 143.127a.247.247 0 11.494 0 .247.247 0 01-.494 0M212.544 143.127a.164.164 0 11.328-.002.164.164 0 01-.328.002M221.17 143.127c0-.045.036-.082.081-.082.045 0 .082.037.082.082a.082.082 0 01-.082.082.082.082 0 01-.082-.082M2.685 153.094a2.136 2.136 0 114.271 0 2.136 2.136 0 01-4.27 0M11.31 153.094a2.055 2.055 0 114.11 0 2.055 2.055 0 01-4.11 0M19.934 153.094a1.974 1.974 0 113.948 0 1.974 1.974 0 01-3.948 0M28.558 153.094a1.893 1.893 0 113.786 0 1.893 1.893 0 01-3.786 0M37.183 153.094a1.812 1.812 0 113.625 0 1.812 1.812 0 01-3.625 0M45.807 153.094a1.73 1.73 0 113.459-.001 1.73 1.73 0 01-3.459.001M54.432 153.094a1.649 1.649 0 113.297 0 1.649 1.649 0 01-3.297 0M63.056 153.094a1.568 1.568 0 113.136 0 1.568 1.568 0 01-3.136 0M71.68 153.094a1.487 1.487 0 112.975 0 1.487 1.487 0 01-2.975 0M80.305 153.094a1.406 1.406 0 112.812 0 1.406 1.406 0 01-2.812 0M88.929 153.094a1.325 1.325 0 112.65 0 1.325 1.325 0 01-2.65 0M97.553 153.094a1.244 1.244 0 112.489 0 1.244 1.244 0 01-2.489 0M106.178 153.094a1.163 1.163 0 112.327 0 1.163 1.163 0 01-2.327 0M114.802 153.094a1.081 1.081 0 112.163-.001 1.081 1.081 0 01-2.163.001M123.426 153.094a1 1 0 112 0 1 1 0 01-2 0M132.051 153.094a.92.92 0 111.838 0 .92.92 0 01-1.838 0M140.675 153.094a.838.838 0 111.676 0 .838.838 0 01-1.676 0M149.3 153.094a.757.757 0 111.514 0 .757.757 0 01-1.514 0M157.924 153.094a.675.675 0 111.35-.002.675.675 0 01-1.35.002M166.549 153.094a.595.595 0 111.19 0 .595.595 0 01-1.19 0M175.173 153.094a.514.514 0 111.028 0 .514.514 0 01-1.028 0M183.798 153.094a.433.433 0 11.866 0 .433.433 0 01-.866 0M192.422 153.094a.352.352 0 11.704 0 .352.352 0 01-.704 0M201.047 153.094a.271.271 0 01.54 0 .271.271 0 01-.54 0M209.67 153.094a.19.19 0 01.38 0 .19.19 0 01-.38 0M218.295 153.094c0-.06.048-.108.108-.108s.108.048.108.108-.048.108-.108.108a.108.108 0 01-.108-.108M226.92 153.094c0-.015.012-.027.027-.027s.027.012.027.027a.027.027 0 01-.027.027.027.027 0 01-.027-.027M.55 163.06a2.136 2.136 0 114.272.001 2.136 2.136 0 01-4.272 0M35.046 163.06a1.813 1.813 0 113.625.003 1.813 1.813 0 01-3.625-.002M43.67 163.06a1.731 1.731 0 113.462 0 1.731 1.731 0 01-3.462 0M52.294 163.06a1.65 1.65 0 113.3 0 1.65 1.65 0 01-3.3 0M60.918 163.06a1.57 1.57 0 113.14.001 1.57 1.57 0 01-3.14 0M69.542 163.06a1.49 1.49 0 112.98.002 1.49 1.49 0 01-2.98-.001M78.167 163.06a1.408 1.408 0 112.816.001 1.408 1.408 0 01-2.816 0M86.79 163.06a1.327 1.327 0 112.654 0 1.327 1.327 0 01-2.653 0M95.415 163.06a1.246 1.246 0 112.493.002 1.246 1.246 0 01-2.493-.001M104.04 163.06a1.165 1.165 0 112.33 0 1.165 1.165 0 01-2.33 0M112.663 163.06a1.084 1.084 0 112.167 0 1.084 1.084 0 01-2.167 0M121.287 163.06a1.003 1.003 0 112.007.001 1.003 1.003 0 01-2.007 0M129.911 163.06a.923.923 0 111.847.002.923.923 0 01-1.847-.001M138.536 163.06a.842.842 0 111.684.001.842.842 0 01-1.684 0M147.16 163.06a.761.761 0 111.523.002.761.761 0 01-1.523-.001M155.784 163.06a.68.68 0 111.362.003.68.68 0 01-1.362-.002M164.408 163.06a.6.6 0 111.2 0 .6.6 0 01-1.2 0M173.032 163.06a.52.52 0 111.039.001.52.52 0 01-1.039 0M181.656 163.06a.437.437 0 11.875 0 .437.437 0 01-.875 0M190.28 163.06a.357.357 0 11.715.001.357.357 0 01-.715 0M198.904 163.06a.277.277 0 11.554.002.277.277 0 01-.554-.001M207.529 163.06a.195.195 0 11.39.001.195.195 0 01-.39 0M216.153 163.06c0-.062.051-.113.115-.113.063 0 .114.05.114.114a.115.115 0 01-.114.115.115.115 0 01-.115-.115M224.777 163.06c0-.018.015-.032.034-.032.018 0 .033.014.033.033a.034.034 0 11-.067 0M234.75 163.417a1.232 1.232 0 11-2.463 0 1.232 1.232 0 012.464 0" fill="#3493FF" fill-rule="nonzero"/><path d="M228.042 163.417a1.642 1.642 0 11-3.285.001 1.642 1.642 0 013.285-.001M221.333 163.417a2.053 2.053 0 11-4.106.001 2.053 2.053 0 014.106-.001M234.75 153.45a1.233 1.233 0 11-2.464-.001 1.233 1.233 0 012.465.001M228.042 153.45a1.643 1.643 0 11-3.286 0 1.643 1.643 0 013.286 0M221.333 153.45a2.054 2.054 0 11-4.108 0 2.054 2.054 0 014.108 0M234.75 143.483a1.232 1.232 0 11-2.463 0 1.232 1.232 0 012.464 0M228.042 143.483a1.643 1.643 0 11-3.286 0 1.643 1.643 0 013.286 0M221.333 143.483a2.054 2.054 0 11-4.108 0 2.054 2.054 0 014.108 0M233.4 183.351a1.305 1.305 0 11-2.61.001 1.305 1.305 0 012.61 0M226.32 183.351a1.345 1.345 0 11-2.69 0 1.345 1.345 0 012.69 0M219.24 183.351a1.384 1.384 0 11-2.768 0 1.384 1.384 0 012.768 0M212.16 183.351a1.424 1.424 0 11-2.847 0 1.424 1.424 0 012.847 0M205.08 183.351a1.463 1.463 0 11-2.926 0 1.463 1.463 0 012.926 0M198 183.351a1.503 1.503 0 11-3.006 0 1.503 1.503 0 013.006 0M190.92 183.351a1.542 1.542 0 11-3.084 0 1.542 1.542 0 113.085 0M183.84 183.351a1.582 1.582 0 11-3.163.001 1.582 1.582 0 013.164 0M176.761 183.351a1.622 1.622 0 11-3.244 0 1.622 1.622 0 013.244 0M169.68 183.351a1.661 1.661 0 11-3.322 0 1.661 1.661 0 013.323 0M162.601 183.351a1.702 1.702 0 11-3.403 0 1.702 1.702 0 013.403 0M155.521 183.351a1.74 1.74 0 11-3.48 0 1.74 1.74 0 013.48 0M148.442 183.351a1.78 1.78 0 11-3.56 0 1.78 1.78 0 013.56 0M141.362 183.351a1.818 1.818 0 11-3.64 0 1.82 1.82 0 013.64 0M134.281 183.351a1.858 1.858 0 11-3.716.002 1.858 1.858 0 013.716-.002M127.202 183.351a1.898 1.898 0 11-3.797 0 1.898 1.898 0 013.797 0M120.122 183.351a1.938 1.938 0 11-3.877 0 1.938 1.938 0 013.877 0M113.042 183.351a1.978 1.978 0 11-3.956 0 1.978 1.978 0 013.956 0M105.962 183.351a2.017 2.017 0 11-4.034 0 2.017 2.017 0 014.034 0M98.883 183.351a2.057 2.057 0 11-4.115 0 2.057 2.057 0 014.115 0M91.802 183.351a2.095 2.095 0 11-4.19.001 2.095 2.095 0 014.19 0M234.943 174.655a1.27 1.27 0 110-2.541M229.133 173.384a1.31 1.31 0 11-2.619.001 1.31 1.31 0 012.62 0M222.053 173.384a1.35 1.35 0 11-2.698.001 1.35 1.35 0 012.698 0M214.974 173.384a1.39 1.39 0 11-2.78 0 1.39 1.39 0 012.78 0M207.894 173.384a1.429 1.429 0 11-2.857 0 1.429 1.429 0 012.857 0M200.814 173.384a1.469 1.469 0 11-2.937 0 1.469 1.469 0 012.937 0M193.735 173.384a1.509 1.509 0 11-3.018 0 1.509 1.509 0 013.018 0M186.654 173.384a1.548 1.548 0 11-3.095 0 1.548 1.548 0 013.095 0M179.575 173.384a1.588 1.588 0 11-3.176 0 1.588 1.588 0 013.176 0M172.495 173.384a1.628 1.628 0 11-3.256 0 1.628 1.628 0 013.256 0M165.416 173.384a1.667 1.667 0 11-3.335 0 1.667 1.667 0 013.335 0M158.336 173.384a1.707 1.707 0 11-3.414 0 1.707 1.707 0 013.414 0M151.256 173.384a1.747 1.747 0 11-3.493 0 1.747 1.747 0 013.493 0M144.176 173.384a1.787 1.787 0 11-3.573 0 1.787 1.787 0 013.573 0M137.097 173.384a1.827 1.827 0 11-3.654 0 1.827 1.827 0 013.654 0M130.017 173.384a1.865 1.865 0 11-3.731.001 1.865 1.865 0 013.73 0M122.937 173.384a1.905 1.905 0 11-3.81.001 1.905 1.905 0 013.81 0M115.858 173.384a1.945 1.945 0 11-3.89 0 1.945 1.945 0 013.89 0M108.778 173.384a1.985 1.985 0 11-3.97 0 1.985 1.985 0 013.97 0M101.698 173.384a2.024 2.024 0 11-4.048.002 2.024 2.024 0 014.048-.002M94.618 173.384a2.064 2.064 0 11-4.127 0 2.064 2.064 0 014.127 0M87.539 173.384a2.104 2.104 0 11-4.208 0 2.104 2.104 0 014.208 0M234.943 134.786a1.27 1.27 0 110-2.541M229.133 133.516a1.31 1.31 0 11-2.619 0 1.31 1.31 0 012.62 0M222.054 133.516a1.35 1.35 0 11-2.7 0 1.35 1.35 0 012.7 0M214.974 133.516a1.39 1.39 0 11-2.78-.001 1.39 1.39 0 012.78 0M207.894 133.516a1.429 1.429 0 11-2.857 0 1.429 1.429 0 012.857 0M200.814 133.516a1.47 1.47 0 11-2.939-.001 1.47 1.47 0 012.94 0M193.735 133.516a1.509 1.509 0 11-3.018 0 1.509 1.509 0 013.018 0M186.655 133.516a1.548 1.548 0 11-3.096 0 1.548 1.548 0 013.096 0M179.575 133.516a1.588 1.588 0 11-3.176 0 1.588 1.588 0 013.176 0M172.495 133.516a1.628 1.628 0 11-3.256 0 1.628 1.628 0 013.256 0M165.416 133.516a1.667 1.667 0 11-3.335 0 1.667 1.667 0 013.335 0M158.336 133.516a1.707 1.707 0 11-3.414 0 1.707 1.707 0 013.414 0M151.256 133.516a1.747 1.747 0 11-3.493 0 1.747 1.747 0 013.493 0M144.177 133.516a1.787 1.787 0 11-3.574 0 1.787 1.787 0 013.573 0M137.097 133.516a1.826 1.826 0 11-3.652 0 1.826 1.826 0 013.652 0M130.017 133.516a1.865 1.865 0 11-3.731 0 1.865 1.865 0 013.73 0M122.937 133.516a1.905 1.905 0 11-3.81 0 1.905 1.905 0 013.81 0M115.858 133.516a1.945 1.945 0 11-3.89 0 1.945 1.945 0 013.89 0M108.778 133.516a1.985 1.985 0 11-3.97 0 1.985 1.985 0 013.97 0M101.698 133.516a2.025 2.025 0 11-4.05 0 2.025 2.025 0 014.05 0M94.618 133.516a2.064 2.064 0 11-4.127 0 2.064 2.064 0 014.127 0M87.539 133.516a2.104 2.104 0 11-4.208 0 2.104 2.104 0 014.208 0M233.4 123.548a1.305 1.305 0 11-2.61 0 1.305 1.305 0 012.61 0M226.32 123.548a1.345 1.345 0 11-2.69 0 1.345 1.345 0 012.69 0M219.24 123.548a1.384 1.384 0 11-2.768 0 1.384 1.384 0 012.768 0M212.16 123.548a1.424 1.424 0 11-2.847 0 1.424 1.424 0 012.847 0M205.08 123.548a1.462 1.462 0 11-2.927 0 1.464 1.464 0 012.927 0M198 123.548a1.502 1.502 0 11-3.004.002 1.502 1.502 0 013.004-.002M190.92 123.548a1.542 1.542 0 11-3.084 0 1.542 1.542 0 113.085 0M183.84 123.548a1.582 1.582 0 11-3.163 0 1.582 1.582 0 013.164 0M176.761 123.548a1.622 1.622 0 11-3.244 0 1.622 1.622 0 013.244 0M169.68 123.548a1.661 1.661 0 11-3.322 0 1.661 1.661 0 013.323 0M162.601 123.548a1.702 1.702 0 11-3.403 0 1.702 1.702 0 013.403 0M155.521 123.548a1.74 1.74 0 11-3.48 0 1.74 1.74 0 013.48 0M148.442 123.548a1.78 1.78 0 11-3.56 0 1.78 1.78 0 013.56 0M141.362 123.548a1.818 1.818 0 11-3.64 0 1.82 1.82 0 013.64 0M134.281 123.548a1.858 1.858 0 11-3.716.001 1.858 1.858 0 013.716 0M127.202 123.548a1.898 1.898 0 11-3.795 0 1.898 1.898 0 013.795 0M120.122 123.548a1.938 1.938 0 11-3.876 0 1.938 1.938 0 013.876 0M113.042 123.548a1.978 1.978 0 11-3.956 0 1.978 1.978 0 013.956 0M105.962 123.548a2.017 2.017 0 11-4.034 0 2.017 2.017 0 014.034 0M98.883 123.548a2.057 2.057 0 11-4.115 0 2.057 2.057 0 014.115 0M91.802 123.548a2.095 2.095 0 11-4.19.001 2.095 2.095 0 014.19 0M135.716 203.286a.445.445 0 11-.89 0 .445.445 0 01.89 0M129.041 203.286a.89.89 0 11-1.78 0 .89.89 0 011.78 0M122.366 203.286a1.334 1.334 0 11-2.668 0 1.334 1.334 0 012.668 0M115.692 203.286a1.78 1.78 0 11-3.56 0 1.78 1.78 0 013.56 0M146.91 193.319a.249.249 0 11-.498 0 .249.249 0 01.498 0M140.039 193.319a.497.497 0 11-.994 0 .497.497 0 01.994 0M133.168 193.319a.744.744 0 11-1.489.001.744.744 0 011.489-.001M126.297 193.319a.993.993 0 11-1.986 0 .993.993 0 011.986 0M119.425 193.319a1.242 1.242 0 11-2.483 0 1.242 1.242 0 012.483 0M112.554 193.319a1.49 1.49 0 11-2.98 0 1.49 1.49 0 012.98 0M105.683 193.319a1.738 1.738 0 11-3.475 0 1.738 1.738 0 013.475 0M98.812 193.319a1.987 1.987 0 11-3.973 0 1.987 1.987 0 013.973 0M146.91 111.603a.249.249 0 11-.498 0 .249.249 0 01.498 0M140.039 111.603a.497.497 0 11-.994 0 .497.497 0 01.994 0M133.168 111.603a.744.744 0 11-1.489.002.744.744 0 011.489-.002M126.297 111.603a.994.994 0 11-1.988 0 .994.994 0 011.988 0M119.425 111.603a1.242 1.242 0 11-2.483 0 1.242 1.242 0 012.483 0M112.554 111.603a1.49 1.49 0 11-2.98 0 1.49 1.49 0 012.98 0M105.683 111.603a1.739 1.739 0 11-3.477.001 1.739 1.739 0 013.477 0M98.812 111.603a1.986 1.986 0 11-3.972.002 1.986 1.986 0 013.972-.002M135.716 101.637a.445.445 0 11-.89 0 .445.445 0 01.89 0M129.041 101.637a.89.89 0 11-1.78 0 .89.89 0 011.78 0M122.366 101.637a1.334 1.334 0 11-2.668-.001 1.334 1.334 0 012.668 0M115.692 101.637a1.78 1.78 0 11-3.56 0 1.78 1.78 0 013.56 0M141.04 61.332a2.136 2.136 0 114.272 0 2.136 2.136 0 01-4.273 0M150.65 61.332a1.068 1.068 0 112.137.001 1.068 1.068 0 01-2.137 0M141.04 71.3a2.136 2.136 0 114.272 0 2.136 2.136 0 01-4.273 0M150.65 71.3a1.068 1.068 0 112.136 0 1.068 1.068 0 01-2.136 0M163.821 61.332a2.137 2.137 0 114.274.002 2.137 2.137 0 01-4.274-.002M173.432 61.332a1.068 1.068 0 112.137.001 1.068 1.068 0 01-2.137 0M163.821 71.3a2.137 2.137 0 114.274.001 2.137 2.137 0 01-4.274-.001M173.432 71.3a1.068 1.068 0 112.136 0 1.068 1.068 0 01-2.136 0M186.603 61.332a2.136 2.136 0 114.273 0 2.136 2.136 0 01-4.273 0M196.215 61.332a1.068 1.068 0 112.136.001 1.068 1.068 0 01-2.136 0M186.603 71.3a2.136 2.136 0 114.273 0 2.136 2.136 0 01-4.273 0M196.57 71.3a.712.712 0 111.425 0 .712.712 0 01-1.424 0M206.538 71.3a2.136 2.136 0 114.272 0 2.136 2.136 0 01-4.272 0M216.15 71.3a1.068 1.068 0 112.135 0 1.068 1.068 0 01-2.136 0M229.32 71.3a2.136 2.136 0 114.273 0 2.136 2.136 0 01-4.273 0M143.373 43.178a.102.102 0 11.203 0 .102.102 0 11-.203 0M136.287 43.178a.203.203 0 11.407 0 .203.203 0 01-.407 0M129.202 43.178a.306.306 0 11.611.001.306.306 0 01-.611 0M122.116 43.178a.407.407 0 11.814 0 .407.407 0 01-.814 0M115.031 43.178a.508.508 0 111.017 0 .508.508 0 01-1.017 0M107.945 43.178a.61.61 0 111.22 0 .61.61 0 01-1.22 0M100.86 43.178a.712.712 0 111.425 0 .712.712 0 01-1.425 0M93.775 43.178a.813.813 0 111.626 0 .813.813 0 01-1.626 0M86.689 43.178a.916.916 0 111.831.001.916.916 0 01-1.831 0M79.604 43.178a1.017 1.017 0 112.033 0 1.017 1.017 0 01-2.033 0M72.518 43.178a1.119 1.119 0 112.238 0 1.119 1.119 0 01-2.238 0M65.432 43.178a1.22 1.22 0 112.44 0 1.22 1.22 0 01-2.44 0M58.347 43.178a1.322 1.322 0 112.644 0 1.322 1.322 0 01-2.644 0M51.262 43.178a1.424 1.424 0 112.847 0 1.424 1.424 0 01-2.847 0M44.176 43.178a1.525 1.525 0 113.05 0 1.525 1.525 0 01-3.05 0M202.09 43.178a1.486 1.486 0 112.972 0 1.486 1.486 0 01-2.972 0M194.816 43.178a1.58 1.58 0 113.158 0 1.58 1.58 0 01-3.158 0M187.542 43.178a1.67 1.67 0 113.341 0 1.67 1.67 0 01-3.341 0M180.267 43.178a1.764 1.764 0 113.529 0 1.764 1.764 0 01-3.529 0M172.993 43.178a1.857 1.857 0 113.714 0 1.857 1.857 0 01-3.714 0M165.719 43.178a1.95 1.95 0 113.9 0 1.95 1.95 0 01-3.9 0M158.445 43.178a2.043 2.043 0 114.086 0 2.043 2.043 0 01-4.086 0M151.17 43.178a2.136 2.136 0 114.273 0 2.136 2.136 0 01-4.272 0M184.937 51.722a.916.916 0 111.831 0 .916.916 0 01-1.831 0M177.832 51.722a.958.958 0 111.917-.002.958.958 0 01-1.917.002M170.727 51.722a1.002 1.002 0 112.004 0 1.002 1.002 0 01-2.004 0M163.622 51.722a1.046 1.046 0 112.092-.001 1.046 1.046 0 01-2.092 0M156.517 51.722a1.09 1.09 0 112.18 0 1.09 1.09 0 01-2.18 0M149.412 51.722a1.133 1.133 0 112.266-.001 1.133 1.133 0 01-2.266 0M142.307 51.722a1.177 1.177 0 112.355 0 1.177 1.177 0 01-2.355 0M135.203 51.722a1.22 1.22 0 112.441-.001 1.22 1.22 0 01-2.441 0M128.098 51.722a1.264 1.264 0 112.528 0 1.264 1.264 0 01-2.528 0M120.993 51.722a1.308 1.308 0 112.616 0 1.308 1.308 0 01-2.616 0M113.888 51.722a1.351 1.351 0 112.703 0 1.351 1.351 0 01-2.703 0M106.783 51.722a1.394 1.394 0 112.789-.002 1.394 1.394 0 01-2.789.002M99.678 51.722a1.438 1.438 0 112.877 0 1.438 1.438 0 01-2.877 0M92.573 51.722a1.483 1.483 0 112.966 0 1.483 1.483 0 01-2.966 0M85.469 51.722a1.526 1.526 0 113.05-.001 1.526 1.526 0 01-3.05 0M78.364 51.722a1.569 1.569 0 113.138 0 1.569 1.569 0 01-3.138 0M71.258 51.721a1.613 1.613 0 113.226 0 1.613 1.613 0 01-3.225 0M64.154 51.721a1.656 1.656 0 113.312.001 1.656 1.656 0 01-3.312 0M57.05 51.721a1.7 1.7 0 113.399 0 1.7 1.7 0 01-3.4 0M49.944 51.721a1.744 1.744 0 113.489.001 1.744 1.744 0 01-3.489 0M42.84 51.721a1.787 1.787 0 113.573 0 1.787 1.787 0 01-3.574 0" fill="#3493FF" fill-rule="nonzero"/><path d="M141.678 61.688a.102.102 0 11.204 0 .102.102 0 01-.204 0M134.321 61.688a.203.203 0 11.407 0 .203.203 0 01-.407 0M126.965 61.688a.306.306 0 11.61.001.306.306 0 01-.61 0M119.608 61.688a.407.407 0 11.814.001.407.407 0 01-.814 0M112.251 61.688a.508.508 0 111.016 0 .508.508 0 01-1.016 0M104.894 61.688a.61.61 0 111.22 0 .61.61 0 01-1.22 0M97.538 61.688a.712.712 0 111.423 0 .712.712 0 01-1.423 0M90.18 61.688a.813.813 0 111.627 0 .813.813 0 01-1.626 0M82.825 61.688a.915.915 0 111.83.001.915.915 0 01-1.83 0M75.468 61.688a1.017 1.017 0 112.033 0 1.017 1.017 0 01-2.034 0M68.11 61.688a1.119 1.119 0 112.239 0 1.119 1.119 0 01-2.238 0M60.754 61.688a1.22 1.22 0 112.44 0 1.22 1.22 0 01-2.44 0M53.397 61.688a1.322 1.322 0 112.645 0 1.322 1.322 0 01-2.645 0M46.04 61.688a1.424 1.424 0 112.849 0 1.424 1.424 0 01-2.848 0M136.184 71.656c0-.06.048-.106.106-.106a.106.106 0 11-.106.106M129.029 71.656a.213.213 0 11.427 0 .213.213 0 01-.427 0M121.874 71.656a.32.32 0 11.64 0 .32.32 0 01-.64 0M114.72 71.656a.427.427 0 11.853 0 .427.427 0 01-.853 0M107.564 71.656a.534.534 0 111.068 0 .534.534 0 01-1.068 0M100.41 71.656a.64.64 0 111.281 0 .64.64 0 01-1.282 0M93.254 71.656a.747.747 0 111.495-.001.747.747 0 01-1.495 0M86.099 71.656a.854.854 0 111.708 0 .854.854 0 01-1.708 0M78.944 71.656a.96.96 0 111.921-.001.96.96 0 01-1.92 0M71.79 71.656a1.068 1.068 0 112.135 0 1.068 1.068 0 01-2.136 0M64.634 71.656a1.176 1.176 0 112.351 0 1.176 1.176 0 01-2.351 0M57.48 71.656a1.281 1.281 0 112.561 0 1.281 1.281 0 01-2.562 0M50.324 71.656a1.388 1.388 0 112.777 0 1.388 1.388 0 01-2.777 0M43.17 71.656a1.495 1.495 0 112.988-.001 1.495 1.495 0 01-2.989 0M36.014 71.656a1.602 1.602 0 113.205 0 1.602 1.602 0 01-3.205 0M28.86 71.656a1.708 1.708 0 113.416 0 1.708 1.708 0 01-3.417 0M21.704 71.656a1.815 1.815 0 113.63 0 1.815 1.815 0 01-3.63 0M14.55 71.656a1.921 1.921 0 113.844 0 1.922 1.922 0 01-3.845 0M7.394 71.656a2.028 2.028 0 114.057-.001 2.028 2.028 0 01-4.057 0M.239 71.656a2.136 2.136 0 114.272 0 2.136 2.136 0 01-4.272 0M231.213 81.623a.785.785 0 111.57 0 .785.785 0 01-1.57 0M223.992 81.623a.828.828 0 111.655 0 .828.828 0 01-1.655 0M216.77 81.623a.873.873 0 111.746.001.873.873 0 01-1.745-.001M209.55 81.623a.915.915 0 111.83 0 .915.915 0 01-1.83 0M202.328 81.623a.96.96 0 111.919 0 .96.96 0 01-1.919 0M195.108 81.623a1.002 1.002 0 112.003 0 1.002 1.002 0 01-2.003 0M187.887 81.623a1.046 1.046 0 112.09 0 1.046 1.046 0 01-2.09 0M180.665 81.623a1.09 1.09 0 112.18 0 1.09 1.09 0 01-2.18 0M173.444 81.623a1.133 1.133 0 112.265 0 1.133 1.133 0 01-2.265 0M166.223 81.623a1.177 1.177 0 112.354 0 1.177 1.177 0 01-2.354 0M159.002 81.623a1.22 1.22 0 112.44 0 1.22 1.22 0 01-2.44 0M151.78 81.623a1.264 1.264 0 112.529 0 1.264 1.264 0 01-2.529 0M144.56 81.623a1.308 1.308 0 112.616 0 1.308 1.308 0 01-2.616 0M137.339 81.623a1.351 1.351 0 112.702 0 1.351 1.351 0 01-2.702 0M130.117 81.623a1.396 1.396 0 112.792.001 1.396 1.396 0 01-2.792-.001M122.896 81.623a1.438 1.438 0 112.877 0 1.438 1.438 0 01-2.877 0M115.675 81.623a1.483 1.483 0 112.965.001 1.483 1.483 0 01-2.965-.001M108.454 81.623a1.525 1.525 0 113.05 0 1.525 1.525 0 01-3.05 0M101.233 81.623a1.569 1.569 0 113.138 0 1.569 1.569 0 01-3.138 0M94.012 81.623a1.613 1.613 0 113.226 0 1.613 1.613 0 01-3.226 0M86.79 81.623a1.656 1.656 0 113.313 0 1.656 1.656 0 01-3.312 0M79.57 81.623a1.7 1.7 0 113.4 0 1.7 1.7 0 01-3.4 0M72.348 81.623a1.744 1.744 0 113.489 0 1.744 1.744 0 01-3.489 0M65.127 81.623a1.787 1.787 0 113.574 0 1.787 1.787 0 01-3.574 0M57.907 81.623a1.83 1.83 0 113.66 0 1.83 1.83 0 01-3.66 0M50.685 81.623a1.874 1.874 0 113.748 0 1.874 1.874 0 01-3.748 0M43.464 81.623a1.918 1.918 0 113.836 0 1.918 1.918 0 01-3.836 0M36.243 81.623a1.961 1.961 0 113.922 0 1.961 1.961 0 01-3.922 0M29.022 81.623a2.005 2.005 0 114.01 0 2.005 2.005 0 01-4.01 0M21.8 81.623a2.05 2.05 0 114.099 0 2.05 2.05 0 01-4.099 0M14.58 81.623a2.092 2.092 0 114.184 0 2.092 2.092 0 01-4.185 0M7.359 81.623a2.136 2.136 0 114.272 0 2.136 2.136 0 01-4.272 0M163.306 91.59c0-.054.043-.097.097-.097.054 0 .097.043.097.097a.096.096 0 01-.097.097.096.096 0 01-.097-.097M156.219 91.59a.194.194 0 11.388 0 .194.194 0 01-.388 0M149.132 91.59a.291.291 0 11.583.001.291.291 0 01-.583 0M142.045 91.59a.389.389 0 11.777.001.389.389 0 01-.777 0M134.958 91.59a.485.485 0 11.97 0 .485.485 0 01-.97 0M127.87 91.59a.583.583 0 111.166 0 .583.583 0 01-1.166 0M120.783 91.59a.68.68 0 111.362.002.68.68 0 01-1.362-.002M113.697 91.59a.777.777 0 111.554 0 .777.777 0 01-1.555 0M106.61 91.59a.874.874 0 111.748 0 .874.874 0 01-1.748 0M99.522 91.59a.971.971 0 111.943 0 .971.971 0 01-1.943 0M92.435 91.59a1.068 1.068 0 112.136 0 1.068 1.068 0 01-2.136 0M85.348 91.59a1.164 1.164 0 112.329-.001 1.164 1.164 0 01-2.329.001M78.261 91.59a1.262 1.262 0 112.524 0 1.262 1.262 0 01-2.523 0M71.174 91.59a1.36 1.36 0 112.718 0 1.36 1.36 0 01-2.718 0M64.087 91.59a1.456 1.456 0 112.913.001 1.456 1.456 0 01-2.913 0M57 91.59a1.553 1.553 0 113.105 0 1.553 1.553 0 01-3.105 0M49.913 91.59a1.65 1.65 0 113.3 0 1.65 1.65 0 01-3.3 0M42.826 91.59a1.748 1.748 0 113.496 0 1.748 1.748 0 01-3.496 0M35.739 91.59a1.845 1.845 0 113.69 0 1.845 1.845 0 01-3.69 0M234.953 91.59a1.456 1.456 0 11-2.912 0 1.456 1.456 0 012.912 0M224.76 91.59a1.553 1.553 0 113.105 0 1.553 1.553 0 01-3.106 0M217.478 91.59a1.65 1.65 0 113.3 0 1.65 1.65 0 01-3.3 0M210.197 91.59a1.748 1.748 0 113.496 0 1.748 1.748 0 01-3.496 0M202.916 91.59a1.845 1.845 0 113.69 0 1.845 1.845 0 01-3.69 0M195.635 91.59a1.942 1.942 0 113.883 0 1.942 1.942 0 01-3.883 0M188.353 91.59a2.04 2.04 0 114.079 0 2.04 2.04 0 01-4.079 0M181.072 91.59a2.136 2.136 0 114.272 0 2.136 2.136 0 01-4.272 0M230.959 101.558a.661.661 0 111.322 0 .661.661 0 01-1.322 0M223.789 101.558a.711.711 0 111.422-.002.711.711 0 01-1.422.002M216.618 101.558a.763.763 0 111.526 0 .763.763 0 01-1.526 0M209.448 101.558a.813.813 0 111.627-.002.813.813 0 01-1.627.002M202.278 101.558a.865.865 0 111.729-.001.865.865 0 01-1.73 0M195.108 101.558a.916.916 0 111.831 0 .916.916 0 01-1.831 0M187.937 101.558a.966.966 0 111.932 0 .966.966 0 01-1.932 0M180.767 101.558a1.017 1.017 0 112.034 0 1.017 1.017 0 01-2.034 0M173.597 101.558a1.068 1.068 0 112.135 0 1.068 1.068 0 01-2.135 0M166.427 101.558a1.119 1.119 0 112.238 0 1.119 1.119 0 01-2.238 0M159.256 101.558a1.17 1.17 0 112.34 0 1.17 1.17 0 01-2.34 0M152.086 101.558a1.22 1.22 0 112.441 0 1.22 1.22 0 01-2.441 0M144.916 101.558a1.27 1.27 0 112.542 0 1.27 1.27 0 01-2.542 0M137.745 101.558a1.322 1.322 0 112.645 0 1.322 1.322 0 01-2.645 0M130.575 101.558a1.373 1.373 0 112.747 0 1.373 1.373 0 01-2.747 0M123.405 101.558a1.423 1.423 0 112.847-.002 1.423 1.423 0 01-2.847.002M116.235 101.558a1.475 1.475 0 112.95 0 1.475 1.475 0 01-2.95 0M109.064 101.558a1.526 1.526 0 113.052-.001 1.526 1.526 0 01-3.052 0M101.894 101.558a1.577 1.577 0 113.154 0 1.577 1.577 0 01-3.154 0M94.724 101.558a1.627 1.627 0 113.254 0 1.627 1.627 0 01-3.254 0M87.553 101.558a1.678 1.678 0 113.356-.001 1.678 1.678 0 01-3.356 0M80.383 101.558a1.729 1.729 0 113.458 0 1.729 1.729 0 01-3.457 0M73.213 101.558a1.78 1.78 0 113.56 0 1.78 1.78 0 01-3.56 0M66.043 101.558a1.831 1.831 0 113.662 0 1.831 1.831 0 01-3.662 0M58.872 101.558a1.883 1.883 0 113.765 0 1.883 1.883 0 01-3.765 0M51.702 101.558a1.933 1.933 0 113.866 0 1.933 1.933 0 01-3.866 0M44.532 101.558a1.983 1.983 0 113.966 0 1.983 1.983 0 01-3.966 0M37.362 101.558a2.034 2.034 0 114.067 0 2.034 2.034 0 01-4.067 0M230.383 111.524a.562.562 0 111.124 0 .562.562 0 01-1.124 0M223.283 111.524a.618.618 0 111.236 0 .618.618 0 01-1.236 0M216.182 111.524a.675.675 0 111.349.001.675.675 0 01-1.35 0M209.081 111.524a.73.73 0 111.461.001.73.73 0 01-1.46 0M201.98 111.524a.787.787 0 111.575 0 .787.787 0 01-1.574 0M194.88 111.524a.843.843 0 111.686 0 .843.843 0 01-1.686 0M187.779 111.524a.899.899 0 111.798 0 .899.899 0 01-1.798 0M180.678 111.524a.957.957 0 111.914.002.957.957 0 01-1.914-.002M173.578 111.524a1.011 1.011 0 112.022 0 1.011 1.011 0 01-2.022 0M166.477 111.524a1.068 1.068 0 112.137.001 1.068 1.068 0 01-2.137 0M159.377 111.524a1.124 1.124 0 112.247 0 1.124 1.124 0 01-2.247 0M152.276 111.524a1.18 1.18 0 112.36 0 1.18 1.18 0 01-2.36 0M145.175 111.524a1.236 1.236 0 112.472 0 1.236 1.236 0 01-2.471 0M138.074 111.524a1.292 1.292 0 112.585 0 1.292 1.292 0 01-2.585 0M130.974 111.524a1.349 1.349 0 112.698 0 1.349 1.349 0 01-2.698 0M123.873 111.524a1.405 1.405 0 112.81 0 1.405 1.405 0 01-2.81 0M116.773 111.524a1.46 1.46 0 112.921 0 1.46 1.46 0 01-2.921 0M109.672 111.524a1.518 1.518 0 113.035.002 1.518 1.518 0 01-3.035-.002M102.571 111.524a1.574 1.574 0 113.149.001 1.574 1.574 0 01-3.149 0M95.47 111.524a1.63 1.63 0 113.261 0 1.63 1.63 0 01-3.26 0M88.37 111.524a1.686 1.686 0 113.372 0 1.686 1.686 0 01-3.372 0M81.27 111.524a1.742 1.742 0 113.484 0 1.742 1.742 0 01-3.485 0M74.168 111.524a1.799 1.799 0 113.598.002 1.799 1.799 0 01-3.598-.002M67.068 111.524a1.855 1.855 0 113.71.002 1.855 1.855 0 01-3.71-.002M59.967 111.524a1.91 1.91 0 113.822 0 1.91 1.91 0 01-3.822 0M104.966 121.492a.213.213 0 11.426 0 .213.213 0 01-.426 0M97.917 121.492a.427.427 0 11.854 0 .427.427 0 01-.854 0M90.87 121.492a.641.641 0 111.281 0 .641.641 0 01-1.282 0M83.821 121.492a.854.854 0 111.707-.001.854.854 0 01-1.707 0M76.773 121.492a1.068 1.068 0 112.135 0 1.068 1.068 0 01-2.135 0M69.724 121.492a1.281 1.281 0 112.563 0 1.281 1.281 0 01-2.563 0M62.676 121.492a1.495 1.495 0 112.99-.001 1.495 1.495 0 01-2.99 0M55.628 121.492a1.708 1.708 0 113.417 0 1.708 1.708 0 01-3.417 0M229.42 121.492a.776.776 0 111.552 0 .776.776 0 01-1.553 0M222.203 121.492a.874.874 0 111.748 0 .874.874 0 01-1.748 0M214.986 121.492a.971.971 0 111.943 0 .971.971 0 01-1.943 0M207.77 121.492a1.068 1.068 0 112.135 0 1.068 1.068 0 01-2.135 0M200.553 121.492a1.165 1.165 0 112.33 0 1.165 1.165 0 01-2.33 0M193.337 121.492a1.262 1.262 0 112.524 0 1.262 1.262 0 01-2.524 0M186.12 121.492a1.36 1.36 0 112.718 0 1.36 1.36 0 01-2.718 0M178.904 121.492a1.456 1.456 0 112.912 0 1.456 1.456 0 01-2.912 0M171.687 121.492a1.553 1.553 0 113.107 0 1.553 1.553 0 01-3.107 0M164.47 121.492a1.65 1.65 0 113.3-.001 1.65 1.65 0 01-3.3 0M157.254 121.492a1.749 1.749 0 113.497 0 1.749 1.749 0 01-3.497 0M150.038 121.492a1.844 1.844 0 113.688 0 1.844 1.844 0 01-3.688 0M142.821 121.492a1.941 1.941 0 113.882 0 1.941 1.941 0 01-3.882 0M135.605 121.492a2.04 2.04 0 114.078 0 2.04 2.04 0 01-4.078 0M128.388 121.492a2.136 2.136 0 114.273 0 2.136 2.136 0 01-4.273 0M137.242 202.93a2.136 2.136 0 114.272 0 2.136 2.136 0 01-4.272 0M145.869 202.93a2.053 2.053 0 114.105 0 2.053 2.053 0 01-4.105 0M154.495 202.93a1.97 1.97 0 113.94 0 1.97 1.97 0 01-3.94 0M163.121 202.93a1.886 1.886 0 113.773 0 1.886 1.886 0 01-3.773 0M171.748 202.93a1.803 1.803 0 113.606 0 1.803 1.803 0 01-3.606 0M180.375 202.93a1.72 1.72 0 113.44 0 1.72 1.72 0 01-3.44 0M189.001 202.93a1.637 1.637 0 113.274 0 1.637 1.637 0 01-3.274 0M197.628 202.93a1.553 1.553 0 113.105 0 1.553 1.553 0 01-3.105 0M206.254 202.93a1.47 1.47 0 112.94 0 1.47 1.47 0 01-2.94 0M214.88 202.93a1.387 1.387 0 112.775 0 1.387 1.387 0 01-2.774 0M223.507 202.93a1.304 1.304 0 112.609 0 1.304 1.304 0 01-2.609 0M234.574 202.93a1.22 1.22 0 11-2.439 0 1.22 1.22 0 012.44 0M128.699 212.897a2.136 2.136 0 114.272 0 2.136 2.136 0 01-4.272 0M137.31 212.897a2.067 2.067 0 114.135.002 2.067 2.067 0 01-4.134-.002M145.923 212.897a1.998 1.998 0 113.996 0 1.998 1.998 0 01-3.996 0M154.535 212.897a1.93 1.93 0 113.86 0 1.93 1.93 0 01-3.86 0M163.148 212.897a1.86 1.86 0 113.72 0 1.86 1.86 0 01-3.72 0M171.76 212.897a1.791 1.791 0 113.582 0 1.791 1.791 0 01-3.582 0M180.372 212.897a1.722 1.722 0 113.444 0 1.722 1.722 0 01-3.444 0M188.984 212.897a1.653 1.653 0 113.306 0 1.653 1.653 0 01-3.306 0M197.596 212.897a1.584 1.584 0 113.168 0 1.584 1.584 0 01-3.168 0M206.208 212.897a1.516 1.516 0 113.033 0 1.516 1.516 0 01-3.033 0M214.82 212.897a1.447 1.447 0 112.895 0 1.447 1.447 0 01-2.895 0M223.433 212.897a1.377 1.377 0 112.754 0 1.377 1.377 0 01-2.754 0M234.663 212.897a1.31 1.31 0 11-2.62 0 1.31 1.31 0 012.62 0" fill="#3493FF" fill-rule="nonzero"/><g transform="rotate(-90 176.745 48.255)"><mask id="f" fill="#fff"><use xlink:href="#e"/></mask><path d="M2.136.209a2.136 2.136 0 110 4.272 2.136 2.136 0 010-4.272" fill="#0FF" mask="url(#f)"/></g><path d="M137.308 222.864a2.07 2.07 0 114.14 0 2.07 2.07 0 01-4.14 0M145.918 222.864a2.003 2.003 0 114.006 0 2.003 2.003 0 01-4.006 0M154.527 222.864a1.938 1.938 0 113.875.001 1.938 1.938 0 01-3.875 0M163.136 222.864a1.872 1.872 0 113.744 0 1.872 1.872 0 01-3.744 0M171.745 222.864a1.807 1.807 0 113.613.001 1.807 1.807 0 01-3.613 0M180.355 222.864a1.74 1.74 0 113.48.002 1.74 1.74 0 01-3.48-.002M188.964 222.864a1.673 1.673 0 113.346 0 1.673 1.673 0 01-3.346 0M197.573 222.864a1.607 1.607 0 113.215 0 1.607 1.607 0 01-3.215 0M206.183 222.864a1.542 1.542 0 113.084 0 1.542 1.542 0 01-3.084 0M214.792 222.864a1.475 1.475 0 112.95 0 1.475 1.475 0 01-2.95 0M223.402 222.864a1.41 1.41 0 112.818 0 1.41 1.41 0 01-2.818 0M234.697 222.864a1.343 1.343 0 11-2.686 0 1.343 1.343 0 012.686 0" fill="#0FF"/><path d="M124.427 12.13a2.136 2.136 0 114.272 0 2.136 2.136 0 01-4.272 0M133.052 12.13a2.055 2.055 0 114.11 0 2.055 2.055 0 01-4.11 0M167.548 12.13a1.73 1.73 0 113.463 0 1.731 1.731 0 01-3.463 0M227.917 12.13a1.166 1.166 0 112.332 0 1.166 1.166 0 01-2.332 0M124.427 22.097a2.137 2.137 0 114.274.001 2.137 2.137 0 01-4.274-.001M133.052 22.097a2.055 2.055 0 114.109 0 2.055 2.055 0 01-4.11 0M167.55 22.097a1.729 1.729 0 113.458 0 1.729 1.729 0 01-3.458 0M176.175 22.097a1.647 1.647 0 113.295 0 1.647 1.647 0 01-3.295 0M184.8 22.097a1.566 1.566 0 113.132 0 1.566 1.566 0 01-3.132 0M193.424 22.097a1.484 1.484 0 112.97 0 1.484 1.484 0 01-2.97 0M202.05 22.097a1.403 1.403 0 112.805 0 1.403 1.403 0 01-2.806 0M210.674 22.097a1.322 1.322 0 112.644 0 1.322 1.322 0 01-2.644 0M219.299 22.097a1.24 1.24 0 112.481 0 1.24 1.24 0 01-2.481 0M227.923 22.097a1.16 1.16 0 112.319 0 1.16 1.16 0 01-2.319 0M132.97 32.064a2.136 2.136 0 114.273 0 2.136 2.136 0 01-4.273 0M141.583 32.064a2.066 2.066 0 114.132 0 2.066 2.066 0 01-4.132 0M150.196 32.064a1.996 1.996 0 113.992 0 1.996 1.996 0 01-3.992 0M158.81 32.064a1.927 1.927 0 113.854 0 1.927 1.927 0 01-3.855 0M167.422 32.064a1.857 1.857 0 113.714 0 1.857 1.857 0 01-3.714 0M176.035 32.064a1.788 1.788 0 113.576 0 1.788 1.788 0 01-3.576 0M184.648 32.064a1.718 1.718 0 113.436 0 1.718 1.718 0 01-3.436 0M193.261 32.064a1.648 1.648 0 113.296 0 1.648 1.648 0 01-3.296 0M201.874 32.064a1.58 1.58 0 113.158 0 1.58 1.58 0 01-3.158 0M142.226 42.031a2.136 2.136 0 114.271 0 2.136 2.136 0 01-4.271 0M150.831 42.031a2.074 2.074 0 114.148.002 2.074 2.074 0 01-4.148-.002M159.437 42.031a2.011 2.011 0 114.023 0 2.011 2.011 0 01-4.023 0M168.043 42.031a1.948 1.948 0 113.896 0 1.948 1.948 0 01-3.896 0M176.649 42.031a1.885 1.885 0 113.77 0 1.885 1.885 0 01-3.77 0M185.255 42.031a1.823 1.823 0 113.645 0 1.823 1.823 0 01-3.645 0M193.86 42.031a1.76 1.76 0 113.522-.001 1.76 1.76 0 01-3.521.001M202.466 42.031a1.699 1.699 0 113.397.001 1.699 1.699 0 01-3.397 0M147.921 51.998a2.136 2.136 0 114.271 0 2.136 2.136 0 01-4.27 0M156.52 51.998a2.08 2.08 0 114.161.001 2.08 2.08 0 01-4.16 0M165.12 51.998a2.023 2.023 0 114.046 0 2.023 2.023 0 01-4.045 0M173.72 51.998a1.966 1.966 0 113.932 0 1.966 1.966 0 01-3.932 0M182.32 51.998a1.91 1.91 0 113.82 0 1.91 1.91 0 01-3.82 0M167.48 2.163a1.798 1.798 0 113.596-.001 1.798 1.798 0 01-3.595 0M5.533 143.127a2.136 2.136 0 114.271-.001 2.136 2.136 0 01-4.271 0M14.158 143.127a2.054 2.054 0 114.108 0 2.054 2.054 0 01-4.108 0M22.784 143.127a1.971 1.971 0 113.942-.002 1.971 1.971 0 01-3.942.002M31.41 143.127a1.89 1.89 0 113.78 0 1.89 1.89 0 01-3.78 0M40.034 143.127a1.808 1.808 0 113.616.001 1.808 1.808 0 01-3.616-.001M48.66 143.127a1.725 1.725 0 113.45-.001 1.725 1.725 0 01-3.45 0M57.285 143.127a1.644 1.644 0 113.287 0 1.644 1.644 0 01-3.287 0M65.91 143.127a1.561 1.561 0 113.123 0 1.561 1.561 0 01-3.122 0M74.536 143.127a1.48 1.48 0 112.96 0 1.48 1.48 0 01-2.96 0M83.162 143.127a1.396 1.396 0 112.792 0 1.396 1.396 0 01-2.792 0M91.787 143.127a1.314 1.314 0 112.628-.001 1.314 1.314 0 01-2.628 0M100.413 143.127a1.232 1.232 0 112.464 0 1.232 1.232 0 01-2.464 0M109.038 143.127a1.15 1.15 0 112.3 0 1.15 1.15 0 01-2.3 0M117.664 143.127a1.068 1.068 0 112.135 0 1.068 1.068 0 01-2.135 0M126.29 143.127a.986.986 0 111.971 0 .986.986 0 01-1.972 0M134.915 143.127a.903.903 0 111.807-.001.903.903 0 01-1.807 0M143.54 143.127a.822.822 0 111.644 0 .822.822 0 01-1.644 0M152.165 143.127a.74.74 0 111.48 0 .74.74 0 01-1.48 0M160.79 143.127a.657.657 0 111.314 0 .657.657 0 01-1.313 0M169.416 143.127a.574.574 0 111.15-.001.574.574 0 01-1.15 0M178.042 143.127a.493.493 0 11.986 0 .493.493 0 01-.986 0M186.667 143.127a.411.411 0 11.822 0 .411.411 0 01-.822 0M195.293 143.127a.329.329 0 11.657-.001.329.329 0 01-.657 0M203.918 143.127a.247.247 0 11.494 0 .247.247 0 01-.494 0M212.544 143.127a.164.164 0 11.328-.002.164.164 0 01-.328.002M221.17 143.127c0-.045.036-.082.081-.082.045 0 .082.037.082.082a.082.082 0 01-.082.082.082.082 0 01-.082-.082M2.685 153.094a2.136 2.136 0 114.271 0 2.136 2.136 0 01-4.27 0M11.31 153.094a2.055 2.055 0 114.11 0 2.055 2.055 0 01-4.11 0M19.934 153.094a1.974 1.974 0 113.948 0 1.974 1.974 0 01-3.948 0M28.558 153.094a1.893 1.893 0 113.786 0 1.893 1.893 0 01-3.786 0M37.183 153.094a1.812 1.812 0 113.625 0 1.812 1.812 0 01-3.625 0M45.807 153.094a1.73 1.73 0 113.459-.001 1.73 1.73 0 01-3.459.001M54.432 153.094a1.649 1.649 0 113.297 0 1.649 1.649 0 01-3.297 0M63.056 153.094a1.568 1.568 0 113.136 0 1.568 1.568 0 01-3.136 0M71.68 153.094a1.487 1.487 0 112.975 0 1.487 1.487 0 01-2.975 0M80.305 153.094a1.406 1.406 0 112.812 0 1.406 1.406 0 01-2.812 0M88.929 153.094a1.325 1.325 0 112.65 0 1.325 1.325 0 01-2.65 0M97.553 153.094a1.244 1.244 0 112.489 0 1.244 1.244 0 01-2.489 0M106.178 153.094a1.163 1.163 0 112.327 0 1.163 1.163 0 01-2.327 0M114.802 153.094a1.081 1.081 0 112.163-.001 1.081 1.081 0 01-2.163.001M123.426 153.094a1 1 0 112 0 1 1 0 01-2 0M132.051 153.094a.92.92 0 111.838 0 .92.92 0 01-1.838 0M140.675 153.094a.838.838 0 111.676 0 .838.838 0 01-1.676 0M149.3 153.094a.757.757 0 111.514 0 .757.757 0 01-1.514 0M157.924 153.094a.675.675 0 111.35-.002.675.675 0 01-1.35.002M166.549 153.094a.595.595 0 111.19 0 .595.595 0 01-1.19 0M175.173 153.094a.514.514 0 111.028 0 .514.514 0 01-1.028 0M183.798 153.094a.433.433 0 11.866 0 .433.433 0 01-.866 0M192.422 153.094a.352.352 0 11.704 0 .352.352 0 01-.704 0M201.047 153.094a.271.271 0 01.54 0 .271.271 0 01-.54 0M209.67 153.094a.19.19 0 01.38 0 .19.19 0 01-.38 0M218.295 153.094c0-.06.048-.108.108-.108s.108.048.108.108-.048.108-.108.108a.108.108 0 01-.108-.108M226.92 153.094c0-.015.012-.027.027-.027s.027.012.027.027a.027.027 0 01-.027.027.027.027 0 01-.027-.027M.55 163.06a2.136 2.136 0 114.272.001 2.136 2.136 0 01-4.272 0M35.046 163.06a1.813 1.813 0 113.625.003 1.813 1.813 0 01-3.625-.002M43.67 163.06a1.731 1.731 0 113.462 0 1.731 1.731 0 01-3.462 0M52.294 163.06a1.65 1.65 0 113.3 0 1.65 1.65 0 01-3.3 0M60.918 163.06a1.57 1.57 0 113.14.001 1.57 1.57 0 01-3.14 0M69.542 163.06a1.49 1.49 0 112.98.002 1.49 1.49 0 01-2.98-.001M78.167 163.06a1.408 1.408 0 112.816.001 1.408 1.408 0 01-2.816 0M86.79 163.06a1.327 1.327 0 112.654 0 1.327 1.327 0 01-2.653 0M95.415 163.06a1.246 1.246 0 112.493.002 1.246 1.246 0 01-2.493-.001M104.04 163.06a1.165 1.165 0 112.33 0 1.165 1.165 0 01-2.33 0M112.663 163.06a1.084 1.084 0 112.167 0 1.084 1.084 0 01-2.167 0M121.287 163.06a1.003 1.003 0 112.007.001 1.003 1.003 0 01-2.007 0M129.911 163.06a.923.923 0 111.847.002.923.923 0 01-1.847-.001M138.536 163.06a.842.842 0 111.684.001.842.842 0 01-1.684 0M147.16 163.06a.761.761 0 111.523.002.761.761 0 01-1.523-.001M155.784 163.06a.68.68 0 111.362.003.68.68 0 01-1.362-.002M164.408 163.06a.6.6 0 111.2 0 .6.6 0 01-1.2 0M173.032 163.06a.52.52 0 111.039.001.52.52 0 01-1.039 0M181.656 163.06a.437.437 0 11.875 0 .437.437 0 01-.875 0M190.28 163.06a.357.357 0 11.715.001.357.357 0 01-.715 0M198.904 163.06a.277.277 0 11.554.002.277.277 0 01-.554-.001M207.529 163.06a.195.195 0 11.39.001.195.195 0 01-.39 0M216.153 163.06c0-.062.051-.113.115-.113.063 0 .114.05.114.114a.115.115 0 01-.114.115.115.115 0 01-.115-.115M224.777 163.06c0-.018.015-.032.034-.032.018 0 .033.014.033.033a.034.034 0 11-.067 0M234.75 163.417a1.232 1.232 0 11-2.463 0 1.232 1.232 0 012.464 0" fill="#3493FF" fill-rule="nonzero"/><path d="M228.042 163.417a1.642 1.642 0 11-3.285.001 1.642 1.642 0 013.285-.001M221.333 163.417a2.053 2.053 0 11-4.106.001 2.053 2.053 0 014.106-.001M234.75 153.45a1.233 1.233 0 11-2.464-.001 1.233 1.233 0 012.465.001M228.042 153.45a1.643 1.643 0 11-3.286 0 1.643 1.643 0 013.286 0M221.333 153.45a2.054 2.054 0 11-4.108 0 2.054 2.054 0 014.108 0M234.75 143.483a1.232 1.232 0 11-2.463 0 1.232 1.232 0 012.464 0M228.042 143.483a1.643 1.643 0 11-3.286 0 1.643 1.643 0 013.286 0M221.333 143.483a2.054 2.054 0 11-4.108 0 2.054 2.054 0 014.108 0M233.4 183.351a1.305 1.305 0 11-2.61.001 1.305 1.305 0 012.61 0M226.32 183.351a1.345 1.345 0 11-2.69 0 1.345 1.345 0 012.69 0M219.24 183.351a1.384 1.384 0 11-2.768 0 1.384 1.384 0 012.768 0M212.16 183.351a1.424 1.424 0 11-2.847 0 1.424 1.424 0 012.847 0M205.08 183.351a1.463 1.463 0 11-2.926 0 1.463 1.463 0 012.926 0M198 183.351a1.503 1.503 0 11-3.006 0 1.503 1.503 0 013.006 0M190.92 183.351a1.542 1.542 0 11-3.084 0 1.542 1.542 0 113.085 0M183.84 183.351a1.582 1.582 0 11-3.163.001 1.582 1.582 0 013.164 0M176.761 183.351a1.622 1.622 0 11-3.244 0 1.622 1.622 0 013.244 0M169.68 183.351a1.661 1.661 0 11-3.322 0 1.661 1.661 0 013.323 0M162.601 183.351a1.702 1.702 0 11-3.403 0 1.702 1.702 0 013.403 0M155.521 183.351a1.74 1.74 0 11-3.48 0 1.74 1.74 0 013.48 0M148.442 183.351a1.78 1.78 0 11-3.56 0 1.78 1.78 0 013.56 0M141.362 183.351a1.818 1.818 0 11-3.64 0 1.82 1.82 0 013.64 0M134.281 183.351a1.858 1.858 0 11-3.716.002 1.858 1.858 0 013.716-.002M127.202 183.351a1.898 1.898 0 11-3.797 0 1.898 1.898 0 013.797 0M120.122 183.351a1.938 1.938 0 11-3.877 0 1.938 1.938 0 013.877 0M113.042 183.351a1.978 1.978 0 11-3.956 0 1.978 1.978 0 013.956 0M105.962 183.351a2.017 2.017 0 11-4.034 0 2.017 2.017 0 014.034 0M98.883 183.351a2.057 2.057 0 11-4.115 0 2.057 2.057 0 014.115 0M91.802 183.351a2.095 2.095 0 11-4.19.001 2.095 2.095 0 014.19 0M234.943 174.655a1.27 1.27 0 110-2.541M229.133 173.384a1.31 1.31 0 11-2.619.001 1.31 1.31 0 012.62 0M222.053 173.384a1.35 1.35 0 11-2.698.001 1.35 1.35 0 012.698 0M214.974 173.384a1.39 1.39 0 11-2.78 0 1.39 1.39 0 012.78 0M207.894 173.384a1.429 1.429 0 11-2.857 0 1.429 1.429 0 012.857 0M200.814 173.384a1.469 1.469 0 11-2.937 0 1.469 1.469 0 012.937 0M193.735 173.384a1.509 1.509 0 11-3.018 0 1.509 1.509 0 013.018 0M186.654 173.384a1.548 1.548 0 11-3.095 0 1.548 1.548 0 013.095 0M179.575 173.384a1.588 1.588 0 11-3.176 0 1.588 1.588 0 013.176 0M172.495 173.384a1.628 1.628 0 11-3.256 0 1.628 1.628 0 013.256 0M165.416 173.384a1.667 1.667 0 11-3.335 0 1.667 1.667 0 013.335 0M158.336 173.384a1.707 1.707 0 11-3.414 0 1.707 1.707 0 013.414 0M151.256 173.384a1.747 1.747 0 11-3.493 0 1.747 1.747 0 013.493 0M144.176 173.384a1.787 1.787 0 11-3.573 0 1.787 1.787 0 013.573 0M137.097 173.384a1.827 1.827 0 11-3.654 0 1.827 1.827 0 013.654 0M130.017 173.384a1.865 1.865 0 11-3.731.001 1.865 1.865 0 013.73 0M122.937 173.384a1.905 1.905 0 11-3.81.001 1.905 1.905 0 013.81 0M115.858 173.384a1.945 1.945 0 11-3.89 0 1.945 1.945 0 013.89 0M108.778 173.384a1.985 1.985 0 11-3.97 0 1.985 1.985 0 013.97 0M101.698 173.384a2.024 2.024 0 11-4.048.002 2.024 2.024 0 014.048-.002M94.618 173.384a2.064 2.064 0 11-4.127 0 2.064 2.064 0 014.127 0M87.539 173.384a2.104 2.104 0 11-4.208 0 2.104 2.104 0 014.208 0M234.943 134.786a1.27 1.27 0 110-2.541M229.133 133.516a1.31 1.31 0 11-2.619 0 1.31 1.31 0 012.62 0M222.054 133.516a1.35 1.35 0 11-2.7 0 1.35 1.35 0 012.7 0M214.974 133.516a1.39 1.39 0 11-2.78-.001 1.39 1.39 0 012.78 0M207.894 133.516a1.429 1.429 0 11-2.857 0 1.429 1.429 0 012.857 0M200.814 133.516a1.47 1.47 0 11-2.939-.001 1.47 1.47 0 012.94 0M193.735 133.516a1.509 1.509 0 11-3.018 0 1.509 1.509 0 013.018 0M186.655 133.516a1.548 1.548 0 11-3.096 0 1.548 1.548 0 013.096 0M179.575 133.516a1.588 1.588 0 11-3.176 0 1.588 1.588 0 013.176 0M172.495 133.516a1.628 1.628 0 11-3.256 0 1.628 1.628 0 013.256 0M165.416 133.516a1.667 1.667 0 11-3.335 0 1.667 1.667 0 013.335 0M158.336 133.516a1.707 1.707 0 11-3.414 0 1.707 1.707 0 013.414 0M151.256 133.516a1.747 1.747 0 11-3.493 0 1.747 1.747 0 013.493 0M144.177 133.516a1.787 1.787 0 11-3.574 0 1.787 1.787 0 013.573 0M137.097 133.516a1.826 1.826 0 11-3.652 0 1.826 1.826 0 013.652 0M130.017 133.516a1.865 1.865 0 11-3.731 0 1.865 1.865 0 013.73 0M122.937 133.516a1.905 1.905 0 11-3.81 0 1.905 1.905 0 013.81 0M115.858 133.516a1.945 1.945 0 11-3.89 0 1.945 1.945 0 013.89 0M108.778 133.516a1.985 1.985 0 11-3.97 0 1.985 1.985 0 013.97 0M101.698 133.516a2.025 2.025 0 11-4.05 0 2.025 2.025 0 014.05 0M94.618 133.516a2.064 2.064 0 11-4.127 0 2.064 2.064 0 014.127 0M87.539 133.516a2.104 2.104 0 11-4.208 0 2.104 2.104 0 014.208 0M233.4 123.548a1.305 1.305 0 11-2.61 0 1.305 1.305 0 012.61 0M226.32 123.548a1.345 1.345 0 11-2.69 0 1.345 1.345 0 012.69 0M219.24 123.548a1.384 1.384 0 11-2.768 0 1.384 1.384 0 012.768 0M212.16 123.548a1.424 1.424 0 11-2.847 0 1.424 1.424 0 012.847 0M205.08 123.548a1.462 1.462 0 11-2.927 0 1.464 1.464 0 012.927 0M198 123.548a1.502 1.502 0 11-3.004.002 1.502 1.502 0 013.004-.002M190.92 123.548a1.542 1.542 0 11-3.084 0 1.542 1.542 0 113.085 0M183.84 123.548a1.582 1.582 0 11-3.163 0 1.582 1.582 0 013.164 0M176.761 123.548a1.622 1.622 0 11-3.244 0 1.622 1.622 0 013.244 0M169.68 123.548a1.661 1.661 0 11-3.322 0 1.661 1.661 0 013.323 0M162.601 123.548a1.702 1.702 0 11-3.403 0 1.702 1.702 0 013.403 0M155.521 123.548a1.74 1.74 0 11-3.48 0 1.74 1.74 0 013.48 0M148.442 123.548a1.78 1.78 0 11-3.56 0 1.78 1.78 0 013.56 0M141.362 123.548a1.818 1.818 0 11-3.64 0 1.82 1.82 0 013.64 0M134.281 123.548a1.858 1.858 0 11-3.716.001 1.858 1.858 0 013.716 0M127.202 123.548a1.898 1.898 0 11-3.795 0 1.898 1.898 0 013.795 0M120.122 123.548a1.938 1.938 0 11-3.876 0 1.938 1.938 0 013.876 0M113.042 123.548a1.978 1.978 0 11-3.956 0 1.978 1.978 0 013.956 0M105.962 123.548a2.017 2.017 0 11-4.034 0 2.017 2.017 0 014.034 0M98.883 123.548a2.057 2.057 0 11-4.115 0 2.057 2.057 0 014.115 0M91.802 123.548a2.095 2.095 0 11-4.19.001 2.095 2.095 0 014.19 0M135.716 203.286a.445.445 0 11-.89 0 .445.445 0 01.89 0M129.041 203.286a.89.89 0 11-1.78 0 .89.89 0 011.78 0M122.366 203.286a1.334 1.334 0 11-2.668 0 1.334 1.334 0 012.668 0M115.692 203.286a1.78 1.78 0 11-3.56 0 1.78 1.78 0 013.56 0M146.91 193.319a.249.249 0 11-.498 0 .249.249 0 01.498 0M140.039 193.319a.497.497 0 11-.994 0 .497.497 0 01.994 0M133.168 193.319a.744.744 0 11-1.489.001.744.744 0 011.489-.001M126.297 193.319a.993.993 0 11-1.986 0 .993.993 0 011.986 0M119.425 193.319a1.242 1.242 0 11-2.483 0 1.242 1.242 0 012.483 0M112.554 193.319a1.49 1.49 0 11-2.98 0 1.49 1.49 0 012.98 0M105.683 193.319a1.738 1.738 0 11-3.475 0 1.738 1.738 0 013.475 0M98.812 193.319a1.987 1.987 0 11-3.973 0 1.987 1.987 0 013.973 0M146.91 111.603a.249.249 0 11-.498 0 .249.249 0 01.498 0M140.039 111.603a.497.497 0 11-.994 0 .497.497 0 01.994 0M133.168 111.603a.744.744 0 11-1.489.002.744.744 0 011.489-.002M126.297 111.603a.994.994 0 11-1.988 0 .994.994 0 011.988 0M119.425 111.603a1.242 1.242 0 11-2.483 0 1.242 1.242 0 012.483 0M112.554 111.603a1.49 1.49 0 11-2.98 0 1.49 1.49 0 012.98 0M105.683 111.603a1.739 1.739 0 11-3.477.001 1.739 1.739 0 013.477 0M98.812 111.603a1.986 1.986 0 11-3.972.002 1.986 1.986 0 013.972-.002M135.716 101.637a.445.445 0 11-.89 0 .445.445 0 01.89 0M129.041 101.637a.89.89 0 11-1.78 0 .89.89 0 011.78 0M122.366 101.637a1.334 1.334 0 11-2.668-.001 1.334 1.334 0 012.668 0M115.692 101.637a1.78 1.78 0 11-3.56 0 1.78 1.78 0 013.56 0M141.04 61.332a2.136 2.136 0 114.272 0 2.136 2.136 0 01-4.273 0M150.65 61.332a1.068 1.068 0 112.137.001 1.068 1.068 0 01-2.137 0M141.04 71.3a2.136 2.136 0 114.272 0 2.136 2.136 0 01-4.273 0M150.65 71.3a1.068 1.068 0 112.136 0 1.068 1.068 0 01-2.136 0M163.821 61.332a2.137 2.137 0 114.274.002 2.137 2.137 0 01-4.274-.002M173.432 61.332a1.068 1.068 0 112.137.001 1.068 1.068 0 01-2.137 0M163.821 71.3a2.137 2.137 0 114.274.001 2.137 2.137 0 01-4.274-.001M173.432 71.3a1.068 1.068 0 112.136 0 1.068 1.068 0 01-2.136 0M186.603 61.332a2.136 2.136 0 114.273 0 2.136 2.136 0 01-4.273 0M196.215 61.332a1.068 1.068 0 112.136.001 1.068 1.068 0 01-2.136 0M186.603 71.3a2.136 2.136 0 114.273 0 2.136 2.136 0 01-4.273 0M196.57 71.3a.712.712 0 111.425 0 .712.712 0 01-1.424 0M206.538 71.3a2.136 2.136 0 114.272 0 2.136 2.136 0 01-4.272 0M216.15 71.3a1.068 1.068 0 112.135 0 1.068 1.068 0 01-2.136 0M229.32 71.3a2.136 2.136 0 114.273 0 2.136 2.136 0 01-4.273 0M143.373 43.178a.102.102 0 11.203 0 .102.102 0 11-.203 0M136.287 43.178a.203.203 0 11.407 0 .203.203 0 01-.407 0M129.202 43.178a.306.306 0 11.611.001.306.306 0 01-.611 0M122.116 43.178a.407.407 0 11.814 0 .407.407 0 01-.814 0M115.031 43.178a.508.508 0 111.017 0 .508.508 0 01-1.017 0M107.945 43.178a.61.61 0 111.22 0 .61.61 0 01-1.22 0M100.86 43.178a.712.712 0 111.425 0 .712.712 0 01-1.425 0M93.775 43.178a.813.813 0 111.626 0 .813.813 0 01-1.626 0M86.689 43.178a.916.916 0 111.831.001.916.916 0 01-1.831 0M79.604 43.178a1.017 1.017 0 112.033 0 1.017 1.017 0 01-2.033 0M72.518 43.178a1.119 1.119 0 112.238 0 1.119 1.119 0 01-2.238 0M65.432 43.178a1.22 1.22 0 112.44 0 1.22 1.22 0 01-2.44 0M58.347 43.178a1.322 1.322 0 112.644 0 1.322 1.322 0 01-2.644 0M51.262 43.178a1.424 1.424 0 112.847 0 1.424 1.424 0 01-2.847 0M44.176 43.178a1.525 1.525 0 113.05 0 1.525 1.525 0 01-3.05 0M202.09 43.178a1.486 1.486 0 112.972 0 1.486 1.486 0 01-2.972 0M194.816 43.178a1.58 1.58 0 113.158 0 1.58 1.58 0 01-3.158 0M187.542 43.178a1.67 1.67 0 113.341 0 1.67 1.67 0 01-3.341 0M180.267 43.178a1.764 1.764 0 113.529 0 1.764 1.764 0 01-3.529 0M172.993 43.178a1.857 1.857 0 113.714 0 1.857 1.857 0 01-3.714 0M165.719 43.178a1.95 1.95 0 113.9 0 1.95 1.95 0 01-3.9 0M158.445 43.178a2.043 2.043 0 114.086 0 2.043 2.043 0 01-4.086 0M151.17 43.178a2.136 2.136 0 114.273 0 2.136 2.136 0 01-4.272 0M184.937 51.722a.916.916 0 111.831 0 .916.916 0 01-1.831 0M177.832 51.722a.958.958 0 111.917-.002.958.958 0 01-1.917.002M170.727 51.722a1.002 1.002 0 112.004 0 1.002 1.002 0 01-2.004 0M163.622 51.722a1.046 1.046 0 112.092-.001 1.046 1.046 0 01-2.092 0M156.517 51.722a1.09 1.09 0 112.18 0 1.09 1.09 0 01-2.18 0M149.412 51.722a1.133 1.133 0 112.266-.001 1.133 1.133 0 01-2.266 0M142.307 51.722a1.177 1.177 0 112.355 0 1.177 1.177 0 01-2.355 0M135.203 51.722a1.22 1.22 0 112.441-.001 1.22 1.22 0 01-2.441 0M128.098 51.722a1.264 1.264 0 112.528 0 1.264 1.264 0 01-2.528 0M120.993 51.722a1.308 1.308 0 112.616 0 1.308 1.308 0 01-2.616 0M113.888 51.722a1.351 1.351 0 112.703 0 1.351 1.351 0 01-2.703 0M106.783 51.722a1.394 1.394 0 112.789-.002 1.394 1.394 0 01-2.789.002M99.678 51.722a1.438 1.438 0 112.877 0 1.438 1.438 0 01-2.877 0M92.573 51.722a1.483 1.483 0 112.966 0 1.483 1.483 0 01-2.966 0M85.469 51.722a1.526 1.526 0 113.05-.001 1.526 1.526 0 01-3.05 0M78.364 51.722a1.569 1.569 0 113.138 0 1.569 1.569 0 01-3.138 0M71.258 51.721a1.613 1.613 0 113.226 0 1.613 1.613 0 01-3.225 0M64.154 51.721a1.656 1.656 0 113.312.001 1.656 1.656 0 01-3.312 0M57.05 51.721a1.7 1.7 0 113.399 0 1.7 1.7 0 01-3.4 0M49.944 51.721a1.744 1.744 0 113.489.001 1.744 1.744 0 01-3.489 0M42.84 51.721a1.787 1.787 0 113.573 0 1.787 1.787 0 01-3.574 0" fill="#3493FF" fill-rule="nonzero"/><path d="M141.678 61.688a.102.102 0 11.204 0 .102.102 0 01-.204 0M134.321 61.688a.203.203 0 11.407 0 .203.203 0 01-.407 0M126.965 61.688a.306.306 0 11.61.001.306.306 0 01-.61 0M119.608 61.688a.407.407 0 11.814.001.407.407 0 01-.814 0M112.251 61.688a.508.508 0 111.016 0 .508.508 0 01-1.016 0M104.894 61.688a.61.61 0 111.22 0 .61.61 0 01-1.22 0M97.538 61.688a.712.712 0 111.423 0 .712.712 0 01-1.423 0M90.18 61.688a.813.813 0 111.627 0 .813.813 0 01-1.626 0M82.825 61.688a.915.915 0 111.83.001.915.915 0 01-1.83 0M75.468 61.688a1.017 1.017 0 112.033 0 1.017 1.017 0 01-2.034 0M68.11 61.688a1.119 1.119 0 112.239 0 1.119 1.119 0 01-2.238 0M60.754 61.688a1.22 1.22 0 112.44 0 1.22 1.22 0 01-2.44 0M53.397 61.688a1.322 1.322 0 112.645 0 1.322 1.322 0 01-2.645 0M46.04 61.688a1.424 1.424 0 112.849 0 1.424 1.424 0 01-2.848 0M136.184 71.656c0-.06.048-.106.106-.106a.106.106 0 11-.106.106M129.029 71.656a.213.213 0 11.427 0 .213.213 0 01-.427 0M121.874 71.656a.32.32 0 11.64 0 .32.32 0 01-.64 0M114.72 71.656a.427.427 0 11.853 0 .427.427 0 01-.853 0M107.564 71.656a.534.534 0 111.068 0 .534.534 0 01-1.068 0M100.41 71.656a.64.64 0 111.281 0 .64.64 0 01-1.282 0M93.254 71.656a.747.747 0 111.495-.001.747.747 0 01-1.495 0M86.099 71.656a.854.854 0 111.708 0 .854.854 0 01-1.708 0M78.944 71.656a.96.96 0 111.921-.001.96.96 0 01-1.92 0M71.79 71.656a1.068 1.068 0 112.135 0 1.068 1.068 0 01-2.136 0M64.634 71.656a1.176 1.176 0 112.351 0 1.176 1.176 0 01-2.351 0M57.48 71.656a1.281 1.281 0 112.561 0 1.281 1.281 0 01-2.562 0M50.324 71.656a1.388 1.388 0 112.777 0 1.388 1.388 0 01-2.777 0M43.17 71.656a1.495 1.495 0 112.988-.001 1.495 1.495 0 01-2.989 0M36.014 71.656a1.602 1.602 0 113.205 0 1.602 1.602 0 01-3.205 0M28.86 71.656a1.708 1.708 0 113.416 0 1.708 1.708 0 01-3.417 0M21.704 71.656a1.815 1.815 0 113.63 0 1.815 1.815 0 01-3.63 0M14.55 71.656a1.921 1.921 0 113.844 0 1.922 1.922 0 01-3.845 0M7.394 71.656a2.028 2.028 0 114.057-.001 2.028 2.028 0 01-4.057 0M.239 71.656a2.136 2.136 0 114.272 0 2.136 2.136 0 01-4.272 0M231.213 81.623a.785.785 0 111.57 0 .785.785 0 01-1.57 0M223.992 81.623a.828.828 0 111.655 0 .828.828 0 01-1.655 0M216.77 81.623a.873.873 0 111.746.001.873.873 0 01-1.745-.001M209.55 81.623a.915.915 0 111.83 0 .915.915 0 01-1.83 0M202.328 81.623a.96.96 0 111.919 0 .96.96 0 01-1.919 0M195.108 81.623a1.002 1.002 0 112.003 0 1.002 1.002 0 01-2.003 0M187.887 81.623a1.046 1.046 0 112.09 0 1.046 1.046 0 01-2.09 0M180.665 81.623a1.09 1.09 0 112.18 0 1.09 1.09 0 01-2.18 0M173.444 81.623a1.133 1.133 0 112.265 0 1.133 1.133 0 01-2.265 0M166.223 81.623a1.177 1.177 0 112.354 0 1.177 1.177 0 01-2.354 0M159.002 81.623a1.22 1.22 0 112.44 0 1.22 1.22 0 01-2.44 0M151.78 81.623a1.264 1.264 0 112.529 0 1.264 1.264 0 01-2.529 0M144.56 81.623a1.308 1.308 0 112.616 0 1.308 1.308 0 01-2.616 0M137.339 81.623a1.351 1.351 0 112.702 0 1.351 1.351 0 01-2.702 0M130.117 81.623a1.396 1.396 0 112.792.001 1.396 1.396 0 01-2.792-.001M122.896 81.623a1.438 1.438 0 112.877 0 1.438 1.438 0 01-2.877 0M115.675 81.623a1.483 1.483 0 112.965.001 1.483 1.483 0 01-2.965-.001M108.454 81.623a1.525 1.525 0 113.05 0 1.525 1.525 0 01-3.05 0M101.233 81.623a1.569 1.569 0 113.138 0 1.569 1.569 0 01-3.138 0M94.012 81.623a1.613 1.613 0 113.226 0 1.613 1.613 0 01-3.226 0M86.79 81.623a1.656 1.656 0 113.313 0 1.656 1.656 0 01-3.312 0M79.57 81.623a1.7 1.7 0 113.4 0 1.7 1.7 0 01-3.4 0M72.348 81.623a1.744 1.744 0 113.489 0 1.744 1.744 0 01-3.489 0M65.127 81.623a1.787 1.787 0 113.574 0 1.787 1.787 0 01-3.574 0M57.907 81.623a1.83 1.83 0 113.66 0 1.83 1.83 0 01-3.66 0M50.685 81.623a1.874 1.874 0 113.748 0 1.874 1.874 0 01-3.748 0M43.464 81.623a1.918 1.918 0 113.836 0 1.918 1.918 0 01-3.836 0M36.243 81.623a1.961 1.961 0 113.922 0 1.961 1.961 0 01-3.922 0M29.022 81.623a2.005 2.005 0 114.01 0 2.005 2.005 0 01-4.01 0M21.8 81.623a2.05 2.05 0 114.099 0 2.05 2.05 0 01-4.099 0M14.58 81.623a2.092 2.092 0 114.184 0 2.092 2.092 0 01-4.185 0M7.359 81.623a2.136 2.136 0 114.272 0 2.136 2.136 0 01-4.272 0M163.306 91.59c0-.054.043-.097.097-.097.054 0 .097.043.097.097a.096.096 0 01-.097.097.096.096 0 01-.097-.097M156.219 91.59a.194.194 0 11.388 0 .194.194 0 01-.388 0M149.132 91.59a.291.291 0 11.583.001.291.291 0 01-.583 0M142.045 91.59a.389.389 0 11.777.001.389.389 0 01-.777 0M134.958 91.59a.485.485 0 11.97 0 .485.485 0 01-.97 0M127.87 91.59a.583.583 0 111.166 0 .583.583 0 01-1.166 0M120.783 91.59a.68.68 0 111.362.002.68.68 0 01-1.362-.002M113.697 91.59a.777.777 0 111.554 0 .777.777 0 01-1.555 0M106.61 91.59a.874.874 0 111.748 0 .874.874 0 01-1.748 0M99.522 91.59a.971.971 0 111.943 0 .971.971 0 01-1.943 0M92.435 91.59a1.068 1.068 0 112.136 0 1.068 1.068 0 01-2.136 0M85.348 91.59a1.164 1.164 0 112.329-.001 1.164 1.164 0 01-2.329.001M78.261 91.59a1.262 1.262 0 112.524 0 1.262 1.262 0 01-2.523 0M71.174 91.59a1.36 1.36 0 112.718 0 1.36 1.36 0 01-2.718 0M64.087 91.59a1.456 1.456 0 112.913.001 1.456 1.456 0 01-2.913 0M57 91.59a1.553 1.553 0 113.105 0 1.553 1.553 0 01-3.105 0M49.913 91.59a1.65 1.65 0 113.3 0 1.65 1.65 0 01-3.3 0M42.826 91.59a1.748 1.748 0 113.496 0 1.748 1.748 0 01-3.496 0M35.739 91.59a1.845 1.845 0 113.69 0 1.845 1.845 0 01-3.69 0M234.953 91.59a1.456 1.456 0 11-2.912 0 1.456 1.456 0 012.912 0M224.76 91.59a1.553 1.553 0 113.105 0 1.553 1.553 0 01-3.106 0M217.478 91.59a1.65 1.65 0 113.3 0 1.65 1.65 0 01-3.3 0M210.197 91.59a1.748 1.748 0 113.496 0 1.748 1.748 0 01-3.496 0M202.916 91.59a1.845 1.845 0 113.69 0 1.845 1.845 0 01-3.69 0M195.635 91.59a1.942 1.942 0 113.883 0 1.942 1.942 0 01-3.883 0M188.353 91.59a2.04 2.04 0 114.079 0 2.04 2.04 0 01-4.079 0M181.072 91.59a2.136 2.136 0 114.272 0 2.136 2.136 0 01-4.272 0M230.959 101.558a.661.661 0 111.322 0 .661.661 0 01-1.322 0M223.789 101.558a.711.711 0 111.422-.002.711.711 0 01-1.422.002M216.618 101.558a.763.763 0 111.526 0 .763.763 0 01-1.526 0M209.448 101.558a.813.813 0 111.627-.002.813.813 0 01-1.627.002M202.278 101.558a.865.865 0 111.729-.001.865.865 0 01-1.73 0M195.108 101.558a.916.916 0 111.831 0 .916.916 0 01-1.831 0M187.937 101.558a.966.966 0 111.932 0 .966.966 0 01-1.932 0M180.767 101.558a1.017 1.017 0 112.034 0 1.017 1.017 0 01-2.034 0M173.597 101.558a1.068 1.068 0 112.135 0 1.068 1.068 0 01-2.135 0M166.427 101.558a1.119 1.119 0 112.238 0 1.119 1.119 0 01-2.238 0M159.256 101.558a1.17 1.17 0 112.34 0 1.17 1.17 0 01-2.34 0M152.086 101.558a1.22 1.22 0 112.441 0 1.22 1.22 0 01-2.441 0M144.916 101.558a1.27 1.27 0 112.542 0 1.27 1.27 0 01-2.542 0M137.745 101.558a1.322 1.322 0 112.645 0 1.322 1.322 0 01-2.645 0M130.575 101.558a1.373 1.373 0 112.747 0 1.373 1.373 0 01-2.747 0M123.405 101.558a1.423 1.423 0 112.847-.002 1.423 1.423 0 01-2.847.002M116.235 101.558a1.475 1.475 0 112.95 0 1.475 1.475 0 01-2.95 0M109.064 101.558a1.526 1.526 0 113.052-.001 1.526 1.526 0 01-3.052 0M101.894 101.558a1.577 1.577 0 113.154 0 1.577 1.577 0 01-3.154 0M94.724 101.558a1.627 1.627 0 113.254 0 1.627 1.627 0 01-3.254 0M87.553 101.558a1.678 1.678 0 113.356-.001 1.678 1.678 0 01-3.356 0M80.383 101.558a1.729 1.729 0 113.458 0 1.729 1.729 0 01-3.457 0M73.213 101.558a1.78 1.78 0 113.56 0 1.78 1.78 0 01-3.56 0M66.043 101.558a1.831 1.831 0 113.662 0 1.831 1.831 0 01-3.662 0M58.872 101.558a1.883 1.883 0 113.765 0 1.883 1.883 0 01-3.765 0M51.702 101.558a1.933 1.933 0 113.866 0 1.933 1.933 0 01-3.866 0M44.532 101.558a1.983 1.983 0 113.966 0 1.983 1.983 0 01-3.966 0M37.362 101.558a2.034 2.034 0 114.067 0 2.034 2.034 0 01-4.067 0M230.383 111.524a.562.562 0 111.124 0 .562.562 0 01-1.124 0M223.283 111.524a.618.618 0 111.236 0 .618.618 0 01-1.236 0M216.182 111.524a.675.675 0 111.349.001.675.675 0 01-1.35 0M209.081 111.524a.73.73 0 111.461.001.73.73 0 01-1.46 0M201.98 111.524a.787.787 0 111.575 0 .787.787 0 01-1.574 0M194.88 111.524a.843.843 0 111.686 0 .843.843 0 01-1.686 0M187.779 111.524a.899.899 0 111.798 0 .899.899 0 01-1.798 0M180.678 111.524a.957.957 0 111.914.002.957.957 0 01-1.914-.002M173.578 111.524a1.011 1.011 0 112.022 0 1.011 1.011 0 01-2.022 0M166.477 111.524a1.068 1.068 0 112.137.001 1.068 1.068 0 01-2.137 0M159.377 111.524a1.124 1.124 0 112.247 0 1.124 1.124 0 01-2.247 0M152.276 111.524a1.18 1.18 0 112.36 0 1.18 1.18 0 01-2.36 0M145.175 111.524a1.236 1.236 0 112.472 0 1.236 1.236 0 01-2.471 0M138.074 111.524a1.292 1.292 0 112.585 0 1.292 1.292 0 01-2.585 0M130.974 111.524a1.349 1.349 0 112.698 0 1.349 1.349 0 01-2.698 0M123.873 111.524a1.405 1.405 0 112.81 0 1.405 1.405 0 01-2.81 0M116.773 111.524a1.46 1.46 0 112.921 0 1.46 1.46 0 01-2.921 0M109.672 111.524a1.518 1.518 0 113.035.002 1.518 1.518 0 01-3.035-.002M102.571 111.524a1.574 1.574 0 113.149.001 1.574 1.574 0 01-3.149 0M95.47 111.524a1.63 1.63 0 113.261 0 1.63 1.63 0 01-3.26 0M88.37 111.524a1.686 1.686 0 113.372 0 1.686 1.686 0 01-3.372 0M81.27 111.524a1.742 1.742 0 113.484 0 1.742 1.742 0 01-3.485 0M74.168 111.524a1.799 1.799 0 113.598.002 1.799 1.799 0 01-3.598-.002M67.068 111.524a1.855 1.855 0 113.71.002 1.855 1.855 0 01-3.71-.002M59.967 111.524a1.91 1.91 0 113.822 0 1.91 1.91 0 01-3.822 0M104.966 121.492a.213.213 0 11.426 0 .213.213 0 01-.426 0M97.917 121.492a.427.427 0 11.854 0 .427.427 0 01-.854 0M90.87 121.492a.641.641 0 111.281 0 .641.641 0 01-1.282 0M83.821 121.492a.854.854 0 111.707-.001.854.854 0 01-1.707 0M76.773 121.492a1.068 1.068 0 112.135 0 1.068 1.068 0 01-2.135 0M69.724 121.492a1.281 1.281 0 112.563 0 1.281 1.281 0 01-2.563 0M62.676 121.492a1.495 1.495 0 112.99-.001 1.495 1.495 0 01-2.99 0M55.628 121.492a1.708 1.708 0 113.417 0 1.708 1.708 0 01-3.417 0M229.42 121.492a.776.776 0 111.552 0 .776.776 0 01-1.553 0M222.203 121.492a.874.874 0 111.748 0 .874.874 0 01-1.748 0M214.986 121.492a.971.971 0 111.943 0 .971.971 0 01-1.943 0M207.77 121.492a1.068 1.068 0 112.135 0 1.068 1.068 0 01-2.135 0M200.553 121.492a1.165 1.165 0 112.33 0 1.165 1.165 0 01-2.33 0M193.337 121.492a1.262 1.262 0 112.524 0 1.262 1.262 0 01-2.524 0M186.12 121.492a1.36 1.36 0 112.718 0 1.36 1.36 0 01-2.718 0M178.904 121.492a1.456 1.456 0 112.912 0 1.456 1.456 0 01-2.912 0M171.687 121.492a1.553 1.553 0 113.107 0 1.553 1.553 0 01-3.107 0M164.47 121.492a1.65 1.65 0 113.3-.001 1.65 1.65 0 01-3.3 0M157.254 121.492a1.749 1.749 0 113.497 0 1.749 1.749 0 01-3.497 0M150.038 121.492a1.844 1.844 0 113.688 0 1.844 1.844 0 01-3.688 0M142.821 121.492a1.941 1.941 0 113.882 0 1.941 1.941 0 01-3.882 0M135.605 121.492a2.04 2.04 0 114.078 0 2.04 2.04 0 01-4.078 0M128.388 121.492a2.136 2.136 0 114.273 0 2.136 2.136 0 01-4.273 0" fill="#3493FF" fill-rule="nonzero"/></g></svg>