<svg width="143" height="265" xmlns="http://www.w3.org/2000/svg" xmlns:xlink="http://www.w3.org/1999/xlink"><defs><path id="a" d="M.41.453h1V1h-1z"/><path id="c" d="M.41.453h1V1h-1z"/><path id="e" d="M.41.453h1V1h-1z"/></defs><g fill="none" fill-rule="evenodd" opacity=".5"><path d="M.624 251.72c.026 0 .047.022.047.049a.048.048 0 01-.047.047.048.048 0 010-.095M100.296 73.857a.639.639 0 11-.001 1.277.639.639 0 010-1.277M100.296 82.484a.555.555 0 110 1.11.555.555 0 010-1.11M100.296 91.11a.472.472 0 110 .944.472.472 0 010-.945M100.296 99.737a.389.389 0 11-.001.777.389.389 0 010-.777M100.296 108.362a.305.305 0 110 .61.305.305 0 010-.61M100.296 116.99a.222.222 0 110 .444.222.222 0 010-.445M100.296 125.615a.139.139 0 110 .278.139.139 0 010-.278M100.296 134.242c.03 0 .056.025.056.056 0 .03-.025.055-.056.055a.056.056 0 01-.056-.055c0-.03.025-.056.056-.056M90.329 4.77a1.378 1.378 0 110 2.757 1.378 1.378 0 010-2.756M90.329 13.383a1.309 1.309 0 110 2.618 1.309 1.309 0 010-2.618M90.329 21.995a1.24 1.24 0 110 2.48 1.24 1.24 0 010-2.48M90.329 30.607a1.17 1.17 0 110 2.341 1.17 1.17 0 010-2.34M90.329 39.219a1.103 1.103 0 110 2.206 1.103 1.103 0 010-2.206M90.329 73.668a.827.827 0 110 1.653.827.827 0 010-1.653M90.329 82.28a.758.758 0 110 1.517.758.758 0 010-1.517M90.329 90.893a.689.689 0 110 1.377.689.689 0 010-1.377M90.329 99.505a.62.62 0 110 1.24.62.62 0 010-1.24M90.329 108.117a.55.55 0 11.001 1.1.55.55 0 01-.001-1.1M90.329 116.729a.482.482 0 110 .964.482.482 0 010-.964M90.329 125.341a.414.414 0 110 .828.414.414 0 010-.828M90.329 133.953a.345.345 0 110 .69.345.345 0 010-.69M90.329 142.566a.276.276 0 110 .551.276.276 0 010-.551M90.329 151.178c.114 0 .207.093.207.207a.207.207 0 01-.414 0c0-.114.093-.207.207-.207M80.362 13.349a1.343 1.343 0 110 2.685 1.343 1.343 0 010-2.685M80.362 21.958a1.277 1.277 0 110 2.555 1.277 1.277 0 010-2.555M80.362 30.567a1.21 1.21 0 11-.001 2.422 1.21 1.21 0 010-2.421M80.362 39.177a1.145 1.145 0 11-.001 2.29 1.145 1.145 0 010-2.29M80.362 47.786a1.078 1.078 0 11.001 2.157 1.078 1.078 0 01-.001-2.157M80.362 56.396a1.013 1.013 0 110 2.026 1.013 1.013 0 010-2.026M80.362 65.005a.947.947 0 11-.001 1.893.947.947 0 010-1.893M80.362 73.614a.88.88 0 110 1.76.88.88 0 010-1.76M80.362 82.224a.813.813 0 110 1.629.815.815 0 110-1.63M80.362 90.833a.749.749 0 110 1.498.749.749 0 010-1.498M80.362 99.442a.682.682 0 11-.001 1.365.682.682 0 010-1.365M80.362 108.052a.616.616 0 110 1.231.616.616 0 010-1.231M80.362 116.661a.55.55 0 110 1.1.55.55 0 010-1.1M80.362 125.27a.485.485 0 11-.001.969.485.485 0 010-.97M80.362 133.88a.418.418 0 110 .835.418.418 0 010-.836M80.362 142.488a.353.353 0 11-.002.706.353.353 0 01.002-.706M70.395 47.715a1.15 1.15 0 110 2.3 1.15 1.15 0 010-2.3M70.395 56.32a1.088 1.088 0 110 2.176 1.088 1.088 0 010-2.177M70.395 64.925a1.026 1.026 0 110 2.053 1.026 1.026 0 010-2.053M70.395 73.53a.966.966 0 11-.002 1.931.966.966 0 01.002-1.932M70.395 82.135a.903.903 0 110 1.805.903.903 0 010-1.805M70.395 90.74a.842.842 0 110 1.683.842.842 0 010-1.684M70.395 99.345a.78.78 0 110 1.56.78.78 0 010-1.56M70.395 107.95a.718.718 0 110 1.436.718.718 0 010-1.437M70.395 116.554a.657.657 0 110 1.314.657.657 0 010-1.314M70.395 125.16a.595.595 0 11-.001 1.19.595.595 0 010-1.19M70.395 133.764a.534.534 0 110 1.068.534.534 0 010-1.068M70.395 142.37a.472.472 0 110 .942.472.472 0 010-.943M70.395 150.974a.411.411 0 110 .822.411.411 0 010-.822M60.427 47.73a1.136 1.136 0 110 2.271 1.136 1.136 0 010-2.271M60.427 56.335a1.072 1.072 0 11.001 2.145 1.072 1.072 0 010-2.145M60.427 64.94a1.011 1.011 0 110 2.024 1.011 1.011 0 010-2.023M60.427 73.547a.948.948 0 110 1.896.948.948 0 010-1.896M60.427 82.153a.886.886 0 110 1.771.886.886 0 010-1.772M60.427 90.758a.823.823 0 110 1.646.823.823 0 010-1.646M60.427 99.364a.761.761 0 110 1.523.761.761 0 010-1.523M60.427 107.97a.698.698 0 110 1.396.698.698 0 010-1.396M60.427 116.575a.635.635 0 110 1.271.635.635 0 010-1.27M60.427 125.182a.574.574 0 110 1.147.574.574 0 010-1.147M60.427 133.787a.51.51 0 110 1.021.51.51 0 010-1.02M60.427 142.393a.448.448 0 110 .896.448.448 0 010-.896M60.427 151a.385.385 0 110 .77.385.385 0 010-.77M50.46 47.809a1.057 1.057 0 110 2.114 1.057 1.057 0 010-2.114M50.46 56.42a.989.989 0 110 1.976.989.989 0 010-1.977M50.46 65.03a.922.922 0 110 1.844.922.922 0 010-1.845M50.46 73.64a.854.854 0 110 1.708.854.854 0 010-1.707M50.46 82.251a.787.787 0 110 1.574.787.787 0 010-1.574M50.46 90.862a.72.72 0 11.001 1.44.72.72 0 01-.001-1.44M50.46 99.473a.652.652 0 110 1.304.652.652 0 010-1.304M50.46 108.083a.584.584 0 110 1.169.584.584 0 010-1.169M50.46 116.695a.516.516 0 11.001 1.032.516.516 0 01-.001-1.032M50.46 125.305a.45.45 0 110 .9.45.45 0 010-.9M50.46 133.916a.382.382 0 110 .764.382.382 0 010-.764M50.46 142.526a.315.315 0 110 .63.315.315 0 010-.63M50.46 151.137a.248.248 0 110 .496.248.248 0 010-.496M100.296 138.57a2.136 2.136 0 110 4.27 2.136 2.136 0 010-4.27M100.296 148.18a1.068 1.068 0 110 2.136 1.068 1.068 0 010-2.135M140.876.653a1.699 1.699 0 110 3.397 1.699 1.699 0 010-3.397M140.876 9.259a1.636 1.636 0 110 3.272 1.636 1.636 0 010-3.272M140.876 17.865a1.573 1.573 0 11.001 3.145 1.573 1.573 0 010-3.145M140.876 26.47a1.511 1.511 0 110 3.023 1.511 1.511 0 010-3.022M140.876 35.076a1.448 1.448 0 11.001 2.896 1.448 1.448 0 010-2.896M140.876 43.682a1.386 1.386 0 110 2.772 1.386 1.386 0 010-2.772M140.876 52.288a1.323 1.323 0 110 2.647 1.323 1.323 0 010-2.647M140.876 60.894a1.26 1.26 0 110 2.522 1.26 1.26 0 010-2.522M140.876 69.5a1.198 1.198 0 110 2.396 1.198 1.198 0 010-2.397M140.876 78.106a1.136 1.136 0 110 2.271 1.136 1.136 0 010-2.271M140.876 86.711a1.072 1.072 0 11.002 2.145 1.072 1.072 0 01-.001-2.145M140.876 95.317a1.01 1.01 0 11.001 2.022 1.01 1.01 0 010-2.022M140.876 103.923a.949.949 0 11-.001 1.897.949.949 0 01.001-1.897M140.876 112.528a.886.886 0 110 1.772.886.886 0 010-1.772M140.876 121.135a.822.822 0 11.002 1.644.822.822 0 01-.001-1.644M140.876 129.74a.761.761 0 110 1.523.761.761 0 010-1.523M140.876 138.346a.697.697 0 11.002 1.395.697.697 0 01-.001-1.395M140.876 146.952a.635.635 0 11.002 1.271.635.635 0 01-.001-1.27M140.876 155.558a.574.574 0 110 1.147.574.574 0 010-1.147M140.876 164.163a.511.511 0 110 1.023.511.511 0 010-1.023M140.876 172.77a.447.447 0 11.002.894.447.447 0 01-.001-.894M140.876 181.375a.386.386 0 110 .773.386.386 0 010-.773M140.876 189.98a.323.323 0 110 .646.323.323 0 010-.645M140.876 198.587a.26.26 0 11.001.521.26.26 0 010-.52M140.876 207.192a.198.198 0 010 .397.198.198 0 110-.397M140.876 215.798c.076 0 .136.062.136.136 0 .075-.06.135-.136.135a.134.134 0 01-.135-.135c0-.074.06-.136.135-.136M140.876 224.404c.041 0 .073.032.073.073 0 .04-.032.073-.073.073a.073.073 0 01-.072-.073c0-.04.032-.073.072-.073M140.876 233.01c.006 0 .01.005.01.01 0 .007-.004.01-.01.01a.01.01 0 01-.01-.01c0-.005.005-.01.01-.01M130.91 6.306a1.74 1.74 0 110 3.48 1.74 1.74 0 010-3.48M130.91 14.906a1.684 1.684 0 110 3.368 1.684 1.684 0 010-3.368M130.91 23.506a1.628 1.628 0 11-.002 3.255 1.628 1.628 0 01.002-3.255M130.91 32.106a1.571 1.571 0 110 3.142 1.571 1.571 0 010-3.142M130.91 40.705a1.516 1.516 0 11-.002 3.032 1.516 1.516 0 01.002-3.032M130.91 49.305a1.459 1.459 0 11-.001 2.917 1.459 1.459 0 010-2.917M130.91 57.904a1.402 1.402 0 11-.001 2.805 1.402 1.402 0 010-2.805M130.91 66.504a1.346 1.346 0 11-.002 2.691 1.346 1.346 0 01.002-2.69M130.91 75.105a1.289 1.289 0 110 2.577 1.289 1.289 0 010-2.577M130.91 83.704a1.232 1.232 0 110 2.464 1.232 1.232 0 010-2.464M130.91 92.304a1.176 1.176 0 110 2.352 1.176 1.176 0 010-2.352M130.91 100.903a1.12 1.12 0 110 2.239 1.12 1.12 0 010-2.239M130.91 109.503a1.064 1.064 0 11-.002 2.128 1.064 1.064 0 01.002-2.128M130.91 118.103a1.006 1.006 0 11-.001 2.012 1.006 1.006 0 010-2.012M130.91 126.703a.95.95 0 110 1.9.95.95 0 010-1.9M130.91 135.303a.894.894 0 110 1.789.894.894 0 010-1.79M130.91 143.903a.837.837 0 11-.001 1.674.837.837 0 010-1.674M130.91 152.502a.781.781 0 11-.001 1.563.781.781 0 010-1.563M130.91 161.102a.724.724 0 110 1.448.724.724 0 010-1.448M130.91 169.701a.669.669 0 11-.001 1.337.669.669 0 010-1.337M130.91 178.3a.612.612 0 11-.002 1.224.612.612 0 01.002-1.223M130.91 186.901a.555.555 0 110 1.11.555.555 0 010-1.11M130.91 195.501a.499.499 0 110 .998.499.499 0 010-.998M130.91 204.1a.442.442 0 110 .885.442.442 0 010-.884M130.91 212.7a.385.385 0 11-.001.771.385.385 0 010-.77M130.91 221.3a.329.329 0 11-.33.329.33.33 0 01.33-.329M130.91 229.9a.272.272 0 11-.001.545.272.272 0 010-.545M130.91 238.5a.216.216 0 11-.001.433.216.216 0 010-.433M130.91 247.1a.16.16 0 11-.16.159c0-.088.07-.16.16-.16M130.91 255.7c.057 0 .103.045.103.103a.103.103 0 11-.103-.104" fill="#3493FF" fill-rule="nonzero"/><g transform="translate(130 263.393)"><mask id="b" fill="#fff"><use xlink:href="#a"/></mask><use fill="#3493FF" fill-rule="nonzero" xlink:href="#a"/><path d="M.91.906A.047.047 0 11.91 1a.047.047 0 010-.094" fill="#3493FF" fill-rule="nonzero" mask="url(#b)"/></g><path d="M120.942 222.988a.064.064 0 010 .13.063.063 0 01-.064-.066c0-.035.028-.064.064-.064M120.942 214.381c.071 0 .128.058.128.129a.128.128 0 11-.257 0 .13.13 0 01.13-.129M120.942 205.774a.193.193 0 110 .386.193.193 0 010-.386M120.942 197.166a.257.257 0 110 .514.257.257 0 010-.514M120.942 188.558a.322.322 0 110 .645.322.322 0 010-.645M120.942 179.95a.386.386 0 110 .773.386.386 0 010-.773M120.942 171.343a.45.45 0 11.002.9.45.45 0 01-.002-.9M120.942 162.736a.515.515 0 110 1.03.515.515 0 010-1.03M120.942 154.127a.58.58 0 110 1.16.58.58 0 010-1.16M120.942 145.52a.644.644 0 110 1.288.644.644 0 010-1.288M120.942 136.912a.708.708 0 110 1.416.708.708 0 010-1.416M120.942 128.304a.773.773 0 11-.001 1.545.773.773 0 01.001-1.545M120.942 119.696a.837.837 0 110 1.675.837.837 0 010-1.675M120.942 111.089a.9.9 0 11.001 1.801.9.9 0 010-1.801M120.942 102.482a.966.966 0 110 1.932.966.966 0 010-1.932M120.942 93.873a1.03 1.03 0 110 2.061 1.03 1.03 0 010-2.06M120.942 85.266a1.095 1.095 0 110 2.19 1.095 1.095 0 010-2.19M120.942 76.658a1.16 1.16 0 110 2.319 1.16 1.16 0 010-2.319M120.942 68.05a1.225 1.225 0 110 2.45 1.225 1.225 0 010-2.45M120.942 59.443a1.288 1.288 0 110 2.576 1.288 1.288 0 010-2.576M120.942 50.835a1.352 1.352 0 110 2.704 1.352 1.352 0 010-2.704M120.942 42.228a1.417 1.417 0 110 2.833 1.417 1.417 0 010-2.833M120.942 33.62a1.48 1.48 0 110 2.962 1.48 1.48 0 010-2.962M120.942 25.012a1.545 1.545 0 11.001 3.09 1.545 1.545 0 010-3.09M120.942 16.404a1.61 1.61 0 110 3.22 1.61 1.61 0 010-3.22M120.942 7.796a1.675 1.675 0 110 3.35 1.675 1.675 0 010-3.35M110.975 84.79a.147.147 0 110 .294.147.147 0 010-.295M110.975 76.099a.294.294 0 110 .588.294.294 0 010-.588M110.975 67.408a.441.441 0 11.002.883.441.441 0 01-.002-.883M110.975 58.718a.59.59 0 110 1.179.59.59 0 010-1.18M110.975 50.028a.735.735 0 110 1.473.736.736 0 010-1.473M110.975 41.336a.884.884 0 110 1.769.884.884 0 010-1.769M110.975 32.646a1.032 1.032 0 110 2.063 1.032 1.032 0 010-2.063M110.975 23.955a1.177 1.177 0 11.001 2.355 1.177 1.177 0 010-2.355M110.975 15.264a1.326 1.326 0 110 2.653 1.326 1.326 0 010-2.653M110.975 6.574a1.474 1.474 0 11-.001 2.947 1.474 1.474 0 01.001-2.947M101.008 84.79a.147.147 0 11-.147.147c0-.082.065-.148.147-.148M101.008 76.099a.294.294 0 110 .588.294.294 0 010-.588M.624 251.72c.026 0 .047.022.047.049a.048.048 0 01-.047.047.048.048 0 010-.095M100.296 73.857a.639.639 0 11-.001 1.277.639.639 0 010-1.277M100.296 82.484a.555.555 0 110 1.11.555.555 0 010-1.11M100.296 91.11a.472.472 0 110 .944.472.472 0 010-.945M100.296 99.737a.389.389 0 11-.001.777.389.389 0 010-.777M100.296 108.362a.305.305 0 110 .61.305.305 0 010-.61M100.296 116.99a.222.222 0 110 .444.222.222 0 010-.445M100.296 125.615a.139.139 0 110 .278.139.139 0 010-.278M100.296 134.242c.03 0 .056.025.056.056 0 .03-.025.055-.056.055a.056.056 0 01-.056-.055c0-.03.025-.056.056-.056M90.329 4.77a1.378 1.378 0 110 2.757 1.378 1.378 0 010-2.756M90.329 13.383a1.309 1.309 0 110 2.618 1.309 1.309 0 010-2.618M90.329 21.995a1.24 1.24 0 110 2.48 1.24 1.24 0 010-2.48M90.329 30.607a1.17 1.17 0 110 2.341 1.17 1.17 0 010-2.34M90.329 39.219a1.103 1.103 0 110 2.206 1.103 1.103 0 010-2.206M90.329 73.668a.827.827 0 110 1.653.827.827 0 010-1.653M90.329 82.28a.758.758 0 110 1.517.758.758 0 010-1.517M90.329 90.893a.689.689 0 110 1.377.689.689 0 010-1.377M90.329 99.505a.62.62 0 110 1.24.62.62 0 010-1.24M90.329 108.117a.55.55 0 11.001 1.1.55.55 0 01-.001-1.1M90.329 116.729a.482.482 0 110 .964.482.482 0 010-.964M90.329 125.341a.414.414 0 110 .828.414.414 0 010-.828M90.329 133.953a.345.345 0 110 .69.345.345 0 010-.69M90.329 142.566a.276.276 0 110 .551.276.276 0 010-.551M90.329 151.178c.114 0 .207.093.207.207a.207.207 0 01-.414 0c0-.114.093-.207.207-.207M80.362 13.349a1.343 1.343 0 110 2.685 1.343 1.343 0 010-2.685M80.362 21.958a1.277 1.277 0 110 2.555 1.277 1.277 0 010-2.555M80.362 30.567a1.21 1.21 0 11-.001 2.422 1.21 1.21 0 010-2.421M80.362 39.177a1.145 1.145 0 11-.001 2.29 1.145 1.145 0 010-2.29M80.362 47.786a1.078 1.078 0 11.001 2.157 1.078 1.078 0 01-.001-2.157M80.362 56.396a1.013 1.013 0 110 2.026 1.013 1.013 0 010-2.026M80.362 65.005a.947.947 0 11-.001 1.893.947.947 0 010-1.893M80.362 73.614a.88.88 0 110 1.76.88.88 0 010-1.76M80.362 82.224a.813.813 0 110 1.629.815.815 0 110-1.63M80.362 90.833a.749.749 0 110 1.498.749.749 0 010-1.498M80.362 99.442a.682.682 0 11-.001 1.365.682.682 0 010-1.365M80.362 108.052a.616.616 0 110 1.231.616.616 0 010-1.231M80.362 116.661a.55.55 0 110 1.1.55.55 0 010-1.1M80.362 125.27a.485.485 0 11-.001.969.485.485 0 010-.97M80.362 133.88a.418.418 0 110 .835.418.418 0 010-.836M80.362 142.488a.353.353 0 11-.002.706.353.353 0 01.002-.706M70.395 47.715a1.15 1.15 0 110 2.3 1.15 1.15 0 010-2.3M70.395 56.32a1.088 1.088 0 110 2.176 1.088 1.088 0 010-2.177M70.395 64.925a1.026 1.026 0 110 2.053 1.026 1.026 0 010-2.053M70.395 73.53a.966.966 0 11-.002 1.931.966.966 0 01.002-1.932M70.395 82.135a.903.903 0 110 1.805.903.903 0 010-1.805M70.395 90.74a.842.842 0 110 1.683.842.842 0 010-1.684M70.395 99.345a.78.78 0 110 1.56.78.78 0 010-1.56M70.395 107.95a.718.718 0 110 1.436.718.718 0 010-1.437M70.395 116.554a.657.657 0 110 1.314.657.657 0 010-1.314M70.395 125.16a.595.595 0 11-.001 1.19.595.595 0 010-1.19M70.395 133.764a.534.534 0 110 1.068.534.534 0 010-1.068M70.395 142.37a.472.472 0 110 .942.472.472 0 010-.943M70.395 150.974a.411.411 0 110 .822.411.411 0 010-.822M60.427 47.73a1.136 1.136 0 110 2.271 1.136 1.136 0 010-2.271M60.427 56.335a1.072 1.072 0 11.001 2.145 1.072 1.072 0 010-2.145M60.427 64.94a1.011 1.011 0 110 2.024 1.011 1.011 0 010-2.023M60.427 73.547a.948.948 0 110 1.896.948.948 0 010-1.896M60.427 82.153a.886.886 0 110 1.771.886.886 0 010-1.772M60.427 90.758a.823.823 0 110 1.646.823.823 0 010-1.646M60.427 99.364a.761.761 0 110 1.523.761.761 0 010-1.523M60.427 107.97a.698.698 0 110 1.396.698.698 0 010-1.396M60.427 116.575a.635.635 0 110 1.271.635.635 0 010-1.27M60.427 125.182a.574.574 0 110 1.147.574.574 0 010-1.147M60.427 133.787a.51.51 0 110 1.021.51.51 0 010-1.02M60.427 142.393a.448.448 0 110 .896.448.448 0 010-.896M60.427 151a.385.385 0 110 .77.385.385 0 010-.77M50.46 47.809a1.057 1.057 0 110 2.114 1.057 1.057 0 010-2.114M50.46 56.42a.989.989 0 110 1.976.989.989 0 010-1.977M50.46 65.03a.922.922 0 110 1.844.922.922 0 010-1.845M50.46 73.64a.854.854 0 110 1.708.854.854 0 010-1.707M50.46 82.251a.787.787 0 110 1.574.787.787 0 010-1.574M50.46 90.862a.72.72 0 11.001 1.44.72.72 0 01-.001-1.44M50.46 99.473a.652.652 0 110 1.304.652.652 0 010-1.304M50.46 108.083a.584.584 0 110 1.169.584.584 0 010-1.169M50.46 116.695a.516.516 0 11.001 1.032.516.516 0 01-.001-1.032M50.46 125.305a.45.45 0 110 .9.45.45 0 010-.9M50.46 133.916a.382.382 0 110 .764.382.382 0 010-.764M50.46 142.526a.315.315 0 110 .63.315.315 0 010-.63M50.46 151.137a.248.248 0 110 .496.248.248 0 010-.496M100.296 138.57a2.136 2.136 0 110 4.27 2.136 2.136 0 010-4.27M100.296 148.18a1.068 1.068 0 110 2.136 1.068 1.068 0 010-2.135M140.876.653a1.699 1.699 0 110 3.397 1.699 1.699 0 010-3.397M140.876 9.259a1.636 1.636 0 110 3.272 1.636 1.636 0 010-3.272M140.876 17.865a1.573 1.573 0 11.001 3.145 1.573 1.573 0 010-3.145M140.876 26.47a1.511 1.511 0 110 3.023 1.511 1.511 0 010-3.022M140.876 35.076a1.448 1.448 0 11.001 2.896 1.448 1.448 0 010-2.896M140.876 43.682a1.386 1.386 0 110 2.772 1.386 1.386 0 010-2.772M140.876 52.288a1.323 1.323 0 110 2.647 1.323 1.323 0 010-2.647M140.876 60.894a1.26 1.26 0 110 2.522 1.26 1.26 0 010-2.522M140.876 69.5a1.198 1.198 0 110 2.396 1.198 1.198 0 010-2.397M140.876 78.106a1.136 1.136 0 110 2.271 1.136 1.136 0 010-2.271M140.876 86.711a1.072 1.072 0 11.002 2.145 1.072 1.072 0 01-.001-2.145M140.876 95.317a1.01 1.01 0 11.001 2.022 1.01 1.01 0 010-2.022M140.876 103.923a.949.949 0 11-.001 1.897.949.949 0 01.001-1.897M140.876 112.528a.886.886 0 110 1.772.886.886 0 010-1.772M140.876 121.135a.822.822 0 11.002 1.644.822.822 0 01-.001-1.644M140.876 129.74a.761.761 0 110 1.523.761.761 0 010-1.523M140.876 138.346a.697.697 0 11.002 1.395.697.697 0 01-.001-1.395M140.876 146.952a.635.635 0 11.002 1.271.635.635 0 01-.001-1.27M140.876 155.558a.574.574 0 110 1.147.574.574 0 010-1.147M140.876 164.163a.511.511 0 110 1.023.511.511 0 010-1.023M140.876 172.77a.447.447 0 11.002.894.447.447 0 01-.001-.894M140.876 181.375a.386.386 0 110 .773.386.386 0 010-.773M140.876 189.98a.323.323 0 110 .646.323.323 0 010-.645M140.876 198.587a.26.26 0 11.001.521.26.26 0 010-.52M140.876 207.192a.198.198 0 010 .397.198.198 0 110-.397M140.876 215.798c.076 0 .136.062.136.136 0 .075-.06.135-.136.135a.134.134 0 01-.135-.135c0-.074.06-.136.135-.136M140.876 224.404c.041 0 .073.032.073.073 0 .04-.032.073-.073.073a.073.073 0 01-.072-.073c0-.04.032-.073.072-.073M140.876 233.01c.006 0 .01.005.01.01 0 .007-.004.01-.01.01a.01.01 0 01-.01-.01c0-.005.005-.01.01-.01M130.91 6.306a1.74 1.74 0 110 3.48 1.74 1.74 0 010-3.48M130.91 14.906a1.684 1.684 0 110 3.368 1.684 1.684 0 010-3.368M130.91 23.506a1.628 1.628 0 11-.002 3.255 1.628 1.628 0 01.002-3.255M130.91 32.106a1.571 1.571 0 110 3.142 1.571 1.571 0 010-3.142M130.91 40.705a1.516 1.516 0 11-.002 3.032 1.516 1.516 0 01.002-3.032M130.91 49.305a1.459 1.459 0 11-.001 2.917 1.459 1.459 0 010-2.917M130.91 57.904a1.402 1.402 0 11-.001 2.805 1.402 1.402 0 010-2.805M130.91 66.504a1.346 1.346 0 11-.002 2.691 1.346 1.346 0 01.002-2.69M130.91 75.105a1.289 1.289 0 110 2.577 1.289 1.289 0 010-2.577M130.91 83.704a1.232 1.232 0 110 2.464 1.232 1.232 0 010-2.464M130.91 92.304a1.176 1.176 0 110 2.352 1.176 1.176 0 010-2.352M130.91 100.903a1.12 1.12 0 110 2.239 1.12 1.12 0 010-2.239M130.91 109.503a1.064 1.064 0 11-.002 2.128 1.064 1.064 0 01.002-2.128M130.91 118.103a1.006 1.006 0 11-.001 2.012 1.006 1.006 0 010-2.012M130.91 126.703a.95.95 0 110 1.9.95.95 0 010-1.9M130.91 135.303a.894.894 0 110 1.789.894.894 0 010-1.79M130.91 143.903a.837.837 0 11-.001 1.674.837.837 0 010-1.674M130.91 152.502a.781.781 0 11-.001 1.563.781.781 0 010-1.563M130.91 161.102a.724.724 0 110 1.448.724.724 0 010-1.448M130.91 169.701a.669.669 0 11-.001 1.337.669.669 0 010-1.337M130.91 178.3a.612.612 0 11-.002 1.224.612.612 0 01.002-1.223M130.91 186.901a.555.555 0 110 1.11.555.555 0 010-1.11M130.91 195.501a.499.499 0 110 .998.499.499 0 010-.998M130.91 204.1a.442.442 0 110 .885.442.442 0 010-.884M130.91 212.7a.385.385 0 11-.001.771.385.385 0 010-.77M130.91 221.3a.329.329 0 11-.33.329.33.33 0 01.33-.329M130.91 229.9a.272.272 0 11-.001.545.272.272 0 010-.545M130.91 238.5a.216.216 0 11-.001.433.216.216 0 010-.433M130.91 247.1a.16.16 0 11-.16.159c0-.088.07-.16.16-.16M130.91 255.7c.057 0 .103.045.103.103a.103.103 0 11-.103-.104" fill="#3493FF" fill-rule="nonzero"/><g transform="translate(130 263.393)"><mask id="d" fill="#fff"><use xlink:href="#c"/></mask><use fill="#3493FF" fill-rule="nonzero" xlink:href="#c"/><path d="M.91.906A.047.047 0 11.91 1a.047.047 0 010-.094" fill="#3493FF" fill-rule="nonzero" mask="url(#d)"/></g><path d="M120.942 222.988a.064.064 0 010 .13.063.063 0 01-.064-.066c0-.035.028-.064.064-.064M120.942 214.381c.071 0 .128.058.128.129a.128.128 0 11-.257 0 .13.13 0 01.13-.129M120.942 205.774a.193.193 0 110 .386.193.193 0 010-.386M120.942 197.166a.257.257 0 110 .514.257.257 0 010-.514M120.942 188.558a.322.322 0 110 .645.322.322 0 010-.645M120.942 179.95a.386.386 0 110 .773.386.386 0 010-.773M120.942 171.343a.45.45 0 11.002.9.45.45 0 01-.002-.9M120.942 162.736a.515.515 0 110 1.03.515.515 0 010-1.03M120.942 154.127a.58.58 0 110 1.16.58.58 0 010-1.16M120.942 145.52a.644.644 0 110 1.288.644.644 0 010-1.288M120.942 136.912a.708.708 0 110 1.416.708.708 0 010-1.416M120.942 128.304a.773.773 0 11-.001 1.545.773.773 0 01.001-1.545M120.942 119.696a.837.837 0 110 1.675.837.837 0 010-1.675M120.942 111.089a.9.9 0 11.001 1.801.9.9 0 010-1.801M120.942 102.482a.966.966 0 110 1.932.966.966 0 010-1.932M120.942 93.873a1.03 1.03 0 110 2.061 1.03 1.03 0 010-2.06M120.942 85.266a1.095 1.095 0 110 2.19 1.095 1.095 0 010-2.19M120.942 76.658a1.16 1.16 0 110 2.319 1.16 1.16 0 010-2.319M120.942 68.05a1.225 1.225 0 110 2.45 1.225 1.225 0 010-2.45M120.942 59.443a1.288 1.288 0 110 2.576 1.288 1.288 0 010-2.576M120.942 50.835a1.352 1.352 0 110 2.704 1.352 1.352 0 010-2.704M120.942 42.228a1.417 1.417 0 110 2.833 1.417 1.417 0 010-2.833M120.942 33.62a1.48 1.48 0 110 2.962 1.48 1.48 0 010-2.962M120.942 25.012a1.545 1.545 0 11.001 3.09 1.545 1.545 0 010-3.09M120.942 16.404a1.61 1.61 0 110 3.22 1.61 1.61 0 010-3.22M120.942 7.796a1.675 1.675 0 110 3.35 1.675 1.675 0 010-3.35M110.975 84.79a.147.147 0 110 .294.147.147 0 010-.295M110.975 76.099a.294.294 0 110 .588.294.294 0 010-.588M110.975 67.408a.441.441 0 11.002.883.441.441 0 01-.002-.883M110.975 58.718a.59.59 0 110 1.179.59.59 0 010-1.18M110.975 50.028a.735.735 0 110 1.473.736.736 0 010-1.473M110.975 41.336a.884.884 0 110 1.769.884.884 0 010-1.769M110.975 32.646a1.032 1.032 0 110 2.063 1.032 1.032 0 010-2.063M110.975 23.955a1.177 1.177 0 11.001 2.355 1.177 1.177 0 010-2.355M110.975 15.264a1.326 1.326 0 110 2.653 1.326 1.326 0 010-2.653M110.975 6.574a1.474 1.474 0 11-.001 2.947 1.474 1.474 0 01.001-2.947M101.008 84.79a.147.147 0 11-.147.147c0-.082.065-.148.147-.148M101.008 76.099a.294.294 0 110 .588.294.294 0 010-.588M.624 251.72c.026 0 .047.022.047.049a.048.048 0 01-.047.047.048.048 0 010-.095M100.296 73.857a.639.639 0 11-.001 1.277.639.639 0 010-1.277M100.296 82.484a.555.555 0 110 1.11.555.555 0 010-1.11M100.296 91.11a.472.472 0 110 .944.472.472 0 010-.945M100.296 99.737a.389.389 0 11-.001.777.389.389 0 010-.777M100.296 108.362a.305.305 0 110 .61.305.305 0 010-.61M100.296 116.99a.222.222 0 110 .444.222.222 0 010-.445M100.296 125.615a.139.139 0 110 .278.139.139 0 010-.278M100.296 134.242c.03 0 .056.025.056.056 0 .03-.025.055-.056.055a.056.056 0 01-.056-.055c0-.03.025-.056.056-.056M90.329 4.77a1.378 1.378 0 110 2.757 1.378 1.378 0 010-2.756M90.329 13.383a1.309 1.309 0 110 2.618 1.309 1.309 0 010-2.618M90.329 21.995a1.24 1.24 0 110 2.48 1.24 1.24 0 010-2.48M90.329 30.607a1.17 1.17 0 110 2.341 1.17 1.17 0 010-2.34M90.329 39.219a1.103 1.103 0 110 2.206 1.103 1.103 0 010-2.206M90.329 73.668a.827.827 0 110 1.653.827.827 0 010-1.653M90.329 82.28a.758.758 0 110 1.517.758.758 0 010-1.517M90.329 90.893a.689.689 0 110 1.377.689.689 0 010-1.377M90.329 99.505a.62.62 0 110 1.24.62.62 0 010-1.24M90.329 108.117a.55.55 0 11.001 1.1.55.55 0 01-.001-1.1M90.329 116.729a.482.482 0 110 .964.482.482 0 010-.964M90.329 125.341a.414.414 0 110 .828.414.414 0 010-.828M90.329 133.953a.345.345 0 110 .69.345.345 0 010-.69M90.329 142.566a.276.276 0 110 .551.276.276 0 010-.551M90.329 151.178c.114 0 .207.093.207.207a.207.207 0 01-.414 0c0-.114.093-.207.207-.207M80.362 13.349a1.343 1.343 0 110 2.685 1.343 1.343 0 010-2.685M80.362 21.958a1.277 1.277 0 110 2.555 1.277 1.277 0 010-2.555M80.362 30.567a1.21 1.21 0 11-.001 2.422 1.21 1.21 0 010-2.421M80.362 39.177a1.145 1.145 0 11-.001 2.29 1.145 1.145 0 010-2.29M80.362 47.786a1.078 1.078 0 11.001 2.157 1.078 1.078 0 01-.001-2.157M80.362 56.396a1.013 1.013 0 110 2.026 1.013 1.013 0 010-2.026M80.362 65.005a.947.947 0 11-.001 1.893.947.947 0 010-1.893M80.362 73.614a.88.88 0 110 1.76.88.88 0 010-1.76M80.362 82.224a.813.813 0 110 1.629.815.815 0 110-1.63M80.362 90.833a.749.749 0 110 1.498.749.749 0 010-1.498M80.362 99.442a.682.682 0 11-.001 1.365.682.682 0 010-1.365M80.362 108.052a.616.616 0 110 1.231.616.616 0 010-1.231M80.362 116.661a.55.55 0 110 1.1.55.55 0 010-1.1M80.362 125.27a.485.485 0 11-.001.969.485.485 0 010-.97M80.362 133.88a.418.418 0 110 .835.418.418 0 010-.836M80.362 142.488a.353.353 0 11-.002.706.353.353 0 01.002-.706M70.395 47.715a1.15 1.15 0 110 2.3 1.15 1.15 0 010-2.3M70.395 56.32a1.088 1.088 0 110 2.176 1.088 1.088 0 010-2.177M70.395 64.925a1.026 1.026 0 110 2.053 1.026 1.026 0 010-2.053M70.395 73.53a.966.966 0 11-.002 1.931.966.966 0 01.002-1.932M70.395 82.135a.903.903 0 110 1.805.903.903 0 010-1.805M70.395 90.74a.842.842 0 110 1.683.842.842 0 010-1.684M70.395 99.345a.78.78 0 110 1.56.78.78 0 010-1.56M70.395 107.95a.718.718 0 110 1.436.718.718 0 010-1.437M70.395 116.554a.657.657 0 110 1.314.657.657 0 010-1.314M70.395 125.16a.595.595 0 11-.001 1.19.595.595 0 010-1.19M70.395 133.764a.534.534 0 110 1.068.534.534 0 010-1.068M70.395 142.37a.472.472 0 110 .942.472.472 0 010-.943M70.395 150.974a.411.411 0 110 .822.411.411 0 010-.822M60.427 47.73a1.136 1.136 0 110 2.271 1.136 1.136 0 010-2.271M60.427 56.335a1.072 1.072 0 11.001 2.145 1.072 1.072 0 010-2.145M60.427 64.94a1.011 1.011 0 110 2.024 1.011 1.011 0 010-2.023M60.427 73.547a.948.948 0 110 1.896.948.948 0 010-1.896M60.427 82.153a.886.886 0 110 1.771.886.886 0 010-1.772M60.427 90.758a.823.823 0 110 1.646.823.823 0 010-1.646M60.427 99.364a.761.761 0 110 1.523.761.761 0 010-1.523M60.427 107.97a.698.698 0 110 1.396.698.698 0 010-1.396M60.427 116.575a.635.635 0 110 1.271.635.635 0 010-1.27M60.427 125.182a.574.574 0 110 1.147.574.574 0 010-1.147M60.427 133.787a.51.51 0 110 1.021.51.51 0 010-1.02M60.427 142.393a.448.448 0 110 .896.448.448 0 010-.896M60.427 151a.385.385 0 110 .77.385.385 0 010-.77M50.46 47.809a1.057 1.057 0 110 2.114 1.057 1.057 0 010-2.114M50.46 56.42a.989.989 0 110 1.976.989.989 0 010-1.977M50.46 65.03a.922.922 0 110 1.844.922.922 0 010-1.845M50.46 73.64a.854.854 0 110 1.708.854.854 0 010-1.707M50.46 82.251a.787.787 0 110 1.574.787.787 0 010-1.574M50.46 90.862a.72.72 0 11.001 1.44.72.72 0 01-.001-1.44M50.46 99.473a.652.652 0 110 1.304.652.652 0 010-1.304M50.46 108.083a.584.584 0 110 1.169.584.584 0 010-1.169M50.46 116.695a.516.516 0 11.001 1.032.516.516 0 01-.001-1.032M50.46 125.305a.45.45 0 110 .9.45.45 0 010-.9M50.46 133.916a.382.382 0 110 .764.382.382 0 010-.764M50.46 142.526a.315.315 0 110 .63.315.315 0 010-.63M50.46 151.137a.248.248 0 110 .496.248.248 0 010-.496M100.296 138.57a2.136 2.136 0 110 4.27 2.136 2.136 0 010-4.27M100.296 148.18a1.068 1.068 0 110 2.136 1.068 1.068 0 010-2.135M140.876.653a1.699 1.699 0 110 3.397 1.699 1.699 0 010-3.397M140.876 9.259a1.636 1.636 0 110 3.272 1.636 1.636 0 010-3.272M140.876 17.865a1.573 1.573 0 11.001 3.145 1.573 1.573 0 010-3.145M140.876 26.47a1.511 1.511 0 110 3.023 1.511 1.511 0 010-3.022M140.876 35.076a1.448 1.448 0 11.001 2.896 1.448 1.448 0 010-2.896M140.876 43.682a1.386 1.386 0 110 2.772 1.386 1.386 0 010-2.772M140.876 52.288a1.323 1.323 0 110 2.647 1.323 1.323 0 010-2.647M140.876 60.894a1.26 1.26 0 110 2.522 1.26 1.26 0 010-2.522M140.876 69.5a1.198 1.198 0 110 2.396 1.198 1.198 0 010-2.397M140.876 78.106a1.136 1.136 0 110 2.271 1.136 1.136 0 010-2.271M140.876 86.711a1.072 1.072 0 11.002 2.145 1.072 1.072 0 01-.001-2.145M140.876 95.317a1.01 1.01 0 11.001 2.022 1.01 1.01 0 010-2.022M140.876 103.923a.949.949 0 11-.001 1.897.949.949 0 01.001-1.897M140.876 112.528a.886.886 0 110 1.772.886.886 0 010-1.772M140.876 121.135a.822.822 0 11.002 1.644.822.822 0 01-.001-1.644M140.876 129.74a.761.761 0 110 1.523.761.761 0 010-1.523M140.876 138.346a.697.697 0 11.002 1.395.697.697 0 01-.001-1.395M140.876 146.952a.635.635 0 11.002 1.271.635.635 0 01-.001-1.27M140.876 155.558a.574.574 0 110 1.147.574.574 0 010-1.147M140.876 164.163a.511.511 0 110 1.023.511.511 0 010-1.023M140.876 172.77a.447.447 0 11.002.894.447.447 0 01-.001-.894M140.876 181.375a.386.386 0 110 .773.386.386 0 010-.773M140.876 189.98a.323.323 0 110 .646.323.323 0 010-.645M140.876 198.587a.26.26 0 11.001.521.26.26 0 010-.52M140.876 207.192a.198.198 0 010 .397.198.198 0 110-.397M140.876 215.798c.076 0 .136.062.136.136 0 .075-.06.135-.136.135a.134.134 0 01-.135-.135c0-.074.06-.136.135-.136M140.876 224.404c.041 0 .073.032.073.073 0 .04-.032.073-.073.073a.073.073 0 01-.072-.073c0-.04.032-.073.072-.073M140.876 233.01c.006 0 .01.005.01.01 0 .007-.004.01-.01.01a.01.01 0 01-.01-.01c0-.005.005-.01.01-.01M130.91 6.306a1.74 1.74 0 110 3.48 1.74 1.74 0 010-3.48M130.91 14.906a1.684 1.684 0 110 3.368 1.684 1.684 0 010-3.368M130.91 23.506a1.628 1.628 0 11-.002 3.255 1.628 1.628 0 01.002-3.255M130.91 32.106a1.571 1.571 0 110 3.142 1.571 1.571 0 010-3.142M130.91 40.705a1.516 1.516 0 11-.002 3.032 1.516 1.516 0 01.002-3.032M130.91 49.305a1.459 1.459 0 11-.001 2.917 1.459 1.459 0 010-2.917M130.91 57.904a1.402 1.402 0 11-.001 2.805 1.402 1.402 0 010-2.805M130.91 66.504a1.346 1.346 0 11-.002 2.691 1.346 1.346 0 01.002-2.69M130.91 75.105a1.289 1.289 0 110 2.577 1.289 1.289 0 010-2.577M130.91 83.704a1.232 1.232 0 110 2.464 1.232 1.232 0 010-2.464M130.91 92.304a1.176 1.176 0 110 2.352 1.176 1.176 0 010-2.352M130.91 100.903a1.12 1.12 0 110 2.239 1.12 1.12 0 010-2.239M130.91 109.503a1.064 1.064 0 11-.002 2.128 1.064 1.064 0 01.002-2.128M130.91 118.103a1.006 1.006 0 11-.001 2.012 1.006 1.006 0 010-2.012M130.91 126.703a.95.95 0 110 1.9.95.95 0 010-1.9M130.91 135.303a.894.894 0 110 1.789.894.894 0 010-1.79M130.91 143.903a.837.837 0 11-.001 1.674.837.837 0 010-1.674M130.91 152.502a.781.781 0 11-.001 1.563.781.781 0 010-1.563M130.91 161.102a.724.724 0 110 1.448.724.724 0 010-1.448M130.91 169.701a.669.669 0 11-.001 1.337.669.669 0 010-1.337M130.91 178.3a.612.612 0 11-.002 1.224.612.612 0 01.002-1.223M130.91 186.901a.555.555 0 110 1.11.555.555 0 010-1.11M130.91 195.501a.499.499 0 110 .998.499.499 0 010-.998M130.91 204.1a.442.442 0 110 .885.442.442 0 010-.884M130.91 212.7a.385.385 0 11-.001.771.385.385 0 010-.77M130.91 221.3a.329.329 0 11-.33.329.33.33 0 01.33-.329M130.91 229.9a.272.272 0 11-.001.545.272.272 0 010-.545M130.91 238.5a.216.216 0 11-.001.433.216.216 0 010-.433M130.91 247.1a.16.16 0 11-.16.159c0-.088.07-.16.16-.16M130.91 255.7c.057 0 .103.045.103.103a.103.103 0 11-.103-.104" fill="#3493FF" fill-rule="nonzero"/><g transform="translate(130 263.393)"><mask id="f" fill="#fff"><use xlink:href="#e"/></mask><use fill="#3493FF" fill-rule="nonzero" xlink:href="#e"/><path d="M.91.906A.047.047 0 11.91 1a.047.047 0 010-.094" fill="#3493FF" fill-rule="nonzero" mask="url(#f)"/></g><path d="M120.942 222.988a.064.064 0 010 .13.063.063 0 01-.064-.066c0-.035.028-.064.064-.064M120.942 214.381c.071 0 .128.058.128.129a.128.128 0 11-.257 0 .13.13 0 01.13-.129M120.942 205.774a.193.193 0 110 .386.193.193 0 010-.386M120.942 197.166a.257.257 0 110 .514.257.257 0 010-.514M120.942 188.558a.322.322 0 110 .645.322.322 0 010-.645M120.942 179.95a.386.386 0 110 .773.386.386 0 010-.773M120.942 171.343a.45.45 0 11.002.9.45.45 0 01-.002-.9M120.942 162.736a.515.515 0 110 1.03.515.515 0 010-1.03M120.942 154.127a.58.58 0 110 1.16.58.58 0 010-1.16M120.942 145.52a.644.644 0 110 1.288.644.644 0 010-1.288M120.942 136.912a.708.708 0 110 1.416.708.708 0 010-1.416M120.942 128.304a.773.773 0 11-.001 1.545.773.773 0 01.001-1.545M120.942 119.696a.837.837 0 110 1.675.837.837 0 010-1.675M120.942 111.089a.9.9 0 11.001 1.801.9.9 0 010-1.801M120.942 102.482a.966.966 0 110 1.932.966.966 0 010-1.932M120.942 93.873a1.03 1.03 0 110 2.061 1.03 1.03 0 010-2.06M120.942 85.266a1.095 1.095 0 110 2.19 1.095 1.095 0 010-2.19M120.942 76.658a1.16 1.16 0 110 2.319 1.16 1.16 0 010-2.319M120.942 68.05a1.225 1.225 0 110 2.45 1.225 1.225 0 010-2.45M120.942 59.443a1.288 1.288 0 110 2.576 1.288 1.288 0 010-2.576M120.942 50.835a1.352 1.352 0 110 2.704 1.352 1.352 0 010-2.704M120.942 42.228a1.417 1.417 0 110 2.833 1.417 1.417 0 010-2.833M120.942 33.62a1.48 1.48 0 110 2.962 1.48 1.48 0 010-2.962M120.942 25.012a1.545 1.545 0 11.001 3.09 1.545 1.545 0 010-3.09M120.942 16.404a1.61 1.61 0 110 3.22 1.61 1.61 0 010-3.22M120.942 7.796a1.675 1.675 0 110 3.35 1.675 1.675 0 010-3.35M110.975 84.79a.147.147 0 110 .294.147.147 0 010-.295M110.975 76.099a.294.294 0 110 .588.294.294 0 010-.588M110.975 67.408a.441.441 0 11.002.883.441.441 0 01-.002-.883M110.975 58.718a.59.59 0 110 1.179.59.59 0 010-1.18M110.975 50.028a.735.735 0 110 1.473.736.736 0 010-1.473M110.975 41.336a.884.884 0 110 1.769.884.884 0 010-1.769M110.975 32.646a1.032 1.032 0 110 2.063 1.032 1.032 0 010-2.063M110.975 23.955a1.177 1.177 0 11.001 2.355 1.177 1.177 0 010-2.355M110.975 15.264a1.326 1.326 0 110 2.653 1.326 1.326 0 010-2.653M110.975 6.574a1.474 1.474 0 11-.001 2.947 1.474 1.474 0 01.001-2.947M101.008 84.79a.147.147 0 11-.147.147c0-.082.065-.148.147-.148M101.008 76.099a.294.294 0 110 .588.294.294 0 010-.588" fill="#3493FF" fill-rule="nonzero"/></g></svg>