<?xml version="1.0" standalone="no"?>
<!DOCTYPE svg PUBLIC "-//W3C//DTD SVG 1.1//EN" "http://www.w3.org/Graphics/SVG/1.1/DTD/svg11.dtd" >
<!--
2013-9-30: Created.
-->
<svg>
<metadata>
Created by iconfont
</metadata>
<defs>

<font id="iconfont" horiz-adv-x="1024" >
  <font-face
    font-family="iconfont"
    font-weight="500"
    font-stretch="normal"
    units-per-em="1024"
    ascent="896"
    descent="-128"
  />
    <missing-glyph />
    
    <glyph glyph-name="warn" unicode="&#58880;" d="M512 800C400.882 800 296.416 756.7280000000001 217.844 678.156 139.272 599.5840000000001 96 495.118 96 384 96 272.88199999999995 139.272 168.41600000000005 217.844 89.84400000000005 296.416 11.272000000000048 400.882-32 512-32 623.118-32 727.584 11.272000000000048 806.156 89.84400000000005 884.728 168.41600000000005 928 272.88199999999995 928 384 928 495.118 884.728 599.5840000000001 806.156 678.156 727.584 756.7280000000001 623.118 800 512 800ZM512 896L512 896C794.77 896 1024 666.77 1024 384 1024 101.23000000000002 794.77-128 512-128 229.23-128 0 101.23000000000002 0 384 0 666.77 229.23 896 512 896ZM448 192L576 192 576 64 448 64zM448 704L576 704 576 320 448 320z"  horiz-adv-x="1024" />

    
    <glyph glyph-name="right" unicode="&#58915;" d="M296.751 767.212c12.879 12.858 33.733 12.858 46.609 0l392.34-358.352c6.885-6.865 9.79-15.95 9.342-24.905 0.449-8.956-2.453-18.061-9.342-24.905l-392.34-358.352c-12.876-12.834-33.729-12.834-46.609 0-12.876 12.835-12.876 33.667 0 46.505l368.697 336.757-368.697 336.775c-12.878 12.834-12.878 33.645 0 46.479z"  horiz-adv-x="1025" />

    
    <glyph glyph-name="search" unicode="&#58896;" d="M948.032-6.784l-206.976 206.976C797.696 267.072 832 353.472 832 448c0 212.064-171.936 384-384 384S64 660.064 64 448s171.936-384 384-384c94.528 0 180.928 34.304 247.808 90.912l206.976-206.976c14.016-14.016 35.488-15.232 48-2.72C963.264-42.272 962.048-20.8 948.032-6.784zM448 128C271.264 128 128 271.264 128 448S271.264 768 448 768s320-143.264 320-320S624.736 128 448 128z"  horiz-adv-x="1024" />

    
    <glyph glyph-name="shopping" unicode="&#58939;" d="M932.68783 339.03285600000004L932.68783 621.174748c0 16.020882-12.053524 29.007661-26.923186 29.007661l-652.037407 0.684592-25.382087 87.215364c-6.013971 20.665669-28.418236 32.651654-51.786457 28.729322l-78.534658 0c-20.169365 0-36.519752-23.223934-36.519752-51.872415 0-28.64848 16.349363-51.872415 36.519752-51.872415l51.961442 0 140.956336-484.33901c3.710508-12.750395 13.663184-22.195511 26.228361-26.644847 4.669346-2.00261 9.727549-3.107781 15.015995-3.107781l554.566468 0c23.438828 0 42.441625 21.535479 42.441625 48.101531 0 26.564006-19.001773 48.099485-42.441625 48.099485L667.228899 245.17623500000002l238.536768 64.84896C920.634306 310.02519500000005 932.68783 323.011974 932.68783 339.03285600000004zM838.548776 376.8256L380.286678 246.51881200000003c-4.114714 0-7.800663 1.943258-10.339486 5.01113l-89.163739 306.373783c1.308809 6.783497 6.885827 11.880585 13.571087 11.880585l544.051997-0.980327c7.656377 0 13.863752-6.687306 13.863752-14.937201l0.143263-162.106028C852.412528 383.51290600000004 846.206176 376.8256 838.548776 376.8256zM409.784502 12.960428999999976m-74.507948 0a72.811 72.811 0 1 1 149.015895 0 72.811 72.811 0 1 1-149.015895 0ZM791.736611 13.121087999999986m-74.507948 0a72.811 72.811 0 1 1 149.015895 0 72.811 72.811 0 1 1-149.015895 0Z"  horiz-adv-x="1024" />

    
    <glyph glyph-name="copyright" unicode="&#59093;" d="M678.61318 482.17088l-33.552164-21.125133c-28.999474 38.523385-68.765153 57.784054-119.296013 57.784054-39.764656 0-73.113181-12.737092-100.033297-38.2123-26.930349-25.475208-40.387849-57.066717-40.387849-94.754061 0-37.697577 13.251815-70.007447 39.765679-96.928586 26.503631-26.930349 60.054771-40.386826 100.655468-40.386826 48.463782 0 88.22946 19.260669 119.296013 57.783031l33.552164-22.367427c-16.572444-24.02723-38.83447-42.463114-66.793242-55.29742s-58.095139-19.261693-90.403986-19.261693c-50.949392 0-93.50972 16.776082-127.684054 50.328245s-51.260477 74.346265-51.260477 122.402771c0 48.872081 17.290805 90.609671 51.881624 125.199467 34.580586 34.58161 79.006402 51.881624 133.275399 51.881624 31.891338 0 61.404512-6.835685 88.539522-20.503986C643.29479 525.043317 664.108838 506.189923 678.61318 482.17088zM510.5423 703.715649c-176.401616 0-319.40354-143.002948-319.40354-319.404564 0-176.403662 143.001925-319.40354 319.40354-319.40354 176.404686 0 319.404564 142.999878 319.404564 319.40354C829.946864 560.7127009999999 686.946986 703.715649 510.5423 703.715649zM510.543324 113.54733499999998c-149.539828 0-270.764773 121.223922-270.764773 270.76375 0 149.537781 121.224945 270.764773 270.764773 270.764773 149.538805 0 270.76375-121.226992 270.76375-270.764773C781.307074 234.771257 660.082128 113.54733499999998 510.543324 113.54733499999998z"  horiz-adv-x="1024" />

    
    <glyph glyph-name="user" unicode="&#59203;" d="M837.914838 121.235434c0 27.980261-10.703783 52.738132-31.607882 68.308759-58.392922 39.787168-104.661711 64.805982-186.714496 100.475366-20.726044 7.637957-34.792411 27.450189-34.792411 50.726312 0 16.423041 7.087419 31.924083 19.368116 41.012066 73.433476 54.32221 83.992973 214.32125 83.992973 214.32125 0 94.293573-76.738755 170.732499-171.511235 170.732499-94.770434 0-172.122149-76.5607-172.122149-170.854273 0 0 4.312212-123.051547 51.780317-178.942485l0.004093 0c9.496282-13.553691 19.436678-25.414833 31.737842-35.378765 11.610432-9.925047 19.295462-24.52865 19.295462-40.951691 0-23.280216-14.644535-43.060725-35.370579-50.698682-68.563562-28.569686-126.814244-59.249429-188.084703-100.460016-20.904099-15.569604-34.46086-40.320311-34.46086-68.300572 0-39.774889 27.398-73.092715 64.401776-82.573647 0 0 95.646384-40.135092 256.966513-40.135092 160.177096 0 256.967536 40.078811 256.967536 40.11872l0 0.020466C804.176432 48.137603 837.914838 81.460546 837.914838 121.235434L837.914838 121.235434zM837.914838 121.235434"  horiz-adv-x="1024" />

    
    <glyph glyph-name="eye-open" unicode="&#58882;" d="M512 656C178.704 656 12.304 412.128 5.376 401.744c-7.168-10.752-7.168-24.752 0-35.504C12.304 355.87199999999996 178.704 112 512 112s499.696 243.872 506.624 254.256c7.168 10.752 7.168 24.752 0 35.504C1011.696 412.128 845.296 656 512 656zM512 176C263.888 176 115.744 330.84799999999996 72.192 384.064 115.6 437.392 262.976 592 512 592c248.112 0 396.256-154.848 439.808-208.064C908.4 330.60799999999995 761.024 176 512 176zM512 528c-79.408 0-144-64.608-144-144s64.592-144 144-144 144 64.608 144 144S591.408 528 512 528zM512 304c-44.112 0-80 35.888-80 80s35.888 80 80 80 80-35.888 80-80S556.112 304 512 304z"  horiz-adv-x="1024" />

    
    <glyph glyph-name="fabu" unicode="&#58917;" d="M956.6 762.7l-62.9 62.9c-8.5 8.5-22.6 8.5-31.2-0.2l-61.2-61.2c-8.8-8.8-8.8-22.7-0.2-31.2l62.9-62.9c8.5-8.5 22.6-8.5 31.2 0.2l61.2 61.2c8.8 8.8 8.8 22.7 0.2 31.2zM378.6 325.2l-19.7-81c-2.9-11.9 4.4-19.3 16.4-16.4l80.9 19.7c11.9 2.9 14.7 12.2 6.1 20.8l-62.9 62.9c-8.5 8.5-17.9 5.9-20.8-6zM895.8 3.2c0-12.4-10-22.4-22.4-22.4h-739.2c-12.4 0-22.4 10-22.4 22.4v739.2c0 12.4 10 22.4 22.4 22.4h515.2l44.8 44.8h-560c-37.1 0-67.2-30.1-67.2-67.2v-739.2c0-37.1 30.1-67.2 67.2-67.2h739.2c37.1 0 67.2 30.1 67.2 67.2v582.4l-44.8-44.8v-537.6zM414.8 346.7l62.9-62.9c8.5-8.5 22.5-8.5 31.2 0.2l339.4 339.4c8.6 8.6 8.7 22.6 0.2 31.2l-62.9 62.9c-8.5 8.5-22.5 8.5-31.2-0.2l-339.4-339.4c-8.7-8.6-8.8-22.6-0.2-31.2z"  horiz-adv-x="1024" />

    
    <glyph glyph-name="no-network" unicode="&#59238;" d="M515.746341 60.565853999999945c-34.965854 0-62.439024-27.473171-62.439024-62.439025 0-33.717073 27.473171-61.190244 62.439024-61.190244s62.439024 27.473171 62.439025 61.190244c0 34.965854-28.721951 62.439024-62.439025 62.439025zM128.62439 662.478049c-39.960976-23.726829-78.673171-51.2-114.887805-82.419512-16.234146-13.736585-17.482927-38.712195-3.746341-54.946342 13.736585-16.234146 38.712195-17.482927 54.946341-3.746341 37.463415 32.468293 77.42439 59.941463 119.882927 83.668292l-56.195122 57.443903zM1010.263415 580.058537C871.64878 699.941463 695.570732 766.126829 512 766.126829c-78.673171 0-157.346341-12.487805-231.02439-36.214634l62.439024-63.687805c54.946341 13.736585 112.390244 21.229268 169.834146 21.229269 164.839024 0 323.434146-58.692683 447.063415-166.087805 7.492683-6.243902 16.234146-9.990244 24.97561-9.990244 11.239024 0 21.229268 4.995122 29.970732 13.736585 12.487805 16.234146 11.239024 41.209756-4.995122 54.946342zM295.960976 492.643902c-51.2-22.478049-99.902439-52.44878-142.360976-91.160975-16.234146-13.736585-17.482927-38.712195-2.497561-54.946342 14.985366-16.234146 38.712195-17.482927 54.946341-2.497561 43.707317 38.712195 94.907317 68.682927 148.604879 88.663415l-58.692683 59.941463zM505.756098 535.102439c-11.239024 0-22.478049 0-33.717074-1.24878l77.424391-78.673171c94.907317-8.741463 184.819512-48.702439 257.24878-112.390244 7.492683-6.243902 16.234146-9.990244 26.22439-9.990244 11.239024 0 21.229268 4.995122 28.721952 12.487805 14.985366 16.234146 12.487805 41.209756-2.497561 54.946341-97.404878 87.414634-223.531707 134.868293-353.404878 134.868293zM569.443902 212.91707299999996l-84.917073 86.165854c-66.185366-4.995122-129.873171-31.219512-179.82439-77.42439-16.234146-14.985366-17.482927-38.712195-2.497561-54.946342 14.985366-16.234146 38.712195-17.482927 54.946342-2.497561 41.209756 37.463415 93.658537 57.443902 148.604878 57.443903 22.478049 0 43.707317-2.497561 63.687804-8.741464zM112.390244 823.570732C102.4 833.560976 87.414634 833.560976 78.673171 824.819512c-8.741463-8.741463-9.990244-23.726829 0-32.468292l679.336585-691.824391c4.995122-4.995122 11.239024-7.492683 16.234146-7.492683 6.243902 0 11.239024 2.497561 16.234147 6.243903 8.741463 8.741463 9.990244 23.726829 0 32.468292L112.390244 823.570732z"  horiz-adv-x="1024" />

    
    <glyph glyph-name="close" unicode="&#58898;" d="M568 380.992l254.016 255.008q12 11.008 12 27.488t-11.488 28-28 11.488-27.488-12l-255.008-254.016-255.008 254.016q-11.008 12-27.488 12t-28-11.488-11.488-28 12-27.488l254.016-255.008-254.016-255.008q-12-11.008-12-27.488t11.488-28 28-11.488 27.488 12l255.008 255.008 255.008-255.008q11.008-12 27.488-12t28 11.488 11.488 28-12 27.488z"  horiz-adv-x="1024" />

    
    <glyph glyph-name="prompt" unicode="&#58940;" d="M512 832C262.4 832 64 633.6 64 384s198.4-448 448-448 448 198.4 448 448-198.4 448-448 448z m51.2-716.8c0-32-19.2-51.2-51.2-51.2s-51.2 19.2-51.2 51.2V409.6c0 32 19.2 51.2 51.2 51.2s51.2-19.2 51.2-51.2v-294.4z m25.6 486.4c0-44.8-38.4-76.8-76.8-76.8s-76.8 32-76.8 76.8 32 83.2 76.8 83.2 76.8-38.4 76.8-83.2z"  horiz-adv-x="1024" />

    
    <glyph glyph-name="add" unicode="&#59065;" d="M512.006144 832.0020480000001C264.568832 832.0020480000001 64 631.42912 64 384.012288c0-247.433216 200.568832-448.014336 448.006144-448.014336 247.425024 0 447.993856 200.58112 447.993856 448.014336 0 247.416832-200.568832 447.98976-447.993856 447.98976z m0-855.303168c-224.958464 0-407.297024 182.35904-407.297024 407.313408 0 224.946176 182.33856 407.297024 407.297024 407.297024 224.950272 0 407.30112-182.350848 407.30112-407.297024 0-224.954368-182.350848-407.313408-407.30112-407.313408zM552.96 587.7760000000001h-81.92v-162.816H308.224v-81.92h162.816v-162.816h81.92V343.03999999999996h162.816v81.92H552.96V587.7760000000001z"  horiz-adv-x="1024" />

    
    <glyph glyph-name="hamburger" unicode="&#59146;" d="M177.50016 588.8h614.4a20.48 20.48 0 1 1 0 40.96h-614.4a20.48 20.48 0 1 1 0-40.96zM177.50016 138.24h614.4a20.48 20.48 0 1 1 0 40.96h-614.4a20.48 20.48 0 1 1 0-40.96zM177.50016 363.52h614.4a20.48 20.48 0 1 1 0 40.96h-614.4a20.48 20.48 0 1 1 0-40.96z"  horiz-adv-x="1024" />

    
    <glyph glyph-name="left" unicode="&#58899;" d="M688.4 0c-6.5 0-13 2.5-17.9 7.4L321.9 356c-15.5 15.5-15.5 40.6 0 56.1l348.5 348.5c9.9 9.9 25.9 9.9 35.8 0 9.9-9.9 9.9-25.9 0-35.8L365.5 384l340.8-340.8c9.9-9.9 9.9-25.9 0-35.8-5-4.9-11.5-7.4-17.9-7.4z"  horiz-adv-x="1024" />

    
    <glyph glyph-name="fullscreen" unicode="&#59372;" d="M290 659.6l43.9 43.9c4.7 4.7 1.9 12.8-4.7 13.6L169 736c-5.1 0.6-9.5-3.7-8.9-8.9L179 566.9c0.8-6.6 8.9-9.4 13.6-4.7l43.7 43.7L370 472.3c3.1-3.1 8.2-3.1 11.3 0l42.4 42.3c3.1 3.1 3.1 8.2 0 11.3L290 659.6zM642.7 472.3c3.1-3.1 8.2-3.1 11.3 0l133.7 133.6 43.7-43.7c4.7-4.7 12.8-1.9 13.6 4.7L863.9 727c0.6 5.1-3.7 9.5-8.9 8.9L694.8 717c-6.6-0.8-9.4-8.9-4.7-13.6l43.9-43.9L600.3 526c-3.1-3.1-3.1-8.2 0-11.3l42.4-42.4zM845 201.1c-0.8 6.6-8.9 9.4-13.6 4.7l-43.7-43.7L654 295.7c-3.1 3.1-8.2 3.1-11.3 0l-42.4-42.3c-3.1-3.1-3.1-8.2 0-11.3L734 108.4l-43.9-43.9c-4.7-4.7-1.9-12.8 4.7-13.6L855 32c5.1-0.6 9.5 3.7 8.9 8.9L845 201.1zM381.3 295.7c-3.1 3.1-8.2 3.1-11.3 0L236.3 162.1l-43.7 43.7c-4.7 4.7-12.8 1.9-13.6-4.7L160.1 41c-0.6-5.1 3.7-9.5 8.9-8.9L329.2 51c6.6 0.8 9.4 8.9 4.7 13.6L290 108.4 423.7 242c3.1 3.1 3.1 8.2 0 11.3l-42.4 42.4z"  horiz-adv-x="1024" />

    
    <glyph glyph-name="fullscreen-exit" unicode="&#59373;" d="M391 655.1c-0.8 6.6-8.9 9.4-13.6 4.7l-43.7-43.7L200 749.7c-3.1 3.1-8.2 3.1-11.3 0l-42.4-42.3c-3.1-3.1-3.1-8.2 0-11.3L280 562.4l-43.9-43.9c-4.7-4.7-1.9-12.8 4.7-13.6L401 486c5.1-0.6 9.5 3.7 8.9 8.9L391 655.1zM401.1 281.9L240.8 263c-6.6-0.8-9.4-8.9-4.7-13.6l43.9-43.9L146.3 72c-3.1-3.1-3.1-8.2 0-11.3l42.4-42.3c3.1-3.1 8.2-3.1 11.3 0L333.7 152l43.7-43.7c4.7-4.7 12.8-1.9 13.6 4.7l18.9 160.1c0.6 5.1-3.7 9.4-8.8 8.8zM622.9 486.1L783.2 505c6.6 0.8 9.4 8.9 4.7 13.6L744 562.4 877.7 696c3.1 3.1 3.1 8.2 0 11.3l-42.4 42.3c-3.1 3.1-8.2 3.1-11.3 0L690.3 616.1l-43.7 43.7c-4.7 4.7-12.8 1.9-13.6-4.7L614.1 495c-0.6-5.2 3.7-9.5 8.8-8.9zM744 205.6l43.9 43.9c4.7 4.7 1.9 12.8-4.7 13.6L623 282c-5.1 0.6-9.5-3.7-8.9-8.9L633 112.9c0.8-6.6 8.9-9.4 13.6-4.7l43.7 43.7L824 18.3c3.1-3.1 8.2-3.1 11.3 0l42.4 42.3c3.1 3.1 3.1 8.2 0 11.3L744 205.6z"  horiz-adv-x="1024" />

    
    <glyph glyph-name="del" unicode="&#58904;" d="M790.864 577.904c0.72-8.832 1.136-17.808 1.136-26.896v-444.16c0-73.04-35.824-138.8-112-138.8h-336c-76.176 0-112 65.776-112 138.8v444.16a235.104 235.104 0 0 0 1.68 26.896H176v111.04l168 0.128V710.4c0 49.472 45.84 89.6 102.4 89.6h131.2c56.56 0 102.4-40.112 102.4-89.6v-20.592l168-0.736v-111.168h-57.136zM624 710.4c0 18.464-21.248 34.064-46.4 34.064h-131.2c-25.152 0-46.4-15.6-46.4-34.064v-21.344h224V710.4z m112-159.408a190.4 190.4 0 0 1-1.872 26.896H289.888a188.544 188.544 0 0 1-1.888-26.88v-444.16c0-42.592 10.72-83.28 56-83.28h336c45.344 0 56 40.704 56 83.28v444.16z m-112-28.336h56v-443.728H624V522.672z m-140 0h56v-443.728h-56V522.672z m-140 0H400v-443.728h-56V522.672z"  horiz-adv-x="1024" />

    
    <glyph glyph-name="money" unicode="&#58881;" d="M463.3-62.3V123.9H228.8v77.5h234.5v80.5H228.8v83.5H420L191.5 768h113.7L469 475.4c18.2-33.4 32.4-62.4 42.7-86.9 9 19.8 24.6 50.5 46.8 92.1L713.9 768h120.8L605.5 365.4h192.9v-83.5H564.9v-80.5h233.5v-77.5H564.9v-186.2H463.3z"  horiz-adv-x="1024" />

    
    <glyph glyph-name="eye" unicode="&#58884;" d="M941.677 504.29c9.338 14.006 6.225 32.681-6.225 43.575-14.006 10.894-32.681 7.781-43.575-6.225-1.557-1.556-174.3-205.426-379.728-205.426-199.2 0-379.727 205.426-381.283 206.982-10.895 12.45-31.125 14.006-43.576 3.113-12.45-10.894-14.006-31.125-3.113-43.576 3.113-4.668 40.463-46.687 99.6-93.375l-79.37-82.482c-12.45-12.45-10.893-32.681 1.557-43.575 3.113-6.225 10.894-9.338 18.676-9.338 7.78 0 15.562 3.113 21.787 9.338l85.594 88.706c40.463-28.013 88.707-54.47 141.62-73.144l-32.682-110.495c-4.668-17.118 4.67-34.237 21.788-38.906h9.337c14.006 0 26.457 9.338 29.569 23.344l32.681 110.495c24.9-4.669 51.357-7.782 77.813-7.782s52.913 3.113 77.814 7.782l32.68-108.939c3.114-14.006 17.12-23.343 29.57-23.343 3.113 0 6.225 0 7.782 1.556 17.118 4.67 26.456 21.787 21.788 38.906L649.099 300.42c52.914 18.676 101.157 45.132 141.62 73.144l84.038-87.15c6.225-6.225 14.006-9.338 21.787-9.338 7.781 0 15.563 3.113 21.787 9.337 12.45 12.451 12.45 31.125 1.557 43.576l-79.37 82.481c63.808 46.689 101.16 91.82 101.16 91.82z"  horiz-adv-x="1024" />

    
    <glyph glyph-name="home" unicode="&#58933;" d="M733.915429-44.83657100000005l-14.848 0.073142-374.491429 0.073143c-95.890286 0-171.008 54.857143-171.008 124.854857v235.52a36.571429 36.571429 0 0 0 73.142857 0v-235.593142c0-24.429714 41.837714-51.712 97.865143-51.712l375.149714-0.073143c30.354286-0.512 61.366857-0.512 71.606857 9.581714 6.290286 6.290286 9.728 21.211429 9.728 42.203429a36.571429 36.571429 0 0 0 73.142858 0c0-42.349714-10.313143-73.142857-31.378286-94.134858-28.452571-28.086857-68.608-30.793143-108.909714-30.793142zM923.428571 375.73485700000003a36.132571 36.132571 0 0 0-26.477714 11.410286L597.723429 702.244571a116.882286 116.882286 0 0 1-85.284572 37.522286h-0.292571c-32.402286 0-62.902857-13.312-85.942857-37.595428L127.122286 387.145143a36.644571 36.644571 0 0 0-51.712-1.389714 36.644571 36.644571 0 0 0-1.389715 51.712l299.154286 315.099428a190.610286 190.610286 0 0 0 138.971429 60.342857h0.438857a189.001143 189.001143 0 0 0 138.24-60.416l299.081143-314.953143a36.571429 36.571429 0 0 0-26.477715-61.805714zM406.674286 99.84000000000003V331.922286c0 34.962286 27.136 63.341714 60.562285 63.341714H574.171429c33.133714 0 59.977143-28.452571 59.977142-63.341714v-232.082286"  horiz-adv-x="1024" />

    
    <glyph glyph-name="pwd" unicode="&#59333;" d="M544.865 202.05499999999995v-73.29h-63.73v73.29c-19.117 9.561-31.865 31.865-31.865 54.17 0 35.053 28.681 63.73 63.73 63.73 35.053 0 63.73-28.677 63.73-63.73 0-22.306-12.744-44.61-31.865-54.17zM768.333 447.791l-0.184 128.212c0 108.34-147.527 192.361-255.866 192.361S256.05 684.343 256.05 576.004l0.184-128.212h-64.012v-447.431h640.124v447.43h-64.013zM319.996 576.004c0 73.29 115.53 128.631 188.816 128.631 73.29 0 193.695-55.341 193.695-128.631l1.53-128.212H319.963l0.033 128.212z m448.337-511.725H256.234V384.992l513.046-0.586-0.947-320.127z"  horiz-adv-x="1024" />

    
    <glyph glyph-name="hand-pointer" unicode="&#59635;" d="M365.714286 822.857143q-30.285714 0-51.714286-21.428572T292.571429 749.714286v-512L206.285714 353.14285700000005q-23.428571 30.857143-61.142857 30.857143-29.714286 0-50.857143-21.714286t-21.142857-51.428571q0-24.571429 14.857143-44l219.428571-292.571429q21.714286-29.142857 58.285715-29.142857h410.285714q12.571429 0 22.571429 7.714286t12.857142 19.714286l52.571429 210.285714q13.714286 54.857143 13.714286 110.857143V417.714286q0 23.428571-16 40.571428t-38.857143 17.142857-38.857143-16-16-38.857142h-18.285714v34.857142q0 27.428571-18.285715 46.571429t-45.714285 19.142857q-26.285714 0-45.142857-18.857143t-18.857143-45.142857v-36.571428h-18.285715v51.428571q0 31.428571-21.142857 54T530.285714 548.5714290000001q-30.285714 0-51.714285-21.428572T457.142857 475.428571v-54.857142h-18.285714V746.285714q0 31.428571-21.142857 54T365.714286 822.857143z m0 73.142857q61.142857 0 103.714285-44.285714T512 746.285714v-125.714285q12.571429 1.142857 18.285714 1.142857 56.571429 0 98.857143-39.428572 26.857143 12 56.571429 12 64.571429 0 105.142857-49.714285 15.428571 4 32 4 53.714286 0 90.857143-38.571429t37.142857-92.285714v-124q0-66.285714-16-128.571429l-52.571429-210.285714q-9.142857-36.571429-38.857143-59.714286t-67.428571-23.142857H365.714286q-34.285714 0-65.428572 15.714286T248.571429-69.71428600000002L29.142857 222.85714299999995q-29.142857 38.857143-29.142857 88 0 60 42.571429 103.142857T145.142857 457.142857q40.571429 0 74.285714-20V749.714286q0 60.571429 42.857143 103.428571T365.714286 896z m73.142857-804.571429v219.428572h-18.285714v-219.428572h18.285714z m146.285714 0v219.428572h-18.285714v-219.428572h18.285714z m146.285714 0v219.428572h-18.285714v-219.428572h18.285714z"  horiz-adv-x="1024" />

    
    <glyph glyph-name="workspace" unicode="&#58928;" d="M11.890619 335.158085l289.525612-129.392453 559.250499 523.687567-490.85963-564.544554 371.343547-149.824946c8.948712-3.398751 19.168956 1.3595 22.367781 10.899995v0.67975L1023.646842 895.624138 10.61109 369.20157600000005c-8.956709-4.774246-12.147536-15.666243-8.316944-25.198741 2.55906-4.086498 5.757884-7.493247 9.596473-8.852747z m357.276716-462.398088L513.610259 38.235191999999984l-144.442924 62.648979v-228.132171z"  horiz-adv-x="1024" />

    
    <glyph glyph-name="invoice-finance" unicode="&#58924;" d="M769.722672 334.788911A151.095293 151.095293 0 1 0 920.817966 485.884204a151.095293 151.095293 0 0 0-151.095294-151.095293z m0 215.850419A64.755126 64.755126 0 1 1 834.477798 485.884204 64.755126 64.755126 0 0 1 769.722672 550.63933zM424.362002 593.809413A151.095293 151.095293 0 1 0 575.457295 744.904707 151.095293 151.095293 0 0 0 424.362002 593.809413z m0 215.850419A64.755126 64.755126 0 1 1 489.117128 744.904707 64.755126 64.755126 0 0 1 424.362002 809.659832zM409.684173-127.99438799999996a172.680335 172.680335 0 0 0-77.27445 18.131435L14.246206 49.00295600000004V421.129078h86.340167c45.760289 0 170.09013-15.972931 236.140359-86.340167H445.947044a215.850419 215.850419 0 0 0 172.680335-86.340168h215.850419c127.351747 0 168.363327-82.023159 172.680335-125.624944l2.590205-32.377563-538.330945-207.216402a167.931626 167.931626 0 0 0-61.73322-11.224222zM100.586373 102.53386l270.244725-135.122363a86.340168 86.340168 0 0 1 69.503835-3.453606l464.078401 178.292446A104.039902 104.039902 0 0 1 834.477798 162.10857499999997h-176.997344a203.331095 203.331095 0 0 0 4.317009-43.170084v-43.170083H316.436792v86.340167h251.681589A129.510251 129.510251 0 0 1 445.947044 248.44874300000004H293.988349l-12.951025 18.563136C247.364658 314.93067199999996 146.778363 334.788911 100.586373 334.788911z"  horiz-adv-x="1024" />

    
    <glyph glyph-name="integrate-manage" unicode="&#58925;" d="M640-128H384v150.186667q-19.2 6.826667-37.12 15.36l-106.24-106.24-181.333333 181.333333 106.24 106.24q-8.106667 17.92-15.36 37.12H0V512h150.186667q6.826667 19.2 15.36 37.12L59.306667 655.36l181.333333 181.333333 106.24-106.24q17.92 8.106667 37.12 15.36V896h256v-150.186667q19.2-6.826667 37.12-15.36l106.24 106.24 181.333333-181.333333-106.24-106.24q8.106667-17.92 15.36-37.12H1024v-256h-150.186667q-6.826667-19.2-15.36-37.12l106.24-106.24-181.333333-181.333333-106.24 106.24q-17.92-8.106667-37.12-15.36z m-170.666667 85.333333h85.333334v128l32 8.106667a281.6 281.6 0 0 1 76.8 32l28.586666 16.64 91.306667-91.733333 60.586667 60.586666-91.733334 91.306667 16.64 28.586667a295.68 295.68 0 0 1 32 76.8L810.666667 341.33333300000004h128v85.333334h-128l-8.106667 32a281.6 281.6 0 0 1-34.56 76.8l-16.64 28.586666 91.733333 91.306667-59.733333 60.586667-91.306667-91.733334-28.586666 15.786667a281.6 281.6 0 0 1-76.8 32L554.666667 682.666667V810.666667h-85.333334v-128l-32-8.106667a281.6 281.6 0 0 1-76.8-34.56l-28.586666-16.64-91.306667 92.586667-60.586667-60.586667 91.733334-91.306667-15.786667-28.586666a281.6 281.6 0 0 1-32-76.8L213.333333 426.666667H85.333333v-85.333334h128l8.106667-32a295.68 295.68 0 0 1 34.56-76.8l16.64-28.586666-92.586667-91.306667 60.586667-60.586667 91.306667 91.733334 28.586666-16.64a281.6 281.6 0 0 1 76.8-32L469.333333 85.33333300000004zM512 213.33333300000004a170.666667 170.666667 0 1 0 170.666667 170.666667 170.666667 170.666667 0 0 0-170.666667-170.666667z m0 256a85.333333 85.333333 0 1 1 85.333333-85.333333 85.333333 85.333333 0 0 1-85.333333 85.333333z"  horiz-adv-x="1024" />

    
    <glyph glyph-name="guides" unicode="&#58926;" d="M951.893333 213.33333300000004H72.106667v85.333334h741.546666l-106.666666 213.333333 106.666666 213.333333H72.106667V810.666667h879.786666l-149.333333-298.666667 149.333333-298.666667zM72.106667 896h85.333333v-1024H72.106667z"  horiz-adv-x="1024" />

    
    <glyph glyph-name="risk-report" unicode="&#58927;" d="M981.15893-128H42.666667V767.833524h170.634957v-85.317478H127.984145v-725.198567h767.857307V682.516046h-85.317479V767.833524h170.634957v-895.833524zM767.865234 554.5398279999999H255.960363V810.492264h135.228203a127.976218 127.976218 0 0 0 241.448465 0H767.865234zM341.277841 639.857307h341.269914V725.174785h-127.976217V767.833524a42.658739 42.658739 0 0 1-85.317479 0v-42.658739H341.277841z m298.611175 127.976217zM255.960363 469.22235h511.904871v-85.317479H255.960363zM255.960363 298.587393h511.904871v-85.317479H255.960363zM255.960363 127.95243600000003h255.952435v-85.317479H255.960363z"  horiz-adv-x="1024" />

    
    <glyph glyph-name="operation-manage" unicode="&#58929;" d="M609.051066 736.430589l60.507145 60.549938 254.480903-254.480903-60.507146-60.507146zM225.511074 393.628082l-171.165901 171.1659 17.11659 28.670289a394.965316 394.965316 0 0 0 59.908066 75.740911A385.123276 385.123276 0 0 0 556.289177 750.5089849999999l-33.805266-78.3084a299.540326 299.540326 0 0 1-358.592561-96.280819l122.383619-121.955704zM691.510238-72.371082l-171.1659 171.1659 60.763894 60.33598 122.383619-122.383619a256.748851 256.748851 0 0 1 32.521521 27.814459 299.540326 299.540326 0 0 1 62.903469 332.061847l78.308399 34.661095a382.127873 382.127873 0 0 0-80.447973-427.914751 394.965316 394.965316 0 0 0-77.024655-59.052236zM424.063519 13.639782999999966L141.639783 296.919348l10.697868 26.1028C154.477225 327.301295 376.137066 862.194735 976.501463 893.432511L1024 896l-2.567489-47.498537c-33.805265-599.080652-565.703301-822.024237-571.266193-824.163812z m-181.00794 299.540326l200.264103-199.836189A882.360217 882.360217 0 0 1 931.998328 804.426243a873.801922 873.801922 0 0 1-688.942749-489.106561zM599.080652 471.080652m-85.58295 0a85.58295 85.58295 0 1 1 171.1659 0 85.58295 85.58295 0 1 1-171.1659 0ZM47.498537 92.80401199999994a121.527789 121.527789 0 0 0 171.165901-171.165901C171.165901-126.71625600000004 0-128 0-128s0 173.305474 47.498537 220.804012z"  horiz-adv-x="1024" />

    
    <glyph glyph-name="ent-manage" unicode="&#58930;" d="M1024-128H0V725.333333h256v-85.333333H85.333333v-682.666667h853.333334V640h-170.666667V725.333333h256v-853.333333zM725.333333 85.33333300000004H298.666667v128H0v85.333334h384v-128h256v128h384v-85.333334h-298.666667v-128zM853.333333 213.33333300000004h-85.333333V810.666667H256v-597.333334H170.666667V896h682.666666v-682.666667zM341.333333 682.666667h341.333334v-85.333334H341.333333zM341.333333 512h341.333334v-85.333333H341.333333z"  horiz-adv-x="1024" />

    
    <glyph glyph-name="finished" unicode="&#58934;" d="M512 896a512 512 0 1 1 512-512A512 512 0 0 1 512 896zM388.608 128l-215.04 215.04 54.784 52.224 160.256-160.256 409.6 407.04L850.432 588.8z"  horiz-adv-x="1024" />

    
    <glyph glyph-name="fail" unicode="&#58935;" d="M512 896a512 512 0 1 1 512-512A512 512 0 0 1 512 896z m256-695.808L695.808 128 512 311.808 328.192 128 256 200.192 439.808 384 256 567.808 328.192 640 512 456.192 695.808 640 768 567.808 584.192 384z"  horiz-adv-x="1024" />

    
    <glyph glyph-name="unstart" unicode="&#58936;" d="M512 896a512 512 0 1 1 512-512A512 512 0 0 1 512 896zM243.2 294.4A89.6 89.6 0 1 0 332.8 384a90.112 90.112 0 0 0-89.6-89.6z m268.8 0A89.6 89.6 0 1 0 601.6 384 90.112 90.112 0 0 0 512 294.4z m268.8 0A89.6 89.6 0 1 0 870.4 384a90.112 90.112 0 0 0-89.6-89.6z"  horiz-adv-x="1024" />

    
    <glyph glyph-name="processing" unicode="&#58937;" d="M512 896a512 512 0 1 1 512-512A512 512 0 0 1 512 896z m41.472-825.344l-55.296 54.784L716.8 344.576H239.616V423.424H716.8L498.176 640l55.296 54.784L866.816 384z"  horiz-adv-x="1024" />

    
    <glyph glyph-name="download" unicode="&#58938;" d="M933.647059 534.5882349999999h-240.941177V896H331.294118v-361.411765H90.352941l421.647059-421.647059zM90.352941-7.529411999999979v-120.470588h843.294118v120.470588z"  horiz-adv-x="1024" />

    


  </font>
</defs>
</svg>
